<svg width="79" height="77" viewBox="0 0 79 77" fill="none" xmlns="http://www.w3.org/2000/svg">
<g clip-path="url(#clip0_133_509)">
<path d="M0.104947 53.3969C0.127255 53.672 0.240095 53.9328 0.426681 54.1404C0.613266 54.348 0.863627 54.4914 1.14052 54.5492L5.72884 55.5149C5.89026 56.2755 6.09638 57.0263 6.34617 57.7638L2.87214 60.8296C2.66132 61.0144 2.51739 61.2607 2.46177 61.5318C2.40616 61.8028 2.44183 62.0842 2.56347 62.3338C3.16474 63.5782 3.86767 64.7735 4.66549 65.908C4.82621 66.1347 5.05751 66.3049 5.32517 66.3935C5.59283 66.4821 5.88263 66.4843 6.15172 66.3999L10.6119 64.9995C11.1451 65.582 11.7119 66.1345 12.3096 66.6542L10.8728 71.0016C10.7862 71.2638 10.7885 71.5463 10.8794 71.8072C10.9703 72.0681 11.1449 72.2935 11.3774 72.4502C12.5414 73.2278 13.7677 73.913 15.0444 74.499C15.3006 74.6174 15.5892 74.652 15.8672 74.5978C16.1452 74.5436 16.3979 74.4035 16.5877 74.1982L19.7346 70.812C20.494 71.055 21.2669 71.2559 22.0496 71.4137L23.0404 75.886C23.1 76.1554 23.247 76.399 23.4596 76.5808C23.6722 76.7625 23.9392 76.8728 24.221 76.8954C24.9217 76.9495 25.6239 76.9977 26.3385 76.9977C27.053 76.9977 27.7553 76.9495 28.4559 76.8954C28.7382 76.8736 29.0058 76.7636 29.2188 76.5818C29.4318 76.3999 29.5788 76.1559 29.6381 75.886L30.6289 71.4137C31.4118 71.2566 32.1848 71.0557 32.9439 70.812L36.0908 74.1982C36.2803 74.4039 36.533 74.5443 36.8112 74.5985C37.0893 74.6527 37.378 74.6178 37.6341 74.499C38.9054 73.9103 40.1264 73.2237 41.2856 72.4457C41.5182 72.289 41.6928 72.0636 41.7837 71.8027C41.8746 71.5418 41.8769 71.2593 41.7903 70.997L40.3535 66.6497C40.9508 66.1296 41.5176 65.5772 42.0511 64.9949L46.5114 66.3954C46.7804 66.4801 47.0703 66.4779 47.338 66.3893C47.6057 66.3007 47.837 66.1304 47.9976 65.9035C48.7954 64.769 49.4983 63.5737 50.0996 62.3293C50.2212 62.0796 50.2569 61.7983 50.2013 61.5273C50.1457 61.2562 50.0017 61.0099 49.7909 60.8251L46.3231 57.7638C46.5723 57.0236 46.7784 56.2703 46.9404 55.5074L51.5287 54.5416C51.8052 54.4835 52.0551 54.3402 52.2416 54.133C52.428 53.9258 52.5412 53.6656 52.5643 53.3909C52.6183 52.7064 52.6677 52.0235 52.6677 51.3255C52.6677 50.6275 52.6183 49.9445 52.5627 49.2616C52.5404 48.9864 52.4276 48.7257 52.241 48.518C52.0544 48.3104 51.8041 48.1671 51.5272 48.1093L46.9389 47.1435C46.7777 46.3805 46.5716 45.6271 46.3215 44.8871L49.7956 41.8199C50.0064 41.635 50.1503 41.3887 50.2059 41.1176C50.2615 40.8466 50.2259 40.5653 50.1042 40.3156C49.5002 39.077 48.7957 37.8873 47.9976 36.7579C47.837 36.5311 47.6057 36.3608 47.338 36.2721C47.0703 36.1835 46.7804 36.1814 46.5114 36.266L42.0511 37.6665C41.5179 37.084 40.9511 36.5315 40.3535 36.0118L41.7903 31.6644C41.8769 31.4021 41.8746 31.1197 41.7837 30.8588C41.6928 30.5979 41.5182 30.3724 41.2856 30.2158C40.1216 29.4382 38.8954 28.753 37.6187 28.167C37.3626 28.0479 37.0739 28.0129 36.7957 28.0671C36.5175 28.1213 36.2647 28.2619 36.0753 28.4678L32.9285 31.854C32.1691 31.611 31.3962 31.4101 30.6135 31.2522L29.6319 26.7755C29.5723 26.506 29.4253 26.2624 29.2127 26.0807C29.0001 25.8989 28.7331 25.7886 28.4513 25.7661C27.0419 25.6571 25.6258 25.6571 24.2164 25.7661C23.9341 25.7879 23.6666 25.8978 23.4536 26.0797C23.2406 26.2616 23.0935 26.5056 23.0342 26.7755L22.0434 31.2477C21.2631 31.4051 20.4927 31.606 19.7361 31.8495L16.5893 28.4633C16.3996 28.2578 16.1469 28.1175 15.8688 28.0633C15.5907 28.0091 15.3021 28.0439 15.0459 28.1624C13.7693 28.7485 12.543 29.4336 11.379 30.2113C11.1464 30.3679 10.9718 30.5934 10.8809 30.8543C10.79 31.1152 10.7877 31.3976 10.8743 31.6599L12.3111 36.0073C11.7135 36.527 11.1467 37.0795 10.6135 37.662L6.1548 36.2615C5.88576 36.1766 5.59578 36.1787 5.32801 36.2673C5.06023 36.3559 4.82896 36.5264 4.66857 36.7534C3.87076 37.888 3.16782 39.0832 2.56656 40.3276C2.44491 40.5773 2.40924 40.8586 2.46486 41.1297C2.52048 41.4007 2.66441 41.647 2.87522 41.8319L6.34463 44.9022C6.09537 45.6424 5.88926 46.3957 5.7273 47.1586L1.13898 48.1243C0.862542 48.1825 0.612624 48.3258 0.426144 48.533C0.239664 48.7402 0.126512 49.0004 0.103403 49.2751C0.0493864 49.9521 0 50.6335 0 51.333C0 52.0325 0.0493867 52.7139 0.104947 53.3969ZM2.6607 50.4229L7.13636 49.4797C7.39569 49.425 7.63201 49.2952 7.81433 49.1073C7.99665 48.9194 8.11646 48.6821 8.15804 48.4267C8.3539 47.2455 8.67084 46.0864 9.10411 44.9668C9.19793 44.7258 9.21498 44.4627 9.15303 44.2121C9.09108 43.9614 8.95301 43.7348 8.75686 43.5618L5.37851 40.5849C5.67328 40.0343 5.98195 39.5063 6.3045 39.0084L10.6444 40.3712C10.8962 40.4499 11.1664 40.4531 11.4201 40.3804C11.6737 40.3077 11.8992 40.1625 12.0673 39.9636C12.8435 39.0354 13.7126 38.1848 14.6616 37.4243C14.8664 37.261 15.0159 37.0413 15.0905 36.7938C15.1651 36.5464 15.1614 36.2827 15.0799 36.0374L13.6816 31.8073C14.1961 31.4954 14.7352 31.1946 15.299 30.9048L18.3656 34.2067C18.5435 34.3978 18.7762 34.5323 19.0336 34.5927C19.291 34.6531 19.5611 34.6365 19.8086 34.5451C20.9546 34.1228 22.1412 33.8138 23.3506 33.623C23.6126 33.5825 23.856 33.4657 24.0488 33.288C24.2416 33.1103 24.3748 32.8799 24.4309 32.6272L25.397 28.2647C26.0196 28.232 26.6435 28.232 27.266 28.2647L28.2337 32.6272C28.2898 32.8799 28.423 33.1103 28.6158 33.288C28.8086 33.4657 29.052 33.5825 29.314 33.623C30.5259 33.8139 31.7151 34.1228 32.8637 34.5451C33.111 34.6366 33.3809 34.6532 33.638 34.5928C33.8952 34.5324 34.1277 34.3979 34.3051 34.2067L37.3702 30.9093C37.9351 31.1966 38.4768 31.4974 38.9876 31.8118L37.5801 36.0419C37.499 36.2873 37.4955 36.5508 37.5701 36.7982C37.6447 37.0455 37.7939 37.2653 37.9983 37.4289C38.9505 38.1884 39.8227 39.0385 40.6019 39.9666C40.7692 40.1665 40.9947 40.3125 41.2486 40.3852C41.5026 40.458 41.7732 40.4542 42.0249 40.3743L46.3647 39.0114C46.6847 39.5128 46.9934 40.0383 47.2907 40.5879L43.9062 43.5754C43.7099 43.7486 43.5718 43.9755 43.5098 44.2264C43.4479 44.4773 43.465 44.7406 43.559 44.9819C43.9923 46.0988 44.3092 47.2554 44.505 48.4342C44.5466 48.6897 44.6664 48.9269 44.8487 49.1148C45.0311 49.3027 45.2674 49.4325 45.5267 49.4872L50.0024 50.4289C50.0193 50.7298 50.0317 51.0306 50.0317 51.3405C50.0317 51.6504 50.0209 51.9497 50.0039 52.2431L45.5282 53.1863C45.2689 53.241 45.0326 53.3708 44.8503 53.5587C44.668 53.7466 44.5481 53.9838 44.5066 54.2393C44.3107 55.4205 43.9938 56.5796 43.5605 57.6991C43.4667 57.9402 43.4496 58.2032 43.5116 58.4539C43.5735 58.7046 43.7116 58.9312 43.9078 59.1041L47.2876 62.0811C46.9929 62.6317 46.6842 63.1597 46.3616 63.6576L42.0218 62.2947C41.7701 62.2146 41.4995 62.2107 41.2455 62.2834C40.9914 62.3562 40.766 62.5023 40.5989 62.7024C39.8193 63.6302 38.9472 64.4803 37.9953 65.2401C37.7909 65.4035 37.6418 65.623 37.5672 65.8701C37.4926 66.1172 37.496 66.3804 37.577 66.6256L38.9753 70.8556C38.4608 71.1675 37.9217 71.4684 37.3579 71.7582L34.2928 68.4593C34.1147 68.2685 33.882 68.1342 33.6247 68.0739C33.3674 68.0135 33.0974 68.0299 32.8498 68.1208C31.7039 68.5432 30.5172 68.8521 29.3078 69.043C29.0458 69.0835 28.8024 69.2003 28.6096 69.378C28.4168 69.5557 28.2836 69.786 28.2275 70.0388L27.2614 74.4013C26.6388 74.434 26.015 74.434 25.3924 74.4013L24.4247 70.0388C24.3686 69.786 24.2354 69.5557 24.0426 69.378C23.8499 69.2003 23.6065 69.0835 23.3444 69.043C22.1325 68.8521 20.9434 68.5431 19.7948 68.1208C19.5475 68.0292 19.2775 68.0125 19.0203 68.0729C18.7631 68.1333 18.5306 68.2679 18.3533 68.4593L15.3068 71.7537C14.7419 71.4664 14.2002 71.1655 13.6893 70.8511L15.0876 66.6211C15.1687 66.3757 15.1722 66.1122 15.0976 65.8648C15.023 65.6175 14.8738 65.3977 14.6694 65.2341C13.7172 64.4746 12.845 63.6245 12.0658 62.6964C11.8982 62.4968 11.6727 62.3511 11.4189 62.2783C11.165 62.2056 10.8945 62.2092 10.6428 62.2887L6.30296 63.6516C5.98298 63.1502 5.67431 62.6247 5.37696 62.0751L8.76149 59.0876C8.95777 58.9144 9.09591 58.6875 9.15785 58.4366C9.2198 58.1857 9.20268 57.9224 9.10874 57.6811C8.6754 56.5641 8.35845 55.4075 8.16267 54.2287C8.12109 53.9733 8.00128 53.7361 7.81896 53.5482C7.63664 53.3603 7.40032 53.2305 7.14099 53.1757L2.66533 52.2371C2.6499 51.9362 2.63755 51.6354 2.63755 51.3255C2.63755 51.0156 2.64372 50.7222 2.6607 50.4229Z" fill="white"/>
<path d="M68.7553 18.2673C68.9979 18.193 69.2132 18.0517 69.3751 17.8605C69.537 17.6694 69.6385 17.4365 69.6674 17.1903C69.7424 16.5958 69.7811 15.9976 69.7831 15.3987C69.781 14.7998 69.7428 14.2016 69.6689 13.6071C69.6401 13.3608 69.5385 13.128 69.3766 12.9368C69.2147 12.7456 68.9994 12.6043 68.7568 12.53L65.1053 11.4123C64.9963 11.1215 64.8754 10.8357 64.7426 10.5549L66.5128 7.24542C66.6301 7.02573 66.6798 6.77771 66.656 6.53114C66.6322 6.28457 66.5359 6.04995 66.3786 5.85546C65.6129 4.91578 64.7382 4.0657 63.7719 3.32224C63.5725 3.16868 63.3319 3.0745 63.0789 3.05102C62.8259 3.02753 62.5714 3.07575 62.3458 3.18986L58.9505 4.91528C58.6635 4.78691 58.3702 4.66908 58.0708 4.56177L56.9241 1.00263C56.8479 0.766155 56.7029 0.556312 56.5068 0.398519C56.3106 0.240725 56.0718 0.141753 55.8191 0.113593C54.5981 -0.0378642 53.3623 -0.0378642 52.1413 0.113593C51.8887 0.141753 51.6498 0.240725 51.4537 0.398519C51.2575 0.556312 51.1126 0.766155 51.0363 1.00263L49.8896 4.56177C49.5912 4.66808 49.298 4.78591 49.0099 4.91528L45.6146 3.18986C45.3891 3.07591 45.1347 3.02765 44.8818 3.05086C44.6289 3.07407 44.3883 3.16776 44.1886 3.32074C43.2248 4.06849 42.3531 4.9226 41.5911 5.86599C41.4332 6.06016 41.3364 6.29474 41.3123 6.54139C41.2882 6.78804 41.3379 7.03622 41.4553 7.25595L43.224 10.5654C43.0923 10.8452 42.9714 11.131 42.8613 11.4228L39.2098 12.5405C38.9672 12.6148 38.7519 12.7562 38.59 12.9473C38.4281 13.1385 38.3266 13.3713 38.2977 13.6176C38.1449 14.8074 38.1449 16.011 38.2977 17.2008C38.3266 17.4471 38.4281 17.6799 38.59 17.8711C38.7519 18.0622 38.9672 18.2035 39.2098 18.2779L42.8613 19.3956C42.9704 19.6864 43.0912 19.9722 43.224 20.253L41.4538 23.5624C41.3365 23.7821 41.2868 24.0302 41.3106 24.2767C41.3344 24.5233 41.4307 24.7579 41.588 24.9524C42.3566 25.8893 43.2339 26.7364 44.2024 27.4766C44.4018 27.6302 44.6425 27.7243 44.8954 27.7478C45.1484 27.7713 45.4029 27.7231 45.6285 27.609L49.0238 25.8851C49.3109 26.0134 49.6041 26.1313 49.9035 26.2386L51.0502 29.7977C51.1265 30.0342 51.2714 30.244 51.4676 30.4018C51.6637 30.5596 51.9026 30.6586 52.1552 30.6867C52.7661 30.7598 53.3809 30.7975 53.9964 30.7996C54.6108 30.7974 55.2246 30.7603 55.8345 30.6882C56.0872 30.6601 56.3261 30.5611 56.5222 30.4033C56.7183 30.2455 56.8633 30.0357 56.9396 29.7992L58.0862 26.2401C58.3846 26.1338 58.6779 26.0159 58.9659 25.8866L62.3613 27.612C62.5866 27.7267 62.8411 27.7753 63.0942 27.7521C63.3472 27.7289 63.5879 27.6348 63.7873 27.4811C64.7535 26.7357 65.6277 25.8836 66.3925 24.9419C66.5504 24.7477 66.6472 24.5131 66.6713 24.2665C66.6954 24.0198 66.6457 23.7716 66.5283 23.5519L64.7581 20.2425C64.8908 19.9627 65.0117 19.6769 65.1207 19.385L68.7553 18.2673ZM63.6731 17.1331C63.4682 17.1964 63.2823 17.3074 63.1314 17.4566C62.9806 17.6057 62.8693 17.7885 62.8073 17.989C62.6295 18.562 62.3938 19.1163 62.1035 19.6438C62.0012 19.8284 61.9469 20.0347 61.9455 20.2445C61.9442 20.4544 61.9958 20.6614 62.0958 20.8472L63.7672 23.9686C63.4553 24.306 63.1257 24.6273 62.7795 24.9313L59.5771 23.3022C59.3864 23.205 59.1741 23.1548 58.9588 23.1561C58.7436 23.1574 58.5319 23.2102 58.3424 23.3097C57.8013 23.5926 57.2326 23.8224 56.6448 23.9957C56.439 24.0561 56.2515 24.1646 56.0985 24.3116C55.9454 24.4587 55.8315 24.6399 55.7666 24.8396L54.6863 28.2077C54.2237 28.236 53.7598 28.236 53.2973 28.2077L52.217 24.8396C52.152 24.6399 52.0381 24.4587 51.8851 24.3116C51.7321 24.1646 51.5446 24.0561 51.3388 23.9957C50.7507 23.8231 50.182 23.5933 49.6411 23.3097C49.4517 23.2102 49.24 23.1574 49.0248 23.1561C48.8095 23.1548 48.5972 23.205 48.4065 23.3022L45.2041 24.9313C44.8579 24.6273 44.5282 24.306 44.2163 23.9686L45.8878 20.8472C45.9875 20.6613 46.039 20.4544 46.0376 20.2445C46.0363 20.0347 45.9822 19.8285 45.88 19.6438C45.5898 19.1163 45.3541 18.562 45.1763 17.989C45.1143 17.7885 45.003 17.6057 44.8521 17.4566C44.7013 17.3074 44.5153 17.1964 44.3105 17.1331L40.855 16.0801C40.8395 15.8454 40.8334 15.6213 40.8334 15.4032C40.8334 15.1851 40.8334 14.9624 40.855 14.7262L44.3105 13.6732C44.5153 13.61 44.7013 13.4989 44.8521 13.3498C45.003 13.2006 45.1143 13.0179 45.1763 12.8173C45.3533 12.2441 45.5891 11.6897 45.88 11.1626C45.9822 10.9779 46.0363 10.7716 46.0376 10.5618C46.039 10.352 45.9875 10.1451 45.8878 9.95916L44.2024 6.82723C44.5143 6.48984 44.844 6.16849 45.1902 5.86449L48.3926 7.49363C48.5835 7.59048 48.7957 7.64042 49.0109 7.63911C49.2261 7.6378 49.4376 7.58528 49.6273 7.48611C50.1684 7.20324 50.7371 6.97346 51.3249 6.80015C51.5307 6.73971 51.7182 6.63126 51.8712 6.4842C52.0242 6.33714 52.1382 6.15592 52.2031 5.95625L53.2834 2.58815C53.7459 2.55986 54.2099 2.55986 54.6724 2.58815L55.7527 5.95625C55.8176 6.15592 55.9316 6.33714 56.0846 6.4842C56.2376 6.63126 56.4251 6.73971 56.6309 6.80015C57.219 6.97269 57.7877 7.2025 58.3286 7.48611C58.518 7.58565 58.7297 7.63839 58.9449 7.6397C59.1602 7.64101 59.3725 7.59086 59.5632 7.49363L62.778 5.86599C63.1241 6.17 63.4538 6.49134 63.7657 6.82874L62.0958 9.94712C61.9961 10.133 61.9446 10.34 61.946 10.5498C61.9473 10.7596 62.0014 10.9659 62.1035 11.1506C62.3938 11.6781 62.6295 12.2323 62.8073 12.8053C62.8693 13.0058 62.9806 13.1886 63.1314 13.3378C63.2823 13.4869 63.4682 13.5979 63.6731 13.6612L67.1286 14.7142C67.1441 14.9489 67.1502 15.173 67.1502 15.3911C67.1502 15.6093 67.1502 15.8319 67.1286 16.0681L63.6731 17.1331Z" fill="white"/>
<path d="M78.0278 42.3029L75.7653 41.5207C75.637 41.162 75.4886 40.8105 75.3208 40.4677L76.3487 38.3617C76.4538 38.1465 76.4951 37.9069 76.4678 37.67C76.4405 37.4332 76.3458 37.2085 76.1943 37.0213C75.5339 36.1993 74.7737 35.4583 73.9303 34.8146C73.7378 34.6673 73.5071 34.5751 73.2639 34.5486C73.0207 34.522 72.7748 34.562 72.5536 34.6641L70.393 35.666C70.0413 35.5027 69.6807 35.3585 69.3126 35.2343L68.5085 33.029C68.4263 32.8046 68.2818 32.6068 68.0911 32.4578C67.9003 32.3088 67.6708 32.2144 67.4282 32.1851C66.3675 32.0477 65.2927 32.0477 64.232 32.1851C63.9892 32.2139 63.7595 32.3081 63.5686 32.4572C63.3778 32.6063 63.2334 32.8043 63.1516 33.029L62.3491 35.2343C61.9812 35.3593 61.6205 35.504 61.2688 35.6675L59.1081 34.6656C58.8871 34.564 58.6415 34.5242 58.3987 34.5508C58.1559 34.5774 57.9254 34.6692 57.733 34.8161C56.8896 35.4598 56.1294 36.2008 55.469 37.0229C55.3182 37.2106 55.2239 37.4355 55.1966 37.6724C55.1693 37.9094 55.2102 38.1491 55.3146 38.3647L56.3425 40.4707C56.1749 40.8134 56.0271 41.165 55.8995 41.5237L53.6386 42.3119C53.4083 42.392 53.2055 42.5329 53.0526 42.7189C52.8997 42.9048 52.8028 43.1285 52.7727 43.3649C52.7045 43.8793 52.6689 44.3972 52.6663 44.9158C52.6689 45.4364 52.7039 45.9564 52.7712 46.4728C52.8008 46.7094 52.8975 46.9333 53.0504 47.1193C53.2034 47.3054 53.4065 47.4461 53.637 47.5258L55.8995 48.308C56.0279 48.6667 56.1762 49.0182 56.344 49.361L55.3162 51.467C55.211 51.6822 55.1697 51.9218 55.197 52.1587C55.2243 52.3955 55.319 52.6202 55.4705 52.8073C56.1309 53.6294 56.8911 54.3704 57.7346 55.0141C57.9272 55.1611 58.1579 55.253 58.401 55.2796C58.6441 55.3062 58.89 55.2663 59.1112 55.1646L61.2719 54.1627C61.6235 54.326 61.9842 54.4701 62.3522 54.5944L63.1563 56.7997C63.2385 57.0241 63.383 57.2219 63.5738 57.3709C63.7645 57.5199 63.994 57.6143 64.2366 57.6436C64.7663 57.7114 65.2998 57.7466 65.834 57.7489C66.368 57.7464 66.9015 57.7122 67.4313 57.6466C67.6741 57.6178 67.9038 57.5236 68.0946 57.3745C68.2855 57.2254 68.4299 57.0274 68.5116 56.8027L69.3142 54.5974C69.6821 54.4724 70.0428 54.3278 70.3945 54.1642L72.5552 55.1661C72.7759 55.2687 73.0217 55.3091 73.2648 55.2825C73.5078 55.2559 73.7384 55.1635 73.9303 55.0156C74.7737 54.3719 75.5339 53.6309 76.1943 52.8089C76.3451 52.6211 76.4394 52.3962 76.4667 52.1593C76.4939 51.9223 76.4531 51.6827 76.3487 51.467L75.3208 49.361C75.4883 49.0183 75.6362 48.6667 75.7637 48.308L78.0263 47.5243C78.2565 47.4442 78.4594 47.3033 78.6122 47.1174C78.7651 46.9314 78.862 46.7077 78.8921 46.4713C78.9616 45.955 78.9977 45.435 79.0001 44.9143C78.9975 44.3938 78.9624 43.8738 78.8952 43.3574C78.8654 43.1208 78.7687 42.897 78.6157 42.711C78.4628 42.525 78.2598 42.3842 78.0293 42.3044L78.0278 42.3029ZM76.3533 45.3837L74.2729 46.1073C74.0735 46.1761 73.894 46.2909 73.7498 46.4417C73.6055 46.5925 73.5007 46.775 73.4441 46.9737C73.2743 47.5768 73.0291 48.1573 72.7141 48.7021C72.6104 48.8815 72.5523 49.0824 72.5448 49.2882C72.5372 49.4939 72.5805 49.6984 72.6709 49.8845L73.617 51.8266C73.3988 52.0602 73.1704 52.2829 72.9317 52.4945L70.9393 51.5723C70.7484 51.4842 70.5386 51.442 70.3275 51.4494C70.1164 51.4567 69.9102 51.5133 69.7262 51.6144C69.1677 51.9214 68.5727 52.1603 67.9545 52.326C67.7505 52.3812 67.5631 52.4834 67.4082 52.624C67.2532 52.7646 67.1352 52.9394 67.064 53.1338L66.3232 55.1676C66.0029 55.1843 65.682 55.1843 65.3617 55.1676L64.6209 53.1338C64.5502 52.9394 64.4325 52.7645 64.2778 52.6239C64.123 52.4833 63.9358 52.3811 63.7319 52.326C63.1132 52.1605 62.5176 51.9215 61.9587 51.6144C61.7745 51.5139 61.5683 51.4576 61.3574 51.4503C61.1464 51.443 60.9367 51.4848 60.7456 51.5723L58.7532 52.4945C58.5134 52.2818 58.285 52.0592 58.0679 51.8266L59.014 49.8845C59.1046 49.6985 59.148 49.494 59.1405 49.2882C59.133 49.0824 59.0748 48.8814 58.9708 48.7021C58.6559 48.1578 58.4107 47.5778 58.2408 46.9752C58.1841 46.7764 58.0792 46.5938 57.935 46.4427C57.7907 46.2917 57.6114 46.1766 57.412 46.1073L55.3254 45.3852C55.3146 45.2348 55.31 45.0753 55.31 44.9174C55.31 44.7594 55.31 44.603 55.3239 44.4495L57.4105 43.726C57.6098 43.6572 57.7891 43.5425 57.9331 43.3916C58.0772 43.2408 58.1816 43.0582 58.2377 42.8595C58.4083 42.2564 58.654 41.676 58.9692 41.1311C59.073 40.9517 59.1311 40.7508 59.1386 40.545C59.1461 40.3393 59.1028 40.1348 59.0124 39.9487L58.0664 38.0067C58.2845 37.773 58.5129 37.5504 58.7516 37.3388L60.7441 38.2609C60.9348 38.3496 61.1447 38.3921 61.3559 38.3848C61.5671 38.3775 61.7733 38.3205 61.9571 38.2188C62.5156 37.9119 63.1106 37.6729 63.7289 37.5072C63.9328 37.452 64.1202 37.3498 64.2752 37.2092C64.4301 37.0686 64.5482 36.8938 64.6194 36.6994L65.3602 34.6656C65.6804 34.6489 66.0014 34.6489 66.3216 34.6656L67.0624 36.6994C67.1331 36.8938 67.2508 37.0687 67.4056 37.2093C67.5603 37.3499 67.7475 37.4521 67.9514 37.5072C68.5702 37.6727 69.1657 37.9117 69.7247 38.2188C69.9085 38.3205 70.1147 38.3775 70.3259 38.3848C70.5371 38.3921 70.747 38.3496 70.9377 38.2609L72.9302 37.3388C73.1699 37.5514 73.3983 37.774 73.6154 38.0067L72.6694 39.9487C72.5787 40.1347 72.5353 40.3392 72.5428 40.545C72.5503 40.7508 72.6086 40.9518 72.7126 41.1311C73.0275 41.6754 73.2726 42.2554 73.4426 42.858C73.4993 43.0568 73.6041 43.2394 73.7484 43.3905C73.8926 43.5415 74.072 43.6566 74.2713 43.726L76.3579 44.448C76.3687 44.5984 76.3734 44.7594 76.3734 44.9174C76.3734 45.0753 76.3734 45.2302 76.3595 45.3852L76.3533 45.3837Z" fill="white"/>
<path d="M26.3322 65.4508C29.1965 65.4508 31.9965 64.6229 34.3782 63.0718C36.7598 61.5208 38.6161 59.3162 39.7123 56.7369C40.8085 54.1576 41.0954 51.3194 40.5367 48.5811C39.978 45.8429 38.5988 43.3276 36.5735 41.3534C34.5482 39.3791 31.9678 38.0345 29.1586 37.4897C26.3493 36.9448 23.4374 37.2242 20.791 38.2924C18.1447 39.3606 15.8827 41.1696 14.2911 43.4909C12.6996 45.8121 11.8499 48.5411 11.8496 51.333C11.8557 55.0752 13.3835 58.6624 16.0981 61.3086C18.8128 63.9549 22.4929 65.4444 26.3322 65.4508ZM26.3322 39.7846C28.6759 39.7846 30.9669 40.462 32.9156 41.7311C34.8642 43.0002 36.383 44.8041 37.2799 46.9145C38.1768 49.025 38.4114 51.3473 37.9542 53.5878C37.497 55.8283 36.3684 57.8863 34.7112 59.5015C33.054 61.1168 30.9426 62.2169 28.644 62.6625C26.3454 63.1082 23.9628 62.8794 21.7975 62.0052C19.6323 61.1311 17.7816 59.6507 16.4796 57.7513C15.1775 55.8519 14.4825 53.6189 14.4825 51.3345C14.4858 48.2721 15.7352 45.336 17.9567 43.1705C20.1782 41.0049 23.1904 39.7867 26.3322 39.7831V39.7846Z" fill="white"/>
<path d="M0.0292969 29.9768L2.05106 31.621C5.01374 28.1472 8.72556 25.3527 12.9223 23.4362C17.1191 21.5197 21.6977 20.5284 26.3323 20.5329C27.0021 20.5329 27.6719 20.5705 28.3386 20.6111L26.7166 22.1921L28.5778 24.0063L32.5272 20.1568C32.6496 20.0378 32.7466 19.8964 32.8129 19.7407C32.8791 19.5851 32.9132 19.4182 32.9132 19.2497C32.9132 19.0812 32.8791 18.9144 32.8129 18.7587C32.7466 18.6031 32.6496 18.4617 32.5272 18.3426L28.5778 14.4932L26.7197 16.3073L28.5084 18.0508C27.7846 18.0057 27.0592 17.9666 26.3338 17.9666C21.3132 17.9615 16.3532 19.0352 11.8067 21.111C7.26026 23.1869 3.23906 26.2139 0.0292969 29.9768Z" fill="white"/>
<path d="M53.9825 8.98291C52.6804 8.98291 51.4075 9.35928 50.3247 10.0644C49.242 10.7696 48.3982 11.7718 47.8998 12.9444C47.4015 14.117 47.2712 15.4073 47.5252 16.6522C47.7792 17.897 48.4063 19.0404 49.327 19.9379C50.2478 20.8354 51.4209 21.4466 52.6981 21.6942C53.9752 21.9418 55.299 21.8147 56.5021 21.329C57.7051 20.8433 58.7334 20.0208 59.4568 18.9655C60.1802 17.9101 60.5664 16.6694 60.5664 15.4002C60.5647 13.6987 59.8706 12.0674 58.6362 10.8643C57.4019 9.66112 55.7282 8.9845 53.9825 8.98291ZM53.9825 19.2497C53.2014 19.2497 52.4378 19.0239 51.7884 18.6009C51.1389 18.1779 50.6327 17.5767 50.3338 16.8733C50.0349 16.1699 49.9567 15.3959 50.109 14.6492C50.2614 13.9025 50.6376 13.2166 51.1899 12.6782C51.7422 12.1399 52.4459 11.7732 53.212 11.6247C53.9782 11.4762 54.7722 11.5524 55.4939 11.8438C56.2155 12.1351 56.8324 12.6285 57.2663 13.2616C57.7003 13.8946 57.9319 14.6388 57.9319 15.4002C57.9307 16.4208 57.5142 17.3992 56.7738 18.1209C56.0334 18.8425 55.0296 19.2485 53.9825 19.2497Z" fill="white"/>
<path d="M65.8323 39.7832C64.7908 39.7832 63.7727 40.0842 62.9067 40.6482C62.0407 41.2122 61.3658 42.0138 60.9672 42.9517C60.5687 43.8895 60.4644 44.9215 60.6676 45.9172C60.8708 46.9128 61.3723 47.8273 62.1087 48.5452C62.8452 49.263 63.7835 49.7518 64.8049 49.9498C65.8264 50.1479 66.8852 50.0462 67.8474 49.6578C68.8096 49.2693 69.632 48.6114 70.2106 47.7674C70.7893 46.9233 71.0981 45.931 71.0981 44.9158C71.0965 43.5551 70.5411 42.2505 69.554 41.2883C68.5668 40.3261 67.2283 39.7848 65.8323 39.7832ZM65.8323 47.4837C65.3115 47.4837 64.8025 47.3331 64.3695 47.0512C63.9365 46.7692 63.599 46.3684 63.3998 45.8994C63.2005 45.4305 63.1483 44.9145 63.2499 44.4167C63.3515 43.9189 63.6023 43.4616 63.9705 43.1027C64.3387 42.7438 64.8079 42.4994 65.3186 42.4003C65.8293 42.3013 66.3587 42.3521 66.8398 42.5464C67.3209 42.7406 67.7321 43.0695 68.0214 43.4916C68.3108 43.9136 68.4652 44.4098 68.4652 44.9173C68.4644 45.5977 68.1867 46.25 67.6931 46.7311C67.1995 47.2122 66.5303 47.4829 65.8323 47.4837Z" fill="white"/>
<path d="M77.9412 3.8742L71.3574 2.59104C71.0158 2.52511 70.6613 2.59409 70.3719 2.7828C70.0825 2.97152 69.8819 3.26452 69.814 3.59741L68.4976 10.0147L71.0796 10.5186L71.7895 7.05877C73.0718 9.65972 73.738 12.5084 73.7387 15.394C73.7566 19.7715 72.2267 24.0214 69.4066 27.4283L71.4561 29.0409C74.1169 25.7994 75.7744 21.8857 76.2344 17.7587C76.6945 13.6317 75.938 9.46238 74.0536 5.73951L77.4242 6.39689L77.9412 3.8742Z" fill="white"/>
</g>
<defs>
<clipPath id="clip0_133_509">
<rect width="79" height="77" fill="white"/>
</clipPath>
</defs>
</svg>
