<svg width="70" height="66" viewBox="0 0 70 66" fill="none" xmlns="http://www.w3.org/2000/svg">
<path d="M68.9369 63.83C67.4754 62.1442 65.747 60.6875 63.8147 59.5128C61.6319 58.0074 59.3909 56.4596 58.2664 54.6601C62.5271 53.8082 67.9171 52.266 68.1779 52.1925C68.406 52.1269 68.6136 52.0081 68.7819 51.8468C68.9502 51.6856 69.074 51.4868 69.1422 51.2685C69.2104 51.0502 69.2208 50.8191 69.1726 50.5959C69.1244 50.3727 69.019 50.1645 68.8659 49.9899C64.118 44.9623 58.1687 41.1082 51.526 38.7567C51.0603 37.8658 50.5434 36.7256 49.9416 35.4049C45.6983 26.0947 36.8915 6.77165 13.654 4.17267C11.8019 2.97562 6.95321 -0.00195312 4.50851 -0.00195312C1.49104 -0.00195312 0.201172 1.23406 0.201172 4.12479C0.201172 5.53229 1.39908 7.17697 3.35135 9.74588C4.30594 11.0019 5.90315 13.1032 5.95088 13.7546C5.95088 16.005 8.67964 23.2909 11.4224 26.4076C11.3444 26.568 11.2652 26.725 11.1895 26.8809C9.46794 30.0355 8.65207 33.5706 8.82515 37.1253C8.82515 44.3466 12.441 48.1248 16.0126 48.1248C18.2245 48.1248 19.3327 45.7184 19.8636 42.9012C21.8333 46.724 25.051 51.7048 29.5586 54.7481C29.8706 54.9477 30.2518 55.0229 30.6209 54.9574C30.99 54.892 31.3178 54.6912 31.5343 54.3978C31.7507 54.1044 31.8388 53.7418 31.7796 53.3872C31.7204 53.0326 31.5187 52.7141 31.2175 52.4998C24.0696 47.6738 20.292 36.8069 20.2536 36.6966C20.1467 36.3864 19.9279 36.1226 19.6363 35.9526C19.3448 35.7826 18.9994 35.7174 18.6622 35.7687C18.3249 35.82 18.0178 35.9845 17.7957 36.2327C17.5737 36.4808 17.4512 36.7965 17.4503 37.1231C17.4503 40.8991 16.6983 44.9178 16.0126 45.3733C13.9392 45.3733 11.7052 42.2186 11.7052 37.1231C11.529 33.9773 12.2484 30.8446 13.7867 28.059C14.0044 27.6203 14.2291 27.1682 14.4526 26.6882C14.5779 26.4183 14.609 26.1171 14.5415 25.8289C14.474 25.5408 14.3114 25.2811 14.0778 25.0881C11.8659 23.263 8.82632 15.5819 8.82632 13.7557C8.82632 12.3426 7.62841 10.698 5.67265 8.12681C4.71805 6.87075 3.12085 4.76952 3.07312 4.11811C3.07312 2.7429 3.07312 2.7429 4.51083 2.7429C5.67498 2.7429 9.47358 4.75838 12.3234 6.628C12.5195 6.75657 12.7459 6.83654 12.9823 6.86073C34.8321 9.12899 42.9474 26.9388 47.3059 36.5051C48.0405 38.1164 48.675 39.5116 49.2477 40.5272C49.4199 40.834 49.7074 41.0668 50.0522 41.1786C55.6828 43.1098 60.8107 46.1819 65.0848 50.1848C62.6401 50.8418 58.7274 51.8406 56.0289 52.2705C55.8332 52.3017 55.6464 52.3713 55.4803 52.475C55.3141 52.5786 55.1722 52.714 55.0634 52.8727C54.9546 53.0313 54.8813 53.2098 54.8481 53.3969C54.8149 53.584 54.8226 53.7756 54.8706 53.9597C55.753 57.3448 59.1418 59.6832 62.1337 61.7432C63.8004 62.7526 65.303 63.9907 66.5935 65.4179C66.8139 65.7156 67.149 65.9173 67.5249 65.9787C67.9009 66.0401 68.2869 65.9561 68.5981 65.7453C68.9094 65.5344 69.1203 65.2139 69.1845 64.8543C69.2486 64.4947 69.1609 64.1255 68.9404 63.8278L68.9369 63.83ZM13.1383 10.9997C13.1382 11.1804 13.1752 11.3592 13.2474 11.5262C13.3196 11.6931 13.4255 11.8447 13.5591 11.9725C13.6926 12.1002 13.8512 12.2015 14.0257 12.2705C14.2002 12.3396 14.3872 12.3751 14.576 12.3749C14.9572 12.3752 15.3227 12.5202 15.5923 12.778C15.8619 13.0359 16.0134 13.3855 16.0137 13.7501C16.0137 14.1149 16.1652 14.4647 16.4348 14.7226C16.7045 14.9805 17.0702 15.1253 17.4515 15.1253C17.8328 15.1253 18.1985 14.9805 18.4681 14.7226C18.7377 14.4647 18.8892 14.1149 18.8892 13.7501C18.8867 12.6581 18.4321 11.6116 17.6249 10.8394C16.8176 10.0673 15.7235 9.63243 14.5818 9.63008C14.393 9.6292 14.2058 9.66394 14.031 9.73232C13.8562 9.80071 13.6973 9.90138 13.5632 10.0286C13.4291 10.1558 13.3226 10.3071 13.2497 10.4737C13.1768 10.6403 13.1389 10.8191 13.1383 10.9997Z" fill="white"/>
</svg>
