<svg width="88" height="77" viewBox="0 0 88 77" fill="none" xmlns="http://www.w3.org/2000/svg">
<path d="M83.742 19.8714C84.8708 19.87 85.9529 19.477 86.7511 18.7786C87.5492 18.0802 87.9984 17.1334 88 16.1457V3.72572C87.9984 2.73804 87.5492 1.79121 86.7511 1.09282C85.9529 0.394418 84.8708 0.00142936 83.742 0L63.871 0C62.7422 0.00142936 61.6602 0.394418 60.862 1.09282C60.0638 1.79121 59.6147 2.73804 59.613 3.72572V16.1457C59.6147 17.1334 60.0638 18.0802 60.862 18.7786C61.6602 19.477 62.7422 19.87 63.871 19.8714H68.129V22.3557H65.2898V24.8399H72.3916V37.2599H66.5295C65.3826 36.2756 63.9797 35.5496 62.4414 35.1444C62.4414 35.0188 62.4507 34.8972 62.4507 34.7756C62.4542 32.6252 61.6597 30.532 60.1865 28.8107C58.7134 27.0894 56.6414 25.8332 54.2821 25.231C51.9229 24.6288 49.4039 24.7132 47.1042 25.4714C44.8044 26.2297 42.8482 27.6208 41.5298 29.4356C40.0737 28.862 38.4951 28.565 36.8982 28.5643C34.5978 28.5735 32.3541 29.1902 30.4609 30.3337C28.5676 31.4771 27.113 33.0941 26.2873 34.9729C25.2298 35.1743 24.2174 35.5267 23.2907 36.0157H12.7739V32.286H18.4507C19.5794 32.2845 20.6615 31.8915 21.4597 31.1931C22.2579 30.4947 22.707 29.5479 22.7086 28.5602V3.72572C22.707 2.73827 22.2581 1.79165 21.4602 1.09329C20.6624 0.394933 19.5807 0.00178653 18.4522 0L4.25796 0C3.12918 0.00142936 2.0471 0.394418 1.24893 1.09282C0.450764 1.79121 0.00163355 2.73804 0 3.72572L0 28.5643C0.00285757 29.5513 0.452528 30.4971 1.25057 31.1946C2.0486 31.8921 3.12998 32.2845 4.25796 32.286H9.93474V38.5H20.2786C19.6693 39.258 19.2033 40.0968 18.8984 40.9843H12.7739V54.6457H7.10175C5.97217 54.646 4.8889 55.0386 4.08973 55.7371C3.29056 56.4356 2.84079 57.383 2.83916 58.3714V69.5486H0V73.2743C0.00163355 74.262 0.450764 75.2088 1.24893 75.9072C2.0471 76.6056 3.12918 76.9986 4.25796 77H26.9681C28.0969 76.9986 29.179 76.6056 29.9772 75.9072C30.7753 75.2088 31.2245 74.262 31.2261 73.2743V69.5486H28.3869V58.3714C28.3853 57.3837 27.9362 56.4369 27.138 55.7385C26.3398 55.0401 25.2578 54.6471 24.129 54.6457H15.6131V43.4672H18.4522C18.4559 45.7717 19.5038 47.9809 21.3661 49.6104C23.2284 51.24 25.7532 52.1569 28.3869 52.1601H59.613C61.9989 52.1566 64.3037 51.4025 66.1068 50.0355C67.91 48.6686 69.0913 46.7798 69.4351 44.714H75.2261V54.6497H65.2898V77H88V54.6457H78.0653V42.2257H69.4289C69.2803 41.3632 68.9825 40.5255 68.5458 39.7415H75.2261V24.8386H82.3279V22.3543H79.4841V19.8714H83.742ZM19.871 19.8714H2.83916V7.45144H19.871V19.8714ZM4.25796 2.48426H18.4522C18.8284 2.48462 19.189 2.61553 19.455 2.84827C19.721 3.08101 19.8706 3.39657 19.871 3.72572V4.96718H2.83916V3.72572C2.83957 3.39657 2.98918 3.08101 3.25517 2.84827C3.52116 2.61553 3.8818 2.48462 4.25796 2.48426ZM2.83916 28.5643V22.3503H19.871V28.5643C19.8706 28.8934 19.721 29.209 19.455 29.4417C19.189 29.6745 18.8284 29.8054 18.4522 29.8058H4.25796C3.8818 29.8054 3.52116 29.6745 3.25517 29.4417C2.98918 29.209 2.83957 28.8934 2.83916 28.5643ZM28.3869 73.2783C28.3865 73.6075 28.2369 73.923 27.9709 74.1558C27.7049 74.3885 27.3443 74.5194 26.9681 74.5198H4.25796C3.8818 74.5194 3.52116 74.3885 3.25517 74.1558C2.98918 73.923 2.83957 73.6075 2.83916 73.2783V72.0369H28.3869V73.2783ZM25.5478 58.3714V69.5486H5.67677V58.3714C5.67677 58.2079 5.71366 58.0459 5.78533 57.8949C5.857 57.7438 5.96204 57.6066 6.09442 57.4912C6.2268 57.3757 6.38393 57.2843 6.55679 57.222C6.72965 57.1598 6.91484 57.1281 7.10175 57.1286H24.129C24.5054 57.129 24.8663 57.26 25.1323 57.4931C25.3984 57.7261 25.5478 58.042 25.5478 58.3714ZM68.129 74.5157V67.0643H85.1608V74.5157H68.129ZM85.1608 64.58H68.129V57.1286H85.1608V64.58ZM59.613 49.6772H28.3869C26.5788 49.6779 24.8385 49.0746 23.5217 47.9903C22.2049 46.906 21.411 45.4227 21.3022 43.8434C21.1934 42.2641 21.7779 40.7081 22.9363 39.4932C24.0947 38.2784 25.7395 37.4964 27.5347 37.3072L28.4611 37.2086L28.7235 36.4196C29.0865 35.3175 29.7362 34.3038 30.6217 33.4581C31.5072 32.6123 32.6045 31.9575 33.8276 31.5448C35.0507 31.1321 36.3663 30.9728 37.6715 31.0793C38.9767 31.1859 40.236 31.5554 41.3507 32.159L42.7062 32.8898L43.3825 31.6267C44.2278 29.9753 45.7329 28.6506 47.6152 27.9012C49.4975 27.1517 51.6277 27.0292 53.606 27.5564C55.5843 28.0837 57.2747 29.2245 58.3599 30.7649C59.4452 32.3052 59.8507 34.1392 59.5004 35.9225L59.2842 37.1491L60.6876 37.3355C62.4553 37.5725 64.0555 38.3851 65.1676 39.6106C66.2797 40.836 66.8218 42.3838 66.6851 43.944C66.5485 45.5043 65.7433 46.9618 64.4307 48.0246C63.1182 49.0875 61.3952 49.6772 59.6069 49.6758L59.613 49.6772ZM63.871 2.48426H83.742C84.1182 2.48462 84.4788 2.61553 84.7448 2.84827C85.0108 3.08101 85.1604 3.39657 85.1608 3.72572V12.42H62.4522V3.72572C62.4526 3.39657 62.6022 3.08101 62.8682 2.84827C63.1342 2.61553 63.4948 2.48462 63.871 2.48426ZM62.4522 16.1457V14.9042H85.1624V16.1457C85.162 16.4748 85.0124 16.7904 84.7464 17.0231C84.4804 17.2559 84.1197 17.3868 83.7436 17.3871H63.871C63.4948 17.3868 63.1342 17.2559 62.8682 17.0231C62.6022 16.7904 62.4526 16.4748 62.4522 16.1457ZM76.6465 22.3597H70.9681V19.8714H76.6449L76.6465 22.3597Z" fill="white"/>
</svg>
