<svg width="82" height="84" viewBox="0 0 82 84" fill="none" xmlns="http://www.w3.org/2000/svg">
<path d="M20.855 53.6064L40.4173 64.1468C40.6176 64.2548 40.8449 64.3116 41.0762 64.3116C41.3076 64.3116 41.5349 64.2548 41.7352 64.1468L61.2975 53.6064C61.4979 53.4984 61.6644 53.343 61.7801 53.1559C61.8957 52.9688 61.9566 52.7565 61.9564 52.5405V31.4596C61.9566 31.2436 61.8957 31.0313 61.7801 30.8442C61.6644 30.6571 61.4979 30.5017 61.2975 30.3937L41.7352 19.8533C41.5349 19.7453 41.3076 19.6885 41.0762 19.6885C40.8449 19.6885 40.6176 19.7453 40.4173 19.8533L20.855 30.3937C20.6546 30.5017 20.4881 30.6571 20.3724 30.8442C20.2567 31.0313 20.1959 31.2436 20.196 31.4596V52.5417C20.1961 52.7575 20.2571 52.9695 20.3727 53.1564C20.4884 53.3433 20.6547 53.4985 20.855 53.6064ZM22.8332 33.5903L39.7635 42.7062V60.9465L22.8332 51.8306V33.5903ZM41.0775 40.5792L24.1473 31.4633L31.2919 27.6139L48.2221 36.7298L41.0775 40.5792ZM42.3955 60.9502V42.7111L59.3257 33.5952V51.8355L42.3955 60.9502ZM41.0775 22.3377L58.0078 31.4535L50.8632 35.3029L33.933 26.187L41.0775 22.3377Z" fill="white"/>
<path d="M56.0256 42.9504C55.8252 42.8425 55.5979 42.7856 55.3666 42.7856C55.1352 42.7856 54.9079 42.8425 54.7076 42.9504L45.6929 47.8123C45.4924 47.9203 45.326 48.0757 45.2103 48.2628C45.0946 48.4499 45.0338 48.6622 45.0339 48.8782V54.5616C45.0337 54.7778 45.0944 54.9902 45.2101 55.1775C45.3258 55.3647 45.4923 55.5202 45.6929 55.6283C45.8935 55.7364 46.121 55.7933 46.3526 55.7931C46.5842 55.793 46.8117 55.7359 47.0121 55.6276L56.0268 50.7658C56.2273 50.6578 56.3938 50.5024 56.5095 50.3153C56.6251 50.1282 56.686 49.9159 56.6858 49.6998V44.0152C56.6855 43.7992 56.6243 43.5872 56.5084 43.4003C56.3925 43.2134 56.226 43.0583 56.0256 42.9504ZM54.0473 48.9888L47.6659 52.4261V49.5844L54.0473 46.1471V48.9888Z" fill="white"/>
<path d="M76.0122 50.9128V33.087C77.1606 32.5755 78.1833 31.8478 79.0159 30.9497C79.8484 30.0515 80.4729 29.0023 80.8501 27.8681C81.2272 26.7338 81.3489 25.539 81.2074 24.3587C81.0659 23.1785 80.6643 22.0383 80.0279 21.0099C79.3915 19.9814 78.534 19.087 77.5093 18.3828C76.4847 17.6786 75.315 17.1798 74.0738 16.9179C72.8326 16.6559 71.5468 16.6365 70.2972 16.8607C69.0476 17.0849 67.8612 17.548 66.8125 18.2207L50.273 9.30661C50.2925 9.0781 50.3055 8.84717 50.3055 8.6138C50.3055 7.48268 50.0668 6.36264 49.603 5.31763C49.1392 4.27261 48.4594 3.32309 47.6025 2.52327C46.7455 1.72345 45.7281 1.089 44.6084 0.656138C43.4887 0.223278 42.2886 0.000488281 41.0766 0.000488281C39.8647 0.000488281 38.6646 0.223278 37.5449 0.656138C36.4251 1.089 35.4078 1.72345 34.5508 2.52327C33.6938 3.32309 33.014 4.27261 32.5502 5.31763C32.0864 6.36264 31.8477 7.48268 31.8477 8.6138C31.8477 8.84717 31.8607 9.0781 31.8802 9.30661L15.3407 18.222C14.292 17.5469 13.105 17.0819 11.8542 16.8562C10.6035 16.6304 9.31626 16.6489 8.07356 16.9104C6.83086 17.1719 5.65965 17.6707 4.63372 18.3755C3.60778 19.0803 2.74935 19.9757 2.11251 21.0054C1.47567 22.0351 1.07423 23.1767 0.933455 24.3584C0.792685 25.54 0.915644 26.736 1.29459 27.8711C1.67353 29.0062 2.30025 30.0558 3.13525 30.9537C3.97026 31.8516 4.99546 32.5783 6.14626 33.0882V50.9128C4.99546 51.4227 3.97026 52.1494 3.13525 53.0473C2.30025 53.9452 1.67353 54.9948 1.29459 56.1298C0.915644 57.2649 0.792685 58.461 0.933455 59.6426C1.07423 60.8242 1.47567 61.9659 2.11251 62.9956C2.74935 64.0252 3.60778 64.9207 4.63372 65.6255C5.65965 66.3303 6.83086 66.8291 8.07356 67.0906C9.31626 67.3521 10.6035 67.3705 11.8542 67.1448C13.105 66.9191 14.292 66.454 15.3407 65.779L31.8802 74.6944C31.8607 74.9229 31.8477 75.1538 31.8477 75.3872C31.8477 77.6716 32.82 79.8624 34.5508 81.4777C36.2815 83.093 38.6289 84.0005 41.0766 84.0005C43.5243 84.0005 45.8717 83.093 47.6025 81.4777C49.3332 79.8624 50.3055 77.6716 50.3055 75.3872C50.3055 75.1538 50.2925 74.9229 50.273 74.6944L66.8125 65.779C67.8612 66.454 69.0483 66.9191 70.299 67.1448C71.5497 67.3705 72.837 67.3521 74.0797 67.0906C75.3224 66.8291 76.4936 66.3303 77.5195 65.6255C78.5454 64.9207 79.4039 64.0252 80.0407 62.9956C80.6776 61.9659 81.079 60.8242 81.2198 59.6426C81.3605 58.461 81.2376 57.2649 80.8586 56.1298C80.4797 54.9948 79.853 53.9452 79.018 53.0473C78.183 52.1494 77.1578 51.4227 76.007 50.9128H76.0122ZM73.375 50.1689C72.5005 50.0499 71.6122 50.0499 70.7378 50.1689V33.8308C71.6122 33.9499 72.5005 33.9499 73.375 33.8308V50.1689ZM78.6481 25.3068C78.6481 26.5237 78.2615 27.7133 77.5371 28.7251C76.8127 29.7369 75.7831 30.5254 74.5785 30.9911C73.3739 31.4568 72.0484 31.5786 70.7696 31.3412C69.4908 31.1038 68.3162 30.5179 67.3942 29.6574C66.4722 28.7969 65.8444 27.7007 65.59 26.5072C65.3356 25.3137 65.4662 24.0766 65.9651 22.9523C66.4641 21.8281 67.3091 20.8672 68.3932 20.1911C69.4773 19.5151 70.7519 19.1542 72.0557 19.1542C73.8038 19.1555 75.4799 19.8041 76.7162 20.9576C77.9524 22.1112 78.6477 23.6753 78.6494 25.3068H78.6481ZM64.8122 19.9807C64.2646 20.6278 63.8195 21.345 63.4903 22.1102L48.3195 13.9375C48.867 13.2904 49.3122 12.5732 49.6414 11.808L64.8122 19.9807ZM41.0773 2.46117C42.3811 2.46117 43.6557 2.82202 44.7398 3.49808C45.8239 4.17414 46.6689 5.13505 47.1678 6.25929C47.6668 7.38354 47.7973 8.62063 47.543 9.81412C47.2886 11.0076 46.6607 12.1039 45.7388 12.9644C44.8168 13.8248 43.6422 14.4108 42.3634 14.6482C41.0846 14.8856 39.7591 14.7638 38.5545 14.2981C37.3499 13.8324 36.3203 13.0438 35.5959 12.032C34.8715 11.0202 34.4849 9.83068 34.4849 8.6138C34.4866 6.98252 35.1817 5.41851 36.4177 4.26501C37.6536 3.11152 39.3294 2.46278 41.0773 2.46117ZM33.8324 13.9387L18.6642 22.1114C18.3352 21.3458 17.8901 20.6282 17.3424 19.9807L32.5093 11.8092C32.8383 12.5749 33.2835 13.2924 33.8311 13.9399L33.8324 13.9387ZM3.50515 25.3068C3.50515 24.09 3.89178 22.9004 4.61616 21.8886C5.34054 20.8768 6.37013 20.0882 7.57473 19.6226C8.77933 19.1569 10.1048 19.035 11.3836 19.2724C12.6624 19.5098 13.8371 20.0958 14.759 20.9563C15.681 21.8167 16.3089 22.913 16.5632 24.1065C16.8176 25.3 16.687 26.5371 16.1881 27.6614C15.6891 28.7856 14.8442 29.7465 13.76 30.4226C12.6759 31.0986 11.4014 31.4595 10.0975 31.4595C8.34965 31.4579 6.67385 30.8091 5.43791 29.6556C4.20197 28.5021 3.50687 26.9381 3.50515 25.3068ZM8.77827 33.8308C9.65271 33.9499 10.541 33.9499 11.4155 33.8308V39.5434C11.4155 39.8698 11.5544 40.1829 11.8017 40.4137C12.049 40.6444 12.3844 40.7741 12.7341 40.7741C13.0838 40.7741 13.4192 40.6444 13.6665 40.4137C13.9138 40.1829 14.0527 39.8698 14.0527 39.5434V33.087C15.6287 32.387 16.9602 31.285 17.8933 29.9085C18.8265 28.5319 19.3231 26.937 19.3258 25.3081C19.3258 25.0747 19.3128 24.845 19.2932 24.6165L35.8328 15.7011C37.3718 16.6959 39.1993 17.2288 41.0714 17.2288C42.9435 17.2288 44.771 16.6959 46.31 15.7011L62.8496 24.6165C62.83 24.845 62.817 25.0759 62.817 25.3093C62.8197 26.9382 63.3163 28.5331 64.2495 29.9097C65.1826 31.2862 66.5141 32.3882 68.0901 33.0882V50.9128C66.5141 51.6128 65.1826 52.7147 64.2495 54.0913C63.3163 55.4679 62.8197 57.0628 62.817 58.6917C62.817 58.9251 62.83 59.156 62.8496 59.3845L46.31 68.2999C44.7708 67.305 42.943 66.772 41.0708 66.772C39.1985 66.772 37.3707 67.305 35.8315 68.2999L19.2919 59.3845C19.3115 59.156 19.3245 58.9251 19.3245 58.6917C19.3218 57.0628 18.8252 55.4679 17.892 54.0913C16.9589 52.7147 15.6274 51.6128 14.0514 50.9128V44.4612C14.0514 44.1348 13.9125 43.8218 13.6652 43.591C13.4179 43.3602 13.0825 43.2305 12.7328 43.2305C12.3831 43.2305 12.0477 43.3602 11.8004 43.591C11.5531 43.8218 11.4142 44.1348 11.4142 44.4612V50.1738C10.5397 50.0548 9.65141 50.0548 8.77697 50.1738L8.77827 33.8308ZM3.50515 58.6929C3.50515 57.476 3.89178 56.2865 4.61616 55.2747C5.34054 54.2629 6.37013 53.4743 7.57473 53.0086C8.77933 52.543 10.1048 52.4211 11.3836 52.6585C12.6624 52.8959 13.8371 53.4819 14.759 54.3424C15.681 55.2028 16.3089 56.2991 16.5632 57.4926C16.8176 58.6861 16.687 59.9232 16.1881 61.0474C15.6891 62.1717 14.8442 63.1326 13.76 63.8086C12.6759 64.4847 11.4014 64.8456 10.0975 64.8456C8.34965 64.8439 6.67385 64.1952 5.43791 63.0417C4.20197 61.8882 3.50687 60.3242 3.50515 58.6929ZM17.3424 64.0178C17.8899 63.3707 18.3351 62.6536 18.6642 61.8883L33.8311 70.0611C33.2836 70.7082 32.8384 71.4253 32.5093 72.1905L17.3424 64.0178ZM41.0773 81.5386C39.7734 81.5388 38.4987 81.1782 37.4144 80.5023C36.3301 79.8264 35.4849 78.8655 34.9858 77.7413C34.4866 76.6171 34.3559 75.38 34.6101 74.1864C34.8643 72.9928 35.4921 71.8964 36.414 71.0358C37.3359 70.1752 38.5105 69.5891 39.7894 69.3516C41.0682 69.1141 42.3938 69.2359 43.5985 69.7016C44.8031 70.1672 45.8328 70.9558 46.5572 71.9676C47.2817 72.9794 47.6683 74.169 47.6683 75.386C47.6666 77.017 46.9717 78.5809 45.736 79.7343C44.5004 80.8878 42.8249 81.5367 41.0773 81.5386ZM48.3195 70.0611L63.4864 61.8883C63.8155 62.6536 64.2607 63.3707 64.8083 64.0178L49.644 72.1905C49.314 71.4252 48.8679 70.708 48.3195 70.0611ZM72.0544 64.8456C70.7506 64.8456 69.476 64.4847 68.3919 63.8086C67.3078 63.1326 66.4628 62.1717 65.9638 61.0474C65.4649 59.9232 65.3343 58.6861 65.5887 57.4926C65.8431 56.2991 66.4709 55.2028 67.3929 54.3424C68.3148 53.4819 69.4895 52.8959 70.7683 52.6585C72.0471 52.4211 73.3726 52.543 74.5772 53.0086C75.7818 53.4743 76.8114 54.2629 77.5358 55.2747C78.2601 56.2865 78.6468 57.476 78.6468 58.6929C78.6451 60.3238 77.9503 61.8874 76.7149 63.0409C75.4796 64.1943 73.8044 64.8433 72.057 64.8456H72.0544Z" fill="white"/>
</svg>
