<svg width="74" height="65" viewBox="0 0 74 65" fill="none" xmlns="http://www.w3.org/2000/svg">
<g clip-path="url(#clip0_133_682)">
<path d="M9.54736 58.7095C8.83929 58.7095 8.14712 58.8939 7.55838 59.2394C6.96964 59.585 6.51077 60.0761 6.2398 60.6507C5.96884 61.2253 5.89794 61.8576 6.03608 62.4676C6.17421 63.0776 6.51518 63.638 7.01587 64.0777C7.51655 64.5175 8.15446 64.817 8.84892 64.9384C9.54339 65.0597 10.2632 64.9974 10.9174 64.7594C11.5716 64.5214 12.1307 64.1183 12.5241 63.6012C12.9175 63.0841 13.1274 62.4761 13.1274 61.8541C13.1263 61.0204 12.7488 60.2211 12.0776 59.6316C11.4065 59.0421 10.4965 58.7105 9.54736 58.7095ZM9.54736 62.9032C9.31143 62.9032 9.0808 62.8417 8.88463 62.7266C8.68846 62.6115 8.53556 62.4478 8.44528 62.2564C8.35499 62.0649 8.33137 61.8542 8.3774 61.651C8.42342 61.4477 8.53704 61.261 8.70386 61.1145C8.87069 60.9679 9.08324 60.8681 9.31464 60.8277C9.54604 60.7873 9.78589 60.808 10.0039 60.8873C10.2218 60.9666 10.4081 61.1009 10.5392 61.2732C10.6703 61.4456 10.7402 61.6481 10.7402 61.8554C10.7399 62.1332 10.6141 62.3995 10.3904 62.5959C10.1668 62.7924 9.86362 62.9029 9.54736 62.9032Z" fill="white"/>
<path d="M3.64107 56.6645L5.32839 58.1466C6.44743 57.1639 7.96502 56.6118 9.54741 56.6118C11.1298 56.6118 12.6474 57.1639 13.7664 58.1466L15.4537 56.6645C13.8865 55.2895 11.7619 54.5171 9.5467 54.5171C7.33152 54.5171 5.20693 55.2895 3.63965 56.6645H3.64107Z" fill="white"/>
<path d="M0.264893 53.6995L1.95222 55.1816C3.96859 53.4146 6.70051 52.4223 9.54872 52.4223C12.3969 52.4223 15.1288 53.4146 17.1452 55.1816L18.8325 53.6995C16.3684 51.5399 13.0296 50.3271 9.54872 50.3271C6.06783 50.3271 2.72907 51.5399 0.264893 53.6995Z" fill="white"/>
<path d="M69.2257 58.7095H66.8385V54.5158H64.4513V58.7095H62.0642V56.6127H59.677V58.7095H57.2898V52.4189H54.9026V60.8064H69.2257V58.7095Z" fill="white"/>
<path d="M70.4186 25.1609H60.8698C59.9207 25.1619 59.0107 25.4935 58.3396 26.083C57.6684 26.6726 57.2909 27.4718 57.2897 28.3056V31.4502H52.4544C52.2048 28.5696 50.9137 25.8345 48.7695 23.6439L60.1714 13.6288H69.2257C70.4003 13.6359 71.5367 13.2624 72.4175 12.5798C73.2983 11.8971 73.8617 10.9532 73.9998 9.92855C74.138 8.90392 73.8413 7.87051 73.1665 7.02597C72.4917 6.18144 71.4861 5.58506 70.3421 5.35092C70.0874 3.86073 69.2324 2.50031 67.9324 1.51704C66.6325 0.533763 64.9739 -0.00704686 63.2584 -0.00704686C61.5429 -0.00704686 59.8844 0.533763 58.5844 1.51704C57.2844 2.50031 56.4294 3.86073 56.1748 5.35092C55.0762 5.58025 54.1062 6.14515 53.438 6.94473C52.7698 7.74431 52.447 8.72649 52.5272 9.71584C52.6074 10.7052 53.0854 11.6373 53.8758 12.3456C54.6662 13.054 55.7176 13.4925 56.8421 13.5828L47.0822 22.1556C44.5877 20.2726 41.4734 19.139 38.1937 18.9201V14.6766H41.7737C42.7229 14.6756 43.6328 14.344 44.304 13.7545C44.9751 13.165 45.3527 12.3657 45.3538 11.532V3.14455C45.3527 2.31084 44.9751 1.51156 44.304 0.922033C43.6328 0.332509 42.7229 0.000880226 41.7737 -0.00010778H32.225C31.2758 0.000880226 30.3659 0.332509 29.6947 0.922033C29.0236 1.51156 28.646 2.31084 28.6449 3.14455V11.532C28.646 12.3657 29.0236 13.165 29.6947 13.7545C30.3659 14.344 31.2758 14.6756 32.225 14.6766H35.8051V18.9238C32.5255 19.1435 29.4116 20.278 26.9179 22.1618L21.1717 17.1145C23.1159 15.0279 24.0726 12.3647 23.8441 9.67587C23.6155 6.98702 22.2191 4.4782 19.9437 2.66837C17.6682 0.85854 14.6879 -0.113832 11.6192 -0.0476077C8.55041 0.0186164 5.62804 1.11837 3.45654 3.02417C1.28504 4.92996 0.0305636 7.49599 -0.0474055 10.1915C-0.125375 12.8869 0.979132 15.5056 3.03765 17.5058C5.09616 19.506 7.95118 20.7347 11.0121 20.9377C14.0731 21.1407 17.1058 20.3026 19.4829 18.5966L25.2292 23.6439C23.0854 25.8351 21.7948 28.5706 21.5457 31.4515H16.709V28.3056C16.7078 27.4718 16.3303 26.6726 15.6591 26.083C14.988 25.4935 14.078 25.1619 13.1289 25.1609H3.58014C2.63099 25.1619 1.72104 25.4935 1.04989 26.083C0.378735 26.6726 0.00118877 27.4718 6.39632e-05 28.3056V36.693C0.00118877 37.5267 0.378735 38.326 1.04989 38.9155C1.72104 39.505 2.63099 39.8367 3.58014 39.8376H13.1289C14.078 39.8367 14.988 39.505 15.6591 38.9155C16.3303 38.326 16.7078 37.5267 16.709 36.693V33.5483H21.5443C21.7932 36.4292 23.0838 39.1648 25.2278 41.3558L17.0589 48.5324L18.7462 50.0145L26.9179 42.8379C29.4125 44.721 32.5268 45.8546 35.8065 46.0734V50.3207H32.225C31.2758 50.3217 30.3659 50.6533 29.6947 51.2428C29.0236 51.8323 28.646 52.6316 28.6449 53.4653V61.8527C28.646 62.6865 29.0236 63.4857 29.6947 64.0753C30.3659 64.6648 31.2758 64.9964 32.225 64.9974H41.7737C42.7229 64.9964 43.6328 64.6648 44.304 64.0753C44.9751 63.4857 45.3527 62.6865 45.3538 61.8527V53.4653C45.3527 52.6316 44.9751 51.8323 44.304 51.2428C43.6328 50.6533 42.7229 50.3217 41.7737 50.3207H38.1937V46.0747C41.4734 45.856 44.5878 44.7224 47.0822 42.8392L53.2606 48.2661C52.3966 48.3604 51.6015 48.7286 51.0247 49.3014C50.4479 49.8743 50.1291 50.6124 50.1282 51.3772V61.8615C50.1293 62.6952 50.5069 63.4944 51.178 64.084C51.8492 64.6735 52.7591 65.0051 53.7083 65.0061H70.4186C71.3677 65.0051 72.2777 64.6735 72.9488 64.084C73.62 63.4944 73.9975 62.6952 73.9986 61.8615V51.371C73.9975 50.5372 73.62 49.738 72.9488 49.1484C72.2777 48.5589 71.3677 48.2273 70.4186 48.2263H56.5913L48.7695 41.3558C50.9133 39.1647 52.2039 36.4291 52.453 33.5483H57.2883V36.693C57.2895 37.5267 57.667 38.326 58.3381 38.9155C59.0093 39.505 59.9193 39.8367 60.8684 39.8376H70.4172C71.3663 39.8367 72.2763 39.505 72.9474 38.9155C73.6186 38.326 73.9961 37.5267 73.9972 36.693V28.3056C73.9961 27.4718 73.6186 26.6726 72.9474 26.083C72.2763 25.4935 71.3663 25.1619 70.4172 25.1609H70.4186ZM42.968 8.38731H31.0264V6.29046H42.9624L42.968 8.38731ZM32.225 2.09675H41.7737C42.09 2.09708 42.3932 2.20758 42.6168 2.40401C42.8404 2.60044 42.9662 2.86676 42.9666 3.14455V4.1936H31.0264V3.14455C31.0266 3.00658 31.0578 2.86999 31.1181 2.74262C31.1785 2.61524 31.2669 2.49957 31.3782 2.40224C31.4896 2.30491 31.6217 2.22783 31.767 2.17541C31.9123 2.12299 32.0679 2.09626 32.225 2.09675ZM31.0264 11.532V10.4842H42.9624V11.532C42.962 11.8098 42.8362 12.0761 42.6126 12.2725C42.3889 12.4689 42.0857 12.5794 41.7695 12.5798H32.2207C31.9042 12.5798 31.6007 12.4694 31.3767 12.273C31.1528 12.0765 31.0268 11.81 31.0264 11.532ZM3.58014 27.2528H13.1289C13.4451 27.2531 13.7483 27.3636 13.972 27.56C14.1956 27.7565 14.3214 28.0228 14.3218 28.3006V29.3484H2.38725V28.3006C2.38763 28.0228 2.51343 27.7565 2.73705 27.56C2.96068 27.3636 3.26388 27.2531 3.58014 27.2528ZM14.3218 31.4465V33.5433H2.38725V31.4515L14.3218 31.4465ZM13.1289 37.737H3.58014C3.26388 37.7367 2.96068 37.6262 2.73705 37.4298C2.51343 37.2334 2.38763 36.967 2.38725 36.6892V35.6414H14.3232V36.6892C14.3238 36.8273 14.2933 36.9641 14.2335 37.0918C14.1737 37.2196 14.0859 37.3356 13.9749 37.4334C13.8639 37.5313 13.7321 37.6089 13.5869 37.6618C13.4417 37.7148 13.2861 37.742 13.1289 37.742V37.737ZM31.0264 56.6125H42.9624V58.7093H31.0264V56.6125ZM41.7681 62.903H32.2193C31.9031 62.9027 31.5999 62.7922 31.3762 62.5958C31.1526 62.3993 31.0268 62.133 31.0264 61.8552V60.8074H42.9624V61.8552C42.962 62.1324 42.8368 62.3981 42.6141 62.5945C42.3914 62.7908 42.0893 62.9017 41.7737 62.903H41.7681ZM42.9609 53.4678V54.5156H31.0264V53.4678C31.0268 53.19 31.1526 52.9237 31.3762 52.7273C31.5999 52.5308 31.9031 52.4203 32.2193 52.42H41.7681C41.9253 52.4194 42.0811 52.446 42.2265 52.4983C42.372 52.5507 42.5042 52.6277 42.6157 52.7251C42.7272 52.8224 42.8157 52.9381 42.8762 53.0656C42.9366 53.1931 42.9678 53.3297 42.968 53.4678H42.9609ZM36.9937 44.0326C35.7101 44.0326 34.3444 42.4323 33.4023 39.8389H40.5865C39.643 42.431 38.2772 44.0326 36.9937 44.0326ZM32.7931 37.742C32.4807 36.3595 32.2969 34.957 32.2434 33.5483H41.7355C41.6814 34.957 41.4976 36.3594 41.1858 37.742H32.7931ZM23.9258 33.5483H29.8647C29.9106 34.9548 30.0739 36.3565 30.3535 37.742H25.3213C24.5548 36.4358 24.0829 35.0118 23.9314 33.5483H23.9258ZM36.9937 20.9672C38.2772 20.9672 39.643 22.5675 40.5851 25.1609H33.4079C34.3515 22.5688 35.7172 20.9672 37.0008 20.9672H36.9937ZM41.2 27.2528C41.5123 28.6353 41.6961 30.0378 41.7496 31.4465H32.2576C32.3117 30.0378 32.4955 28.6354 32.8073 27.2528H41.2ZM29.8661 31.4465H23.9314C24.0834 29.9831 24.5553 28.5592 25.3213 27.2528H30.3535C30.0731 28.6399 29.9097 30.0432 29.8647 31.4515L29.8661 31.4465ZM44.1354 33.5433H50.0673C49.9153 35.0067 49.4434 36.4306 48.6774 37.737H43.6466C43.9265 36.3532 44.0899 34.9532 44.1354 33.5483V33.5433ZM44.1354 31.4465C44.0896 30.04 43.9262 28.6383 43.6466 27.2528H48.6789C49.4442 28.5594 49.9161 29.9832 50.0687 31.4465H44.1354ZM54.9026 9.43014C54.9059 8.87573 55.1588 8.345 55.6061 7.95379C56.0533 7.56258 56.6586 7.34264 57.2897 7.34199H58.4826V6.29046C58.4831 5.25596 58.9188 4.25811 59.7061 3.48871C60.4933 2.71931 61.5766 2.23265 62.7476 2.12227C63.9186 2.0119 65.0947 2.28559 66.0499 2.89075C67.0051 3.49591 67.672 4.38983 67.9223 5.40069C66.923 5.65076 66.0436 6.17988 65.4171 6.90801C64.7906 7.63614 64.4511 8.52367 64.4499 9.43636H66.8371C66.8371 9.02164 66.9771 8.61623 67.2394 8.27141C67.5017 7.92658 67.8745 7.65782 68.3107 7.49912C68.7469 7.34041 69.2269 7.29889 69.69 7.3798C70.1531 7.4607 70.5784 7.66041 70.9123 7.95366C71.2461 8.24691 71.4735 8.62053 71.5656 9.02728C71.6577 9.43403 71.6104 9.85564 71.4297 10.2388C71.2491 10.6219 70.9431 10.9494 70.5505 11.1798C70.158 11.4102 69.6964 11.5332 69.2243 11.5332H57.2897C56.6566 11.5326 56.0496 11.3113 55.6021 10.9179C55.1545 10.5245 54.9029 9.99125 54.9026 9.43511V9.43014ZM47.1205 25.1609H43.0941C42.7183 23.9326 42.1601 22.7531 41.4337 21.6529C43.6523 22.3546 45.616 23.566 47.1205 25.1609ZM32.5664 21.6529C31.841 22.7518 31.2828 23.9295 30.906 25.1559H26.8811C28.3854 23.5627 30.3488 22.3529 32.5664 21.6529ZM11.936 2.09675C13.6155 2.09375 15.266 2.4807 16.7204 3.21839C18.1748 3.95608 19.3814 5.0183 20.2179 6.29746C21.0545 7.57662 21.4913 9.02726 21.4842 10.5024C21.477 11.9776 21.0261 13.4249 20.1771 14.6978C19.112 13.091 17.4732 11.8378 15.5147 11.1325C16.1226 10.5273 16.5188 9.78078 16.6557 8.98264C16.7926 8.18449 16.6643 7.36861 16.2864 6.6329C15.9084 5.8972 15.2967 5.27294 14.5248 4.83504C13.7529 4.39714 12.8535 4.16422 11.9346 4.16422C11.0157 4.16422 10.1163 4.39714 9.34437 4.83504C8.57246 5.27294 7.9608 5.8972 7.58282 6.6329C7.20484 7.36861 7.0766 8.18449 7.21348 8.98264C7.35036 9.78078 7.74656 10.5273 8.35451 11.1325C6.39698 11.8381 4.75878 13.0907 3.69348 14.6965C2.84526 13.4236 2.39501 11.9764 2.38831 10.5014C2.3816 9.02644 2.81868 7.57611 3.65529 6.29724C4.4919 5.01837 5.69835 3.95636 7.15248 3.21873C8.60662 2.4811 10.2568 2.09405 11.936 2.09675ZM9.54882 8.38731C9.54882 7.97259 9.68882 7.56719 9.95113 7.22236C10.2134 6.87753 10.5863 6.60877 11.0225 6.45007C11.4587 6.29136 11.9387 6.24984 12.4017 6.33075C12.8648 6.41165 13.2901 6.61136 13.624 6.90461C13.9579 7.19786 14.1852 7.57148 14.2773 7.97823C14.3694 8.38498 14.3222 8.80659 14.1415 9.18974C13.9608 9.57289 13.6548 9.90038 13.2623 10.1308C12.8697 10.3612 12.4081 10.4842 11.936 10.4842C11.3031 10.4835 10.6964 10.2624 10.2488 9.86928C9.80131 9.47619 9.54957 8.94323 9.54882 8.38731ZM5.3213 16.5184C5.8492 15.3563 6.76167 14.36 7.94082 13.6582C9.11997 12.9563 10.5116 12.5812 11.936 12.5812C13.3604 12.5812 14.752 12.9563 15.9312 13.6582C17.1103 14.36 18.0228 15.3563 18.5507 16.5184C16.7772 18.0272 14.405 18.8709 11.936 18.8709C9.46699 18.8709 7.09481 18.0272 5.3213 16.5184ZM26.8797 39.8389H30.906C31.2823 41.0655 31.8405 42.2432 32.5664 43.3419C30.3485 42.6416 28.3848 41.432 26.8797 39.8389ZM41.4323 43.3419C42.1577 42.243 42.7159 41.0653 43.0927 39.8389H47.119C45.6141 41.4319 43.6503 42.6412 41.4323 43.3407V43.3419ZM71.6086 51.371V61.8552C71.6082 62.133 71.4824 62.3993 71.2588 62.5958C71.0352 62.7922 70.732 62.9027 70.4157 62.903H53.7097C53.3934 62.9027 53.0902 62.7922 52.8666 62.5958C52.643 62.3993 52.5172 62.133 52.5168 61.8552V51.371C52.5172 51.0932 52.643 50.8268 52.8666 50.6304C53.0902 50.434 53.3934 50.3235 53.7097 50.3232H70.4186C70.7351 50.3232 71.0386 50.4335 71.2626 50.63C71.4865 50.8264 71.6125 51.0929 71.6129 51.371H71.6086ZM60.8712 27.2528H70.42C70.7362 27.2531 71.0394 27.3636 71.2631 27.56C71.4867 27.7565 71.6125 28.0228 71.6129 28.3006V29.3484H59.6769V28.3006C59.6773 28.0226 59.8033 27.7561 60.0272 27.5596C60.2512 27.3631 60.5547 27.2528 60.8712 27.2528ZM71.6129 31.4465V33.5433H59.6769V31.4515L71.6129 31.4465ZM70.42 37.737H60.8712C60.555 37.7367 60.2518 37.6262 60.0281 37.4298C59.8045 37.2334 59.6787 36.967 59.6783 36.6892V35.6414H71.6143V36.6892C71.6148 36.8274 71.5843 36.9643 71.5245 37.0921C71.4646 37.2199 71.3766 37.3361 71.2655 37.4339C71.1544 37.5317 71.0224 37.6093 70.877 37.6622C70.7317 37.7151 70.5759 37.7422 70.4186 37.742L70.42 37.737Z" fill="white"/>
</g>
<defs>
<clipPath id="clip0_133_682">
<rect width="74" height="65" fill="white"/>
</clipPath>
</defs>
</svg>
