<svg width="80" height="69" viewBox="0 0 80 69" fill="none" xmlns="http://www.w3.org/2000/svg">
<path d="M79.9955 21.941C79.6357 4.56998 57.73 -8.23109 40.5003 6.34549C23.2825 -8.22297 1.36003 4.5607 1.00025 21.941C0.873133 28.3084 3.66141 34.4368 9.06887 39.6705L38.8669 68.3479C39.3008 68.7657 39.8881 69.0003 40.5003 69.0003C41.1124 69.0003 41.6997 68.7657 42.1336 68.3479L71.9316 39.6705C77.3391 34.4368 80.1274 28.3084 79.9955 21.941ZM40.5003 63.5993L15.076 39.1309H23.2105C23.6104 39.131 24.0035 39.0309 24.3515 38.8404C24.6996 38.6498 24.9907 38.3753 25.1965 38.0436L26.9738 35.1784L33.6069 45.2628C33.8294 45.6004 34.1413 45.8741 34.5101 46.0556C34.879 46.2371 35.2913 46.3197 35.7043 46.2948C36.1173 46.2699 36.5158 46.1385 36.8586 45.9142C37.2013 45.6898 37.4757 45.3808 37.6532 45.0191L46.812 26.3229L53.2879 37.9542C53.4863 38.3103 53.7805 38.6078 54.1394 38.8152C54.4984 39.0226 54.9086 39.1321 55.3267 39.1321H65.9317L40.5003 63.5993ZM70.4038 34.6515H56.7034L48.714 20.2977C48.5103 19.9337 48.2064 19.6312 47.836 19.4239C47.4657 19.2166 47.0432 19.1126 46.6155 19.1233C46.1878 19.134 45.7715 19.259 45.4127 19.4845C45.0538 19.71 44.7665 20.0272 44.5825 20.401L35.2631 39.4326L28.8698 29.7126C28.6579 29.3903 28.3644 29.1258 28.0172 28.9442C27.6699 28.7625 27.2804 28.6698 26.8857 28.6748C26.491 28.6798 26.1041 28.7823 25.7619 28.9727C25.4196 29.1631 25.1334 29.4349 24.9303 29.7625L21.8997 34.6492H10.5943C7.40581 31.1691 5.64213 26.6811 5.63539 22.0303C5.92441 8.06182 24.3246 -3.06819 38.8633 10.9955C39.2977 11.4155 39.8867 11.6514 40.5009 11.6514C41.115 11.6514 41.704 11.4155 42.1384 10.9955C60.6994 -6.96154 86.2196 16.2524 70.4038 34.6515Z" fill="white"/>
</svg>
