<svg width="73" height="61" viewBox="0 0 73 61" fill="none" xmlns="http://www.w3.org/2000/svg">
<path d="M16 46.7662H18.9996V44.3265H16V46.7662ZM29.9998 55.5904V48.8403H27.0003V55.5904C26.2821 55.8674 25.7011 56.3349 25.353 56.9161C25.0049 57.4973 24.9103 58.1575 25.0849 58.7882C25.2594 59.4189 25.6926 59.9826 26.3133 60.3864C26.934 60.7902 27.7052 61.0102 28.5001 61.0102C29.2949 61.0102 30.0661 60.7902 30.6868 60.3864C31.3075 59.9826 31.7407 59.4189 31.9153 58.7882C32.0898 58.1575 31.9952 57.4973 31.6471 56.9161C31.299 56.3349 30.7181 55.8674 29.9998 55.5904ZM17.5005 23.1792C16.4403 23.1782 15.4139 23.4824 14.6031 24.0379C13.7923 24.5934 13.2493 25.3644 13.0704 26.2143C12.8915 27.0642 13.0882 27.9382 13.6257 28.6814C14.1631 29.4246 15.0066 29.9892 16.0068 30.2751V42.2933H19.0064V30.2751C20.0066 29.9892 20.8501 29.4246 21.3876 28.6814C21.925 27.9382 22.1217 27.0642 21.9428 26.2143C21.7639 25.3644 21.2209 24.5934 20.4101 24.0379C19.5993 23.4824 18.5729 23.1782 17.5127 23.1792H17.5005ZM17.5005 28.8725C17.0062 28.8725 16.523 28.7533 16.1119 28.53C15.7009 28.3067 15.3805 27.9893 15.1912 27.6179C15.0019 27.2465 14.9522 26.8378 15.0485 26.4434C15.1447 26.0491 15.3825 25.6868 15.7319 25.4023C16.0812 25.1179 16.5264 24.9241 17.0111 24.8454C17.4959 24.7667 17.9984 24.8066 18.4553 24.9602C18.9121 25.1137 19.3027 25.374 19.5777 25.7081C19.8528 26.0421 19.9998 26.435 20.0004 26.8371C20.0005 27.1042 19.936 27.3688 19.8105 27.6156C19.685 27.8625 19.5009 28.0869 19.2687 28.2759C19.0366 28.4649 18.761 28.6148 18.4576 28.7172C18.1542 28.8196 17.829 28.8723 17.5005 28.8725ZM29.9998 44.3254H27.0003V46.7651H29.9998V44.3254ZM16 51.2446H9.14949C8.80895 50.6604 8.23412 50.1879 7.51955 49.9048C6.80498 49.6217 5.99322 49.5448 5.21776 49.6867C4.4423 49.8287 3.74933 50.181 3.25281 50.6858C2.75628 51.1907 2.48578 51.8179 2.48578 52.4644C2.48578 53.1109 2.75628 53.7381 3.25281 54.2429C3.74933 54.7478 4.4423 55.1001 5.21776 55.2421C5.99322 55.384 6.80498 55.3071 7.51955 55.024C8.23412 54.7409 8.80895 54.2684 9.14949 53.6842H18.9996V48.7994H16V51.2446ZM57.0001 46.7717H59.9996V44.3265H57.0001V46.7717ZM43.9956 42.2933V34.3471C44.9965 34.0593 45.84 33.493 46.3772 32.7483C46.9144 32.0036 47.1105 31.1284 46.9311 30.2775C46.7516 29.4265 46.208 28.6545 45.3964 28.098C44.5847 27.5415 43.5574 27.2363 42.4958 27.2363C41.4342 27.2363 40.4069 27.5415 39.5952 28.098C38.7836 28.6545 38.24 29.4265 38.0605 30.2775C37.8811 31.1284 38.0772 32.0036 38.6144 32.7483C39.1516 33.493 39.9951 34.0593 40.996 34.3471V42.2988L43.9956 42.2933ZM39.9953 30.9068C39.9953 30.5049 40.1417 30.112 40.4161 29.7778C40.6905 29.4436 41.0805 29.183 41.5369 29.0289C41.9933 28.8748 42.4956 28.8343 42.9803 28.9123C43.4651 28.9903 43.9105 29.1834 44.2604 29.4672C44.6103 29.751 44.8489 30.1127 44.9461 30.5068C45.0433 30.9008 44.9948 31.3095 44.8066 31.6811C44.6185 32.0527 44.2991 32.3706 43.8889 32.5947C43.4787 32.8188 42.996 32.9389 42.5019 32.94C42.1734 32.9402 41.8482 32.8877 41.5446 32.7856C41.2411 32.6835 40.9653 32.5338 40.7329 32.345C40.5005 32.1562 40.3161 31.932 40.1902 31.6852C40.0644 31.4385 39.9995 31.174 39.9993 30.9068H39.9953ZM68.9997 49.6134C68.3392 49.6143 67.6925 49.7677 67.1349 50.0557C66.5773 50.3437 66.1315 50.7544 65.8494 51.2402H59.9996V48.7917L57.0001 48.7994V53.6743H65.8494C66.1186 54.1334 66.5343 54.5253 67.0532 54.8092C67.5721 55.0932 68.1751 55.2587 68.7994 55.2885C69.4237 55.3183 70.0464 55.2113 70.6026 54.9787C71.1587 54.7461 71.628 54.3964 71.9614 53.966C72.2947 53.5357 72.4801 53.0405 72.498 52.5321C72.5159 52.0236 72.3658 51.5206 72.0633 51.0754C71.7608 50.6303 71.3169 50.2593 70.7781 50.0011C70.2392 49.743 69.6251 49.6072 68.9997 49.6078V49.6134ZM50.9996 55.3066C50.339 55.3076 49.6924 55.461 49.1348 55.7489C48.5771 56.0369 48.1314 56.4476 47.8493 56.9334H43.9956V48.7994H41.0014V59.3697H47.8506C48.1196 59.829 48.5352 60.2211 49.054 60.5052C49.5729 60.7894 50.1759 60.955 50.8003 60.985C51.4247 61.0149 52.0475 60.908 52.6038 60.6755C53.1601 60.443 53.6295 60.0933 53.963 59.6629C54.2965 59.2325 54.4819 58.7373 54.4998 58.2288C54.5178 57.7203 54.3677 57.2172 54.0651 56.7719C53.7625 56.3267 53.3186 55.9557 52.7796 55.6975C52.2406 55.4394 51.6264 55.3036 51.0009 55.3044L50.9996 55.3066ZM43.9956 46.7662V44.3265H41.0014V46.7662H43.9956ZM56.996 42.2933H59.9956V35.2803L55.9993 32.0278V27.0248C57.0002 26.7371 57.8437 26.1708 58.3809 25.4261C58.9181 24.6814 59.1143 23.8062 58.9348 22.9552C58.7553 22.1043 58.2117 21.3323 57.4001 20.7758C56.5885 20.2193 55.5611 19.914 54.4995 19.914C53.438 19.914 52.4106 20.2193 51.599 20.7758C50.7873 21.3323 50.2438 22.1043 50.0643 22.9552C49.8848 23.8062 50.081 24.6814 50.6181 25.4261C51.1553 26.1708 51.9989 26.7371 52.9997 27.0248V33.0405L57.0001 36.2941L56.996 42.2933ZM52.0003 23.5868C52.0009 23.1847 52.1479 22.7919 52.423 22.4578C52.698 22.1237 53.0886 21.8634 53.5454 21.7099C54.0023 21.5563 54.5048 21.5164 54.9896 21.5951C55.4743 21.6738 55.9195 21.8676 56.2688 22.1521C56.6182 22.4365 56.856 22.7988 56.9522 23.1931C57.0485 23.5875 56.9988 23.9962 56.8095 24.3676C56.6202 24.739 56.2998 25.0564 55.8888 25.2797C55.4777 25.503 54.9945 25.6222 54.5002 25.6222C54.1717 25.6221 53.8465 25.5693 53.5431 25.4669C53.2397 25.3646 52.9641 25.2146 52.732 25.0256C52.4998 24.8366 52.3157 24.6122 52.1902 24.3654C52.0647 24.1185 52.0001 23.8539 52.0003 23.5868ZM32.5011 14.2335C31.4409 14.2325 30.4145 14.5367 29.6037 15.0922C28.7929 15.6477 28.2499 16.4187 28.071 17.2686C27.8921 18.1184 28.0888 18.9924 28.6262 19.7357C29.1637 20.4789 30.0072 21.0435 31.0074 21.3294V25.5195L27.0071 28.7731V42.2933H30.0066V29.7836L34.007 26.5311V21.3294C35.0072 21.0435 35.8507 20.4789 36.3881 19.7357C36.9256 18.9924 37.1223 18.1184 36.9434 17.2686C36.7645 16.4187 36.2215 15.6477 35.4107 15.0922C34.5998 14.5367 33.5735 14.2325 32.5133 14.2335H32.5011ZM32.5011 19.9268C32.0067 19.927 31.5234 19.808 31.1121 19.5848C30.7009 19.3616 30.3803 19.0443 30.1908 18.6729C30.0013 18.3015 29.9514 17.8928 30.0475 17.4984C30.1436 17.1039 30.3813 16.7415 30.7306 16.457C31.0799 16.1724 31.5251 15.9785 32.0098 15.8997C32.4946 15.8209 32.9973 15.8608 33.4542 16.0143C33.9111 16.1679 34.3018 16.4281 34.5769 16.7622C34.8519 17.0963 34.999 17.4892 34.9996 17.8913C34.9998 18.1585 34.9352 18.423 34.8097 18.6699C34.6842 18.9168 34.5001 19.1411 34.268 19.3301C34.0358 19.5191 33.7602 19.6691 33.4568 19.7715C33.1534 19.8738 32.8282 19.9266 32.4997 19.9268H32.5011ZM4.14568 32.3172C6.75037 34.1157 9.75612 35.4898 12.9991 36.3648V33.7628C10.502 33.0299 8.19054 31.9321 6.17843 30.5236C5.19115 29.848 4.3957 29.0064 3.84691 28.0567C3.29812 27.107 3.00905 26.0718 2.99962 25.0225C2.90671 23.6607 3.24672 22.3023 3.98688 21.0784C4.72703 19.8545 5.84237 18.8063 7.22536 18.0349C9.50857 16.8186 12.1762 16.1664 14.9056 16.1574C15.002 16.1574 15.059 16.1574 15.0739 16.1574C15.3132 16.1683 15.5522 16.1324 15.771 16.0529C15.9898 15.9733 16.182 15.8523 16.3315 15.7C16.481 15.5476 16.5836 15.3684 16.6306 15.1773C16.6775 14.9862 16.6676 14.7887 16.6016 14.6013C16.2791 13.7181 16.1109 12.8024 16.1019 11.8811C16.1284 10.4758 16.603 9.10011 17.4791 7.88866C18.3552 6.6772 19.603 5.67142 21.1003 4.9697C24.4866 3.27401 28.3943 2.39329 32.3707 2.42955C35.5772 2.35051 38.7429 3.03037 41.4835 4.38657C42.6567 4.98492 43.6188 5.82082 44.2755 6.81242C44.9323 7.80402 45.2611 8.91734 45.2299 10.0434C45.2221 10.3306 45.3397 10.6107 45.5618 10.8341C45.7839 11.0574 46.0961 11.2096 46.443 11.2635C46.7899 11.3173 47.1491 11.2695 47.4568 11.1284C47.7644 10.9874 48.0007 10.7622 48.1236 10.4929C48.5894 9.48844 49.4279 8.62673 50.5227 8.02715C51.6175 7.42757 52.9146 7.1198 54.2341 7.1465C55.3037 7.15313 56.3627 7.32089 57.3572 7.64127C58.6198 7.99811 59.7238 8.65176 60.5293 9.5194C61.3348 10.387 61.8054 11.4296 61.8817 12.515C61.8642 13.4428 61.5386 14.3495 60.9393 15.1391C60.8037 15.3242 60.7311 15.5352 60.7289 15.7506C60.7266 15.9661 60.7948 16.1781 60.9265 16.365C61.0582 16.5519 61.2486 16.7069 61.4783 16.8143C61.7079 16.9216 61.9685 16.9773 62.2334 16.9758C66.4673 16.9835 69.9923 20.162 69.9937 23.8308C69.9937 27.6521 65.9934 30.7699 62.9938 32.0035V34.8164C65.7782 33.6501 68.2387 32.0315 70.2232 30.0608C71.9938 28.3022 72.9713 26.1038 72.9933 23.8308C73.0247 21.7555 72.1987 19.7316 70.6476 18.0835C69.0965 16.4355 66.91 15.2586 64.4386 14.7415C64.7304 14.0239 64.8798 13.2731 64.8812 12.5173C64.8097 10.938 64.1574 9.41253 63.0085 8.13808C61.8596 6.86362 60.267 5.89881 58.4367 5.36839C57.0962 4.93704 55.6688 4.71234 54.2273 4.70574C51.7468 4.68113 49.3539 5.4502 47.5641 6.8472C46.7303 5.00217 45.1832 3.42688 43.1551 2.35776C39.9185 0.733035 36.1685 -0.0865649 32.3666 -0.000155837C27.8054 -0.0392808 23.3248 0.978943 19.4491 2.93537C17.5391 3.86106 15.9526 5.16931 14.8408 6.73534C13.729 8.30137 13.1291 10.0729 13.0982 11.8811C13.0993 12.5188 13.1661 13.1554 13.2978 13.784C10.5157 13.9969 7.84234 14.7692 5.5185 16.0315C3.74141 17.0301 2.30361 18.3779 1.33879 19.9496C0.373967 21.5214 -0.0865525 23.2661 4.80441e-05 25.0214C0.0113589 26.4076 0.387139 27.7758 1.10216 29.0342C1.81719 30.2925 2.85491 31.4119 4.14568 32.3172Z" fill="white"/>
</svg>
