<svg width="93" height="71" viewBox="0 0 93 71" fill="none" xmlns="http://www.w3.org/2000/svg">
<path d="M18.3866 41.0194C16.2906 40.255 13.9488 39.9637 11.6405 40.1804C9.33218 40.3971 7.15478 41.1126 5.36791 42.2416C3.58105 43.3706 2.26011 44.8655 1.56263 46.5479C0.865137 48.2304 0.820525 50.0294 1.43411 51.7306C2.04769 53.4317 3.29358 54.9631 5.02321 56.1423C6.75284 57.3214 8.89323 58.0985 11.1891 58.3808C13.4851 58.6631 15.8396 58.4388 17.9721 57.7347C20.1046 57.0305 21.9249 55.8761 23.2162 54.4092L34.6776 58.7596C34.23 60.2471 34.2775 61.7955 34.8157 63.2656C35.3539 64.7356 36.366 66.0811 37.7607 67.1807C39.1555 68.2803 40.8891 69.0996 42.8054 69.5646C44.7217 70.0297 46.7605 70.126 48.7381 69.8449C50.7157 69.5638 52.57 68.914 54.134 67.9541C55.698 66.9943 56.9224 65.7545 57.6971 64.3465C58.4718 62.9384 58.7724 61.4064 58.5717 59.8884C58.3711 58.3703 57.6755 56.914 56.5477 55.6505L72.653 42.8821C74.4669 43.9049 76.6215 44.5231 78.874 44.6671C81.1264 44.811 83.3871 44.475 85.4012 43.6969C87.4153 42.9188 89.1026 41.7295 90.2729 40.2631C91.4433 38.7968 92.0501 37.1117 92.025 35.3978C91.9998 33.684 91.3438 32.0095 90.1307 30.5633C88.9177 29.117 87.1959 27.9565 85.1595 27.2125C83.1231 26.4685 80.8531 26.1707 78.6055 26.3526C76.3578 26.5345 74.2218 27.1888 72.4384 28.242L56.0741 15.8339C57.3346 14.6088 58.1655 13.1617 58.4894 11.6275C58.8133 10.0932 58.6196 8.52178 57.9264 7.0596C57.2332 5.59741 56.0631 4.2921 54.5251 3.26533C52.9871 2.23856 51.1313 1.52375 49.1307 1.18753C47.13 0.851314 45.0497 0.904632 43.0836 1.34252C41.1174 1.7804 39.3295 2.58859 37.8865 3.69177C36.4434 4.79494 35.3922 6.15719 34.8308 7.65152C34.2694 9.14586 34.2161 10.7236 34.6759 12.2378L23.9197 15.2087C22.8406 13.6089 21.1675 12.2837 19.1068 11.3964C17.046 10.5091 14.6878 10.0987 12.323 10.2157C9.95826 10.3327 7.69038 10.972 5.79917 12.0548C3.90797 13.1376 2.47616 14.6165 1.68038 16.309C0.884607 18.0016 0.759675 19.8337 1.321 21.5795C1.88233 23.3252 3.10535 24.9082 4.8392 26.1331C6.57305 27.358 8.74188 28.1713 11.0781 28.4726C13.4144 28.7739 15.8158 28.55 17.9863 27.8286L23.5688 34.9523L18.3866 41.0194ZM13.1329 56.1995C11.333 56.1995 9.57353 55.7948 8.07699 55.0366C6.58045 54.2784 5.41403 53.2007 4.72525 51.9399C4.03647 50.679 3.85625 49.2916 4.20739 47.9531C4.55853 46.6145 5.42525 45.385 6.69796 44.42C7.97066 43.455 9.59219 42.7978 11.3575 42.5316C13.1228 42.2653 14.9525 42.402 16.6154 42.9242C18.2783 43.4465 19.6996 44.3309 20.6995 45.4657C21.6995 46.6004 22.2332 47.9345 22.2332 49.2992C22.231 51.1288 21.2714 52.8829 19.5653 54.1766C17.8591 55.4703 15.5457 56.1978 13.1329 56.1995ZM24.5671 52.3477C25.3936 50.587 25.4882 48.6765 24.8381 46.8738C24.1881 45.0711 22.8247 43.4628 20.9317 42.2659L25.2928 37.1573L38.4441 53.9364C37.3297 54.6853 36.4059 55.5828 35.7185 56.5844L24.5671 52.3477ZM46.5002 19.4003C49.1924 19.4012 51.8076 18.7192 53.9294 17.4627L70.2953 29.8721C69.3013 30.8409 68.5742 31.9514 68.1574 33.1375L58.6295 32.1442C58.6295 32.1145 58.6295 32.0848 58.6295 32.0551C58.6305 30.0819 57.7945 28.1608 56.2451 26.5756C54.6957 24.9903 52.5149 23.8249 50.025 23.2515C47.535 22.6781 44.8678 22.7271 42.4174 23.3913C39.967 24.0555 37.8633 25.2996 36.4169 26.9399L34.6078 26.254L41.2516 18.4793C42.888 19.083 44.6838 19.3975 46.5036 19.399L46.5002 19.4003ZM48.0164 51.6798V41.1719C50.4077 40.9404 52.6542 40.1746 54.4698 38.9721C56.2855 37.7695 57.5882 36.1845 58.2121 34.4189L67.74 35.4122C67.74 35.4419 67.74 35.4716 67.74 35.5013C67.7388 37.6139 68.7019 39.6618 70.4657 41.2972L54.541 53.9235C52.7158 52.6929 50.4415 51.9106 48.0181 51.6798H48.0164ZM46.5002 25.1548C48.3001 25.1548 50.0596 25.5595 51.5561 26.3177C53.0526 27.0759 54.2191 28.1536 54.9078 29.4144C55.5966 30.6753 55.7768 32.0627 55.4257 33.4012C55.0746 34.7397 54.2078 35.9693 52.9351 36.9343C51.6624 37.8993 50.0409 38.5565 48.2756 38.8227C46.5103 39.089 44.6805 38.9523 43.0177 38.4301C41.3548 37.9078 39.9335 37.0234 38.9336 35.8886C37.9336 34.7539 37.3999 33.4198 37.3999 32.0551C37.4021 30.2255 38.3616 28.4714 40.0678 27.1777C41.774 25.884 44.0873 25.1565 46.5002 25.1548ZM35.0711 29.0015C34.4653 30.2952 34.2502 31.6756 34.4419 33.0408C34.6335 34.406 35.2269 35.7212 36.1783 36.8892C37.1297 38.0573 38.4149 39.0485 39.939 39.7898C41.463 40.531 43.1871 41.0033 44.9841 41.1719V51.6811C43.5774 51.8147 42.2129 52.1357 40.9535 52.6292L27.1377 35.0014L32.9485 28.198L35.0711 29.0015ZM46.5053 67.6995C44.7049 67.7003 42.9446 67.2961 41.4472 66.538C39.9498 65.78 38.7826 64.7022 38.0933 63.441C37.4039 62.1799 37.2235 60.792 37.5747 59.4531C37.926 58.1141 38.7932 56.8843 40.0665 55.9191C41.3399 54.954 42.9622 54.2969 44.7282 54.0311C46.4942 53.7652 48.3245 53.9026 49.9875 54.4257C51.6505 54.9489 53.0715 55.8343 54.0707 56.97C55.0698 58.1056 55.6022 59.4405 55.6006 60.8057C55.596 62.6341 54.6355 64.3866 52.9296 65.6789C51.2237 66.9711 48.9116 67.6978 46.5002 67.6995H46.5053ZM79.8744 28.5998C81.6742 28.5998 83.4337 29.0045 84.9303 29.7627C86.4268 30.5209 87.5932 31.5985 88.282 32.8594C88.9708 34.1203 89.151 35.5077 88.7999 36.8462C88.4487 38.1847 87.582 39.4142 86.3093 40.3792C85.0366 41.3443 83.4151 42.0014 81.6498 42.2677C79.8845 42.5339 78.0547 42.3973 76.3918 41.875C74.729 41.3528 73.3077 40.4683 72.3077 39.3336C71.3078 38.1989 70.774 36.8648 70.774 35.5C70.7763 33.6705 71.7358 31.9164 73.442 30.6227C75.1481 29.329 77.4615 28.6015 79.8744 28.5998ZM46.5002 3.30053C48.3001 3.30053 50.0596 3.70523 51.5561 4.46344C53.0526 5.22165 54.2191 6.29932 54.9078 7.56018C55.5966 8.82104 55.7768 10.2084 55.4257 11.547C55.0746 12.8855 54.2078 14.115 52.9351 15.08C51.6624 16.045 50.0409 16.7022 48.2756 16.9685C46.5103 17.2347 44.6805 17.0981 43.0177 16.5758C41.3548 16.0535 39.9335 15.1691 38.9336 14.0344C37.9336 12.8996 37.3999 11.5655 37.3999 10.2008C37.4021 8.37126 38.3616 6.61714 40.0678 5.32346C41.774 4.02978 44.0873 3.30224 46.5002 3.30053ZM35.7134 14.3949C36.4506 15.4822 37.4644 16.448 38.6963 17.2367L31.8821 25.222L24.5671 22.4422C25.34 20.8118 25.4755 19.0468 24.9572 17.3594L35.7134 14.3949ZM4.02742 19.4003C4.02742 18.0355 4.56115 16.7014 5.5611 15.5667C6.56106 14.432 7.98234 13.5475 9.64521 13.0253C11.3081 12.503 13.1379 12.3664 14.9031 12.6326C16.6684 12.8989 18.29 13.556 19.5627 14.5211C20.8354 15.4861 21.7021 16.7156 22.0532 18.0541C22.4044 19.3926 22.2242 20.78 21.5354 22.0409C20.8466 23.3017 19.6802 24.3794 18.1836 25.1376C16.6871 25.8958 14.9276 26.3005 13.1278 26.3005C10.7161 26.2975 8.40442 25.5693 6.69974 24.2758C4.99506 22.9823 4.03648 21.2289 4.03423 19.4003H4.02742ZM20.591 26.6441C21.6092 26.0419 22.4952 25.3213 23.2162 24.5089L30.2194 27.1634L25.4103 32.7952L20.591 26.6441Z" fill="white"/>
</svg>
