<svg xmlns="http://www.w3.org/2000/svg" width="66.245" height="67" viewBox="0 0 66.245 67"><g transform="translate(-2 -2)"><path d="M25,15.681v7.2h4.838a12.864,12.864,0,0,0,1.1,2.657l-3.417,3.417,5.092,5.092,3.417-3.417a12.888,12.888,0,0,0,2.657,1.1v4.837h7.2V31.725a12.864,12.864,0,0,0,2.657-1.1l3.417,3.417,5.092-5.092-3.417-3.417a12.928,12.928,0,0,0,1.1-2.657h4.837v-7.2H54.725a12.848,12.848,0,0,0-1.1-2.657l3.417-3.417L51.955,4.516,48.538,7.933a12.879,12.879,0,0,0-2.656-1.094V2h-7.2V6.838a12.864,12.864,0,0,0-2.657,1.1L32.607,4.517,27.516,9.608l3.417,3.417a12.928,12.928,0,0,0-1.1,2.657H25ZM42.282,9.921A9.356,9.356,0,0,1,43,28.606V23.551a5.758,5.758,0,0,0,5.04-5.711,5.758,5.758,0,0,0-5.711,5.04h-.1a5.758,5.758,0,0,0-5.711-5.04,5.758,5.758,0,0,0,5.04,5.711v5.054a9.356,9.356,0,0,1,.72-18.685Z" transform="translate(-6.439)" fill="#3aaed5"/><rect width="6" height="16" transform="translate(15 53)" fill="#3aaed5"/><rect width="6" height="12" transform="translate(28 57)" fill="#3aaed5"/><rect width="6" height="7" transform="translate(53 62)" fill="#3aaed5"/><rect width="6" height="9" transform="translate(41 60)" fill="#3aaed5"/><path d="M71.338,69.268,70.32,70.286l2.321,2.321a152.847,152.847,0,0,1-28.3-3.533,146.882,146.882,0,0,1-17.2-5.016l-.487,1.356a148.564,148.564,0,0,0,17.366,5.065A154.307,154.307,0,0,0,72.5,74.044l-2.856,2.38.922,1.107,4.32-3.6a.721.721,0,0,0,.048-1.063Z" transform="translate(-6.904 -17.372)" fill="#3aaed5"/><path d="M9.2,50a7.2,7.2,0,1,0,7.2,7.2A7.2,7.2,0,0,0,9.2,50Zm.72,11.484v1.477H8.481v-1.44H7.04v-1.44h2.52a1.08,1.08,0,1,0,0-2.16h-.72a2.514,2.514,0,0,1-.36-5V51.44h1.44v1.44h1.44v1.44H8.841a1.08,1.08,0,0,0,0,2.16h.72a2.514,2.514,0,0,1,.36,5Z" transform="translate(0 -13.437)" fill="#3aaed5"/></g></svg>