<svg xmlns="http://www.w3.org/2000/svg" width="50.75" height="47" viewBox="0 0 50.75 47"><g transform="translate(-2 -3)"><circle cx="7.5" cy="7.5" r="7.5" transform="translate(20 19)" fill="#3aaed5" stroke="#3aaed5" stroke-linecap="round" stroke-linejoin="round" stroke-miterlimit="10" stroke-width="2"/><path d="M3,17.125V7.75A3.761,3.761,0,0,1,6.75,4h9.375" transform="translate(0 0)" fill="#3aaed5" stroke="#3aaed5" stroke-linecap="round" stroke-linejoin="round" stroke-miterlimit="10" stroke-width="2"/><path d="M16.125,34.125H6.75A3.761,3.761,0,0,1,3,30.375V21" transform="translate(0 14.875)" fill="#3aaed5" stroke="#3aaed5" stroke-linecap="round" stroke-linejoin="round" stroke-miterlimit="10" stroke-width="2"/><path d="M35.125,21v9.375a3.761,3.761,0,0,1-3.75,3.75H22" transform="translate(16.625 14.875)" fill="#3aaed5" stroke="#3aaed5" stroke-linecap="round" stroke-linejoin="round" stroke-miterlimit="10" stroke-width="2"/><path d="M22,4h9.375a3.761,3.761,0,0,1,3.75,3.75v9.375" transform="translate(16.625 0)" fill="#3aaed5" stroke="#3aaed5" stroke-linecap="round" stroke-linejoin="round" stroke-miterlimit="10" stroke-width="2"/></g></svg>