<svg xmlns="http://www.w3.org/2000/svg" width="27.616" height="24.813" viewBox="0 0 27.616 24.813"><g transform="translate(-0.459 -5.594)"><path d="M1.474,20.031,1.7,20c-.1.987-.161,1.982-.207,2.972a36.792,36.792,0,0,0-.176,4.553c.109,1.326,1.215,1.43,2.307,1.442.74.008,1.483.021,2.224.015a3.5,3.5,0,0,0,.863-.078c2.325,1.634,5.055,2.56,7.349,4.249a.872.872,0,0,0,1.3-.749c-.119-6.106-.39-12.217-.258-18.326a.7.7,0,0,0-1.039-.6c-2.347,1.458-4.721,2.861-6.928,4.52a1.23,1.23,0,0,0-1.01-.428c-1.53-.026-3.124.246-4.655.338C.1,18,.14,20.182,1.474,20.031Zm12.183-4.738c-.251,5.156.015,10.306-.009,15.464-1.956-1.256-5.986-3.721-6.019-3.743q.018-1.22.015-2.439-.007-2.282-.1-4.564a9.738,9.738,0,0,0-.081-1.177C9.463,17.55,11.573,16.437,13.657,15.293Zm-8,4.258c.076.714.013,7.159.091,7.575-.4-.078-2.744.028-2.769.026-.012-.2-.132-2.361-.177-3.237-.068-1.336-.122-2.678-.259-4.01C3.019,19.847,5.442,19.57,5.656,19.55Z" transform="translate(0 -5.406)" fill="#b5b5b5"/><path d="M52.93,35.265a1.114,1.114,0,1,0,.862,2.045c3.295-1.4,5.65-4.689,4.824-8.337a6.5,6.5,0,0,0-2.688-3.918c-.577-.393-2.4-1.593-3.12-1.045a.347.347,0,0,0-.151.372c.136.66,1.484,1.059,1.978,1.417a5.408,5.408,0,0,1,2.206,3.137C57.5,31.794,55.524,34.289,52.93,35.265Z" transform="translate(-35.841 -12.673)" fill="#b5b5b5"/><path d="M59.207,7.342a17.012,17.012,0,0,0-2.75-1.226,5.318,5.318,0,0,0-2.313-.506.334.334,0,0,0-.233.563c.894.862,2.463,1.132,3.556,1.717a10.968,10.968,0,0,1,3.976,3.422,10.827,10.827,0,0,1-1.08,13.266,13.68,13.68,0,0,1-5.385,3.6c-1.358.472-.751,2.66.595,2.159,4.446-1.655,8.6-5.61,9.347-10.445A12.237,12.237,0,0,0,59.207,7.342Z" transform="translate(-36.997)" fill="#b5b5b5"/></g></svg>