<svg xmlns="http://www.w3.org/2000/svg" width="51.083" height="51.083" viewBox="0 0 51.083 51.083"><path d="M33.029,15H21.01A6.028,6.028,0,0,0,15,21.01V33.029a6.028,6.028,0,0,0,6.01,6.01H33.029a6.028,6.028,0,0,0,6.01-6.01V21.01A6.028,6.028,0,0,0,33.029,15Zm0,18.029H21.01V21.01H33.029Zm0,9.015H21.01A6.028,6.028,0,0,0,15,48.053V60.073a6.028,6.028,0,0,0,6.01,6.01H33.029a6.028,6.028,0,0,0,6.01-6.01V48.053A6.028,6.028,0,0,0,33.029,42.044Zm0,18.029H21.01V48.053H33.029ZM60.073,15H48.053a6.028,6.028,0,0,0-6.01,6.01V33.029a6.028,6.028,0,0,0,6.01,6.01H60.073a6.028,6.028,0,0,0,6.01-6.01V21.01A6.028,6.028,0,0,0,60.073,15Zm0,18.029H48.053V21.01H60.073Zm-34.556-3h3a1.617,1.617,0,0,0,1.5-1.5v-3a1.617,1.617,0,0,0-1.5-1.5h-3a1.617,1.617,0,0,0-1.5,1.5v3A1.617,1.617,0,0,0,25.517,30.024Zm0,27.044h3a1.617,1.617,0,0,0,1.5-1.5v-3a1.617,1.617,0,0,0-1.5-1.5h-3a1.617,1.617,0,0,0-1.5,1.5v3a1.617,1.617,0,0,0,1.5,1.5ZM52.561,30.024h3a1.617,1.617,0,0,0,1.5-1.5v-3a1.617,1.617,0,0,0-1.5-1.5h-3a1.617,1.617,0,0,0-1.5,1.5v3A1.617,1.617,0,0,0,52.561,30.024ZM43.546,54.063h3a1.617,1.617,0,0,0,1.5-1.5v-3a1.617,1.617,0,0,1,1.5-1.5h3a1.617,1.617,0,0,0,1.5-1.5v-3a1.617,1.617,0,0,0-1.5-1.5H43.546a1.617,1.617,0,0,0-1.5,1.5v9.015a1.617,1.617,0,0,0,1.5,1.5ZM64.58,42.044h-3a1.617,1.617,0,0,0-1.5,1.5v9.015a1.617,1.617,0,0,0,1.5,1.5h3a1.617,1.617,0,0,0,1.5-1.5V43.546a1.617,1.617,0,0,0-1.5-1.5ZM46.551,60.073h-3a1.617,1.617,0,0,0-1.5,1.5v3a1.617,1.617,0,0,0,1.5,1.5h3a1.617,1.617,0,0,0,1.5-1.5v-3A1.617,1.617,0,0,0,46.551,60.073Zm18.029,0h-3a1.617,1.617,0,0,1-1.5-1.5v-3a1.617,1.617,0,0,0-1.5-1.5H49.556a1.617,1.617,0,0,0-1.5,1.5v3a1.617,1.617,0,0,0,1.5,1.5h3a1.617,1.617,0,0,1,1.5,1.5v3a1.617,1.617,0,0,0,1.5,1.5H64.58a1.617,1.617,0,0,0,1.5-1.5v-3A1.617,1.617,0,0,0,64.58,60.073Z" transform="translate(-15 -15)" fill="#242424"/></svg>