<svg xmlns="http://www.w3.org/2000/svg" width="55.706" height="60.373" viewBox="0 0 55.706 60.373"><g transform="translate(-53.742 -36.798)"><g transform="translate(53.742 36.798)"><path d="M108.8,39.259H65.734a4.334,4.334,0,1,0,.429,1.876,4.306,4.306,0,0,0-.041-.586h42.036v6.1H61.7l-.029,0H58.1a4.35,4.35,0,0,0-4.354,4.337v3.691a.645.645,0,0,0,.645.645H69.221a.645.645,0,0,0,.645-.645v-3.7a4.309,4.309,0,0,0-1.258-3.044H108.8a.645.645,0,0,0,.645-.645V39.9A.645.645,0,0,0,108.8,39.259Z" transform="translate(-53.742 -36.798)" fill="#3aaed5"/><path d="M243.245,145.343a.645.645,0,0,0,0-1.291H216.037a.645.645,0,1,0,0,1.291Z" transform="translate(-193.131 -129.282)" fill="#3aaed5"/><rect width="2.47" height="2.458" transform="translate(16.716 5.572)" fill="#3aaed5"/><rect width="2.47" height="2.458" transform="translate(21.666 5.572)" fill="#3aaed5"/><rect width="2.47" height="2.458" transform="translate(26.617 5.572)" fill="#3aaed5"/><rect width="2.47" height="2.458" transform="translate(31.567 5.572)" fill="#3aaed5"/><path d="M108.8,191.206H65.735a4.335,4.335,0,1,0,.429,1.876,4.317,4.317,0,0,0-.041-.585h42.035v6.095H64.575c-.012,0-.022,0-.034,0H58.1a4.35,4.35,0,0,0-4.354,4.336v3.691a.645.645,0,0,0,.645.645H69.221a.645.645,0,0,0,.645-.645v-3.7a4.308,4.308,0,0,0-1.259-3.044h40.2a.645.645,0,0,0,.645-.645v-7.385A.645.645,0,0,0,108.8,191.206Z" transform="translate(-53.742 -167.819)" fill="#3aaed5"/><path d="M243.245,297.3a.645.645,0,0,0,0-1.291H216.037a.645.645,0,0,0,0,1.291Z" transform="translate(-193.131 -260.31)" fill="#3aaed5"/><rect width="2.47" height="2.458" transform="translate(16.716 26.497)" fill="#3aaed5"/><rect width="2.47" height="2.458" transform="translate(21.666 26.497)" fill="#3aaed5"/><rect width="2.47" height="2.458" transform="translate(26.617 26.497)" fill="#3aaed5"/><rect width="2.47" height="2.458" transform="translate(31.567 26.497)" fill="#3aaed5"/><path d="M108.8,343.155H65.734a4.334,4.334,0,1,0,.429,1.876,4.308,4.308,0,0,0-.041-.586h42.036v6.1H64.575l-.029,0H58.1a4.35,4.35,0,0,0-4.354,4.337v3.691a.645.645,0,0,0,.645.645H69.221a.645.645,0,0,0,.645-.645v-3.7a4.309,4.309,0,0,0-1.258-3.044H108.8a.645.645,0,0,0,.645-.645V343.8A.645.645,0,0,0,108.8,343.155Z" transform="translate(-53.742 -298.843)" fill="#3aaed5"/><path d="M243.245,447.953H216.037a.645.645,0,1,0,0,1.291h27.208a.645.645,0,0,0,0-1.291Z" transform="translate(-193.131 -391.332)" fill="#3aaed5"/><rect width="2.47" height="2.458" transform="translate(16.716 47.422)" fill="#3aaed5"/><rect width="2.47" height="2.458" transform="translate(21.666 47.422)" fill="#3aaed5"/><rect width="2.47" height="2.458" transform="translate(26.617 47.422)" fill="#3aaed5"/><rect width="2.47" height="2.458" transform="translate(31.567 47.422)" fill="#3aaed5"/></g></g></svg>