<svg xmlns="http://www.w3.org/2000/svg" width="61.838" height="58.915" viewBox="0 0 61.838 58.915"><g transform="translate(-1.006 -0.5)"><path d="M52.622,29.034a9.657,9.657,0,0,0-8.776,4.5.665.665,0,0,1-1.139,0,9.622,9.622,0,0,0-9.489-4.427c-4.945.722-8.507,5.5-8.507,10.855a13.439,13.439,0,0,0,6.047,11.38l9.669,6.137a5.271,5.271,0,0,0,5.7,0L55.8,51.347a13.439,13.439,0,0,0,6.047-11.38C61.842,34.32,57.869,29.408,52.622,29.034Z" fill="none" stroke="#3aaed5" stroke-width="2"/><path d="M32.828,26.44c.286-.042.575-.073.863-.094A15.519,15.519,0,0,0,26.8,20.83a1.564,1.564,0,0,1-.945-1.437h0a1.6,1.6,0,0,1,.5-1.169c.1-.092.189-.183.258-.256A9.722,9.722,0,0,0,17.728,1.727a9.5,9.5,0,0,0-7.67,7.45A9.724,9.724,0,0,0,12.74,18.2a1.648,1.648,0,0,1,.514,1.171v.008a1.565,1.565,0,0,1-.946,1.452A16,16,0,0,0,3.7,29.36a20.362,20.362,0,0,0-1.7,8.385v2.078A3.392,3.392,0,0,0,5.4,43.215H22.335a16.682,16.682,0,0,1-.324-3.249C22.01,33.156,26.661,27.34,32.828,26.44ZM15.587,15.052a1.25,1.25,0,1,1,1.75-1.786,3.1,3.1,0,0,0,4.563,0,1.25,1.25,0,1,1,1.754,1.781,5.5,5.5,0,0,1-3.92,1.755,6.2,6.2,0,0,1-4.147-1.755Z" fill="none" stroke="#3aaed5" stroke-width="2"/></g></svg>