<svg xmlns="http://www.w3.org/2000/svg" width="59.108" height="59.108" viewBox="0 0 59.108 59.108"><g transform="translate(0 0)"><path d="M198.674,15.382l7.018-5.849h9.189V0H192V9.533h6.673Zm-4.767-7.755V1.907h19.067v5.72H205l-4.422,3.685V7.627Zm0,0" transform="translate(-169.12 0)" fill="#3aaed5"/><path d="M224,32h1.907v1.907H224Zm0,0" transform="translate(-197.306 -28.187)" fill="#3aaed5"/><path d="M256,32h7.627v1.907H256Zm0,0" transform="translate(-225.493 -28.187)" fill="#3aaed5"/><path d="M336,32h1.907v1.907H336Zm0,0" transform="translate(-295.959 -28.187)" fill="#3aaed5"/><path d="M48.53,162.9l-.771-7.718a6.678,6.678,0,0,0,5.628-6.583V136.207H49.574V134.89a3.43,3.43,0,0,0-1.857-3.057,5.7,5.7,0,0,0,1.857-4.206V125.72a5.72,5.72,0,1,0-11.44,0v1.907A5.725,5.725,0,0,0,41.9,133l-5.117,5.117H31.439a3.823,3.823,0,0,0-2.745-3.417l-3.908-1.115v-1.7a5.7,5.7,0,0,0,1.907-4.252V125.72a5.72,5.72,0,1,0-11.44,0v1.907a5.7,5.7,0,0,0,1.907,4.252v1.7L13.252,134.7a3.828,3.828,0,0,0-2.766,3.667v3.563H6.673v5.72H8.58V162.9H0v1.907H59.108V162.9Zm-8.489-15.254v-4.372L46.8,136.52a2.986,2.986,0,0,0,.844-1.829,1.551,1.551,0,0,1,.027.2v11.8a2.864,2.864,0,0,1-2.86,2.86H37.181v-1.907Zm-2.86,7.627h4.858L42.8,162.9h-5.62Zm6.774,0h1.9l.762,7.627h-1.9Zm5.62-8.58v-8.58h1.907V148.6a4.772,4.772,0,0,1-4.767,4.767H37.181v-1.907h7.627A4.772,4.772,0,0,0,49.574,146.694Zm-9.534-19.067V125.72a3.813,3.813,0,0,1,7.627,0v1.907a3.813,3.813,0,1,1-7.627,0ZM37.575,140.02l6.361-6.361a1.069,1.069,0,0,1,1.512,1.512l-6.755,6.755H28.6a.953.953,0,1,1,0-1.907ZM17.16,125.72a3.813,3.813,0,0,1,7.627,0v1.907a3.813,3.813,0,1,1-7.627,0Zm3.813,7.627a5.692,5.692,0,0,0,1.907-.334v1.024a2.438,2.438,0,0,1-1.907,1.216,2.438,2.438,0,0,1-1.907-1.216v-1.024A5.692,5.692,0,0,0,20.973,133.347Zm-8.58,5.018a1.915,1.915,0,0,1,1.383-1.834l3.927-1.122a4.152,4.152,0,0,0,3.27,1.751,4.15,4.15,0,0,0,3.27-1.752l3.927,1.122a1.9,1.9,0,0,1,1.342,1.583H28.6a2.864,2.864,0,0,0-2.86,2.86,2.821,2.821,0,0,0,.175.953H12.393ZM8.58,143.834H38.134v1.907H8.58Zm1.907,7.627h2.86v-1.907h-2.86v-1.907H35.274v1.907H15.253v1.907h20.02V162.9H33L31.1,159.088H14.664L12.757,162.9H10.486ZM30.871,162.9H14.889l.953-1.907H29.918Zm0,0" transform="translate(0 -105.7)" fill="#3aaed5"/></g></svg>