<svg xmlns="http://www.w3.org/2000/svg" width="47.679" height="42.084" viewBox="0 0 47.679 42.084"><g transform="translate(0 -30.041)"><g transform="translate(0 30.041)"><path d="M47.679,65.411V30.041H0v35.37H15.666v3.795H10.412v2.919H37.267V69.206H32.013V65.411ZM2.919,32.96H44.76V56.9H2.919ZM29.094,69.206H18.585V65.411H29.094ZM2.919,62.492V59.816H44.76v2.676H2.919Z" transform="translate(0 -30.041)" fill="#fff"/></g><g transform="translate(7.833 37.315)"><path d="M93,116.769a4.816,4.816,0,1,0-5.9,0,5.937,5.937,0,0,0-2.987,5.148v1.46H95.985v-1.46A5.938,5.938,0,0,0,93,116.769Zm-2.949-5.7a1.9,1.9,0,1,1-1.9,1.9A1.9,1.9,0,0,1,90.05,111.067Zm-2.639,9.39a3.016,3.016,0,0,1,5.278,0Z" transform="translate(-84.114 -108.148)" fill="#fff"/></g><g transform="translate(23.839 37.314)"><rect width="3.357" height="2.919" fill="#fff"/></g><g transform="translate(29.434 37.314)"><rect width="10.071" height="2.919" fill="#fff"/></g><g transform="translate(23.839 43.469)"><rect width="3.357" height="2.919" fill="#fff"/></g><g transform="translate(29.434 43.469)"><rect width="10.071" height="2.919" fill="#fff"/></g><g transform="translate(23.839 49.623)"><rect width="3.357" height="2.919" fill="#fff"/></g><g transform="translate(29.434 49.623)"><rect width="10.071" height="2.919" fill="#fff"/></g></g></svg>