<?xml version="1.0" ?><svg viewBox="0 0 512 512" xmlns="http://www.w3.org/2000/svg"><g id="Customer_satisfy"><path d="M400.5063,56.8772H278.8218a18.7578,18.7578,0,0,0-18.7364,18.7363v70.2383a18.7578,18.7578,0,0,0,18.7364,18.7363h5.84v16.0391a9.6122,9.6122,0,0,0,16.5347,6.68l16.6484-17.2432a18.023,18.023,0,0,1,12.8985-5.4756h69.7631a18.7573,18.7573,0,0,0,18.7359-18.7363V75.6135A18.7574,18.7574,0,0,0,400.5063,56.8772Zm6.7359,88.9746a6.7433,6.7433,0,0,1-6.7359,6.7363H330.7432a30.0846,30.0846,0,0,0-21.5313,9.14l-12.55,12.999V162.53a9.9527,9.9527,0,0,0-9.9414-9.9414h-7.8984a6.7437,6.7437,0,0,1-6.7364-6.7363V75.6135a6.7438,6.7438,0,0,1,6.7364-6.7363H400.5063a6.7433,6.7433,0,0,1,6.7359,6.7363Z"/><rect height="12" width="101.8994" x="175.8506" y="391.6807"/><rect height="12" width="159.5967" x="176.8145" y="366.8057"/><rect height="12" width="40.8701" x="295.541" y="391.6807"/><path d="M253.56,204.981a67.571,67.571,0,1,0,67.5712,67.5712A67.5709,67.5709,0,0,0,253.56,204.981Zm-31.91,55.6762a8.6339,8.6339,0,1,1,8.634,8.6341A8.634,8.634,0,0,1,221.65,260.6572Zm32.9751,47.74c-22.2217,0-29.5449-14.8614-30.313-22.72l11.9434-1.166v-.001a13.5733,13.5733,0,0,0,2.7934,6.0049c3.16,3.9033,8.4009,5.8819,15.5762,5.8819s12.417-1.9795,15.5776-5.8829a13.485,13.485,0,0,0,2.8032-6.0839l11.9346,1.248C284.1724,293.5371,276.8472,308.3975,254.6255,308.3975Zm22.21-39.1062a8.6341,8.6341,0,1,1,8.6341-8.6341A8.6339,8.6339,0,0,1,276.8359,269.2913Z"/><path d="M355.4963,87.0415a16.85,16.85,0,0,0-12.7439,5.6826,2.3883,2.3883,0,0,1-3.54-.0193,16.8686,16.8686,0,0,0-13.0112-5.6611c-8.9915.1428-16.28,7.2175-16.19,15.6858.1489,14.0837,18.4228,26.6819,26.8313,31.7373a8.32,8.32,0,0,0,8.3679.0869c8.4748-4.8606,26.761-17.0774,26.761-31.9973C371.9717,93.9878,364.5955,87.0415,355.4963,87.0415Z"/><path d="M371.5691,428.7551a10,10,0,0,1-10,10H150.4311a10,10,0,0,1-10-10V91.8171a10,10,0,0,1,10-10h97.6543V75.6135a30.7713,30.7713,0,0,1,30.7364-30.7363H380.4336a32.6447,32.6447,0,0,0-26.32-13.3022H157.8865A32.695,32.695,0,0,0,125.1914,64.27V456.8345a32.695,32.695,0,0,0,32.6951,32.6948h196.227a32.695,32.695,0,0,0,32.6951-32.6948V176.5881h-15.24Zm-92.6878,40.5623H233.1186v-12h45.7627Z"/></g></svg>