<svg xmlns="http://www.w3.org/2000/svg" width="41.92" height="65.286" viewBox="0 0 41.92 65.286"><g transform="translate(-125.191 -31.575)"><path d="M280.1,56.877H262.757a2.674,2.674,0,0,0-2.671,2.671V69.561a2.674,2.674,0,0,0,2.671,2.671h.833v2.287a1.37,1.37,0,0,0,2.357.952l2.373-2.458a2.569,2.569,0,0,1,1.839-.781H280.1a2.674,2.674,0,0,0,2.671-2.671V59.548A2.674,2.674,0,0,0,280.1,56.877Zm.96,12.684a.961.961,0,0,1-.96.96h-9.945a4.289,4.289,0,0,0-3.07,1.3L265.3,73.678V71.939a1.419,1.419,0,0,0-1.417-1.417h-1.126a.961.961,0,0,1-.96-.96V59.548a.961.961,0,0,1,.96-.96H280.1a.961.961,0,0,1,.96.96Z" transform="translate(-115.664 -21.695)" fill="#3aaed5"/><rect width="14.527" height="1.711" transform="translate(132.413 82.912)" fill="#3aaed5"/><rect width="22.752" height="1.711" transform="translate(132.55 79.366)" fill="#3aaed5"/><rect width="5.826" height="1.711" transform="translate(149.476 82.912)" fill="#3aaed5"/><path d="M195.622,204.981a9.633,9.633,0,1,0,9.633,9.633,9.633,9.633,0,0,0-9.633-9.633Zm-4.549,7.937a1.231,1.231,0,1,1,1.231,1.231,1.231,1.231,0,0,1-1.231-1.231Zm4.7,6.806c-3.168,0-4.212-2.119-4.321-3.239l1.7-.166h0a1.935,1.935,0,0,0,.4.856,3.36,3.36,0,0,0,4.441,0,1.923,1.923,0,0,0,.4-.867l1.7.178c-.11,1.12-1.154,3.239-4.322,3.239Zm3.166-5.575a1.231,1.231,0,1,1,1.231-1.231,1.231,1.231,0,0,1-1.231,1.231Z" transform="translate(-52.131 -148.685)" fill="#3aaed5"/><path d="M316.495,87.039a2.4,2.4,0,0,0-1.817.81.34.34,0,0,1-.5,0,2.4,2.4,0,0,0-1.855-.807,2.291,2.291,0,0,0-2.308,2.236c.021,2.008,2.626,3.8,3.825,4.524a1.186,1.186,0,0,0,1.193.012c1.208-.693,3.815-2.435,3.815-4.562A2.283,2.283,0,0,0,316.495,87.039Z" transform="translate(-158.471 -47.557)" fill="#3aaed5"/><path d="M160.315,88.2a1.426,1.426,0,0,1-1.426,1.426h-30.1a1.426,1.426,0,0,1-1.426-1.426V40.163a1.426,1.426,0,0,1,1.426-1.426h13.922v-.884a4.387,4.387,0,0,1,4.382-4.382h14.486a4.654,4.654,0,0,0-3.752-1.9H129.852a4.661,4.661,0,0,0-4.661,4.661V92.2a4.661,4.661,0,0,0,4.661,4.661h27.974a4.661,4.661,0,0,0,4.661-4.661V52.248h-2.173ZM147.1,93.98h-6.524V92.269H147.1Z" transform="translate(0 0)" fill="#3aaed5"/></g></svg>