<svg xmlns="http://www.w3.org/2000/svg" width="48.998" height="48.945" viewBox="0 0 48.998 48.945"><g transform="translate(0 -0.5)"><path d="M35.732,132.991a.717.717,0,1,0,1.014-1.014L35,130.236l1.741-1.741a.717.717,0,0,0-1.014-1.014l-2.248,2.248a.717.717,0,0,0,0,1.014Zm0,0" transform="translate(-30.09 -114.639)" fill="#4797ff"/><path d="M114.882,130.232l-1.741,1.741a.717.717,0,1,0,1.014,1.014l2.249-2.249a.717.717,0,0,0,0-1.014l-2.249-2.249a.717.717,0,1,0-1.014,1.014Zm0,0" transform="translate(-102.124 -114.635)" fill="#4797ff"/><path d="M76.872,133.147a.717.717,0,0,0,.93-.405l1.766-4.5a.717.717,0,1,0-1.335-.524l-1.767,4.5A.717.717,0,0,0,76.872,133.147Zm0,0" transform="translate(-69.105 -114.634)" fill="#4797ff"/><path d="M38.233,219.649h4.831a.717.717,0,0,0,0-1.434H38.233a.717.717,0,0,0,0,1.434Zm0,0" transform="translate(-33.926 -196.88)" fill="#4797ff"/><path d="M124.722,218.215h-8.493a.717.717,0,0,0,0,1.434h8.493a.717.717,0,1,0,0-1.434Zm0,0" transform="translate(-104.458 -196.88)" fill="#4797ff"/><path d="M38.233,251.255h2.058a.717.717,0,0,0,0-1.434H38.233a.717.717,0,0,0,0,1.434Zm0,0" transform="translate(-33.926 -225.461)" fill="#4797ff"/><path d="M177.565,249.82a.717.717,0,0,0,0,1.434h1.253a.717.717,0,1,0,0-1.434Zm0,0" transform="translate(-159.924 -225.46)" fill="#4797ff"/><path d="M92.9,250.538a.717.717,0,0,0-.717-.717H86.029a.717.717,0,0,0,0,1.434h6.155A.717.717,0,0,0,92.9,250.538Zm0,0" transform="translate(-77.148 -225.461)" fill="#4797ff"/><path d="M213.7,250.538a.717.717,0,0,0,.717.717h2.347a.717.717,0,1,0,0-1.434H214.42A.717.717,0,0,0,213.7,250.538Zm0,0" transform="translate(-193.252 -225.461)" fill="#4797ff"/><path d="M166.116,150.712h2.476a.717.717,0,1,0,0-1.434h-2.476a.717.717,0,1,0,0,1.434Zm0,0" transform="translate(-149.571 -134.54)" fill="#4797ff"/><path d="M220.963,150.712H236.07a.717.717,0,0,0,0-1.434H220.963a.717.717,0,1,0,0,1.434Zm0,0" transform="translate(-199.169 -134.54)" fill="#4797ff"/><path d="M297.02,182.246H290.9a.717.717,0,0,0,0,1.434h6.12a.717.717,0,0,0,0-1.434Zm0,0" transform="translate(-262.413 -164.353)" fill="#4797ff"/><path d="M247.047,182.246h-2.1a.717.717,0,0,0,0,1.434h2.1a.717.717,0,0,0,0-1.434Zm0,0" transform="translate(-220.854 -164.353)" fill="#4797ff"/><path d="M166.116,183.68h5.153a.717.717,0,0,0,0-1.434h-5.153a.717.717,0,1,0,0,1.434Zm0,0" transform="translate(-149.571 -164.353)" fill="#4797ff"/><path d="M104.794,281.16H99.964a.717.717,0,1,0,0,1.434h4.831a.717.717,0,0,0,0-1.434Zm0,0" transform="translate(-89.749 -253.801)" fill="#4797ff"/><path d="M41.944,281.16H38.233a.717.717,0,0,0,0,1.434h3.711a.717.717,0,0,0,0-1.434Zm0,0" transform="translate(-33.926 -253.801)" fill="#4797ff"/><path d="M182.317,281.16h-6.311a.717.717,0,1,0,0,1.434h6.311a.717.717,0,1,0,0-1.434Zm0,0" transform="translate(-158.515 -253.801)" fill="#4797ff"/><path d="M298.515,242.668h-3.451a.717.717,0,0,0,0,1.434h3.451a.717.717,0,0,0,0-1.434Zm0,0" transform="translate(-266.179 -218.993)" fill="#4797ff"/><path d="M393.694,244.1h4.871a.717.717,0,1,0,0-1.434h-4.871a.717.717,0,0,0,0,1.434Zm0,0" transform="translate(-355.369 -218.992)" fill="#4797ff"/><path d="M357.689,242.668h-1.116a.717.717,0,1,0,0,1.434h1.116a.717.717,0,0,0,0-1.434Zm0,0" transform="translate(-321.801 -218.993)" fill="#4797ff"/><path d="M295.065,325.763h3.451a.717.717,0,0,0,0-1.434h-3.451a.717.717,0,0,0,0,1.434Zm0,0" transform="translate(-266.179 -292.838)" fill="#4797ff"/><path d="M393.694,325.763h4.871a.717.717,0,1,0,0-1.434h-4.871a.717.717,0,1,0,0,1.434Zm0,0" transform="translate(-355.369 -292.838)" fill="#4797ff"/><path d="M356.577,325.763h1.116a.717.717,0,1,0,0-1.434h-1.116a.717.717,0,1,0,0,1.434Zm0,0" transform="translate(-321.804 -292.838)" fill="#4797ff"/><path d="M298.515,405.988h-3.451a.717.717,0,1,0,0,1.434h3.451a.717.717,0,1,0,0-1.434Zm0,0" transform="translate(-266.179 -366.683)" fill="#4797ff"/><path d="M398.565,405.988h-4.871a.717.717,0,0,0,0,1.434h4.871a.717.717,0,1,0,0-1.434Zm0,0" transform="translate(-355.369 -366.683)" fill="#4797ff"/><path d="M357.689,405.988h-1.116a.717.717,0,1,0,0,1.434h1.116a.717.717,0,0,0,0-1.434Zm0,0" transform="translate(-321.801 -366.683)" fill="#4797ff"/><path d="M45.842.5H3.156A3.16,3.16,0,0,0,0,3.656v34.7A3.16,3.16,0,0,0,3.156,41.51h2.7a.717.717,0,1,0,0-1.434h-2.7a1.724,1.724,0,0,1-1.722-1.722v-2.72H27.56v1.236h-.569a1.412,1.412,0,0,0-1.41,1.41v1.8H10.214a.717.717,0,1,0,0,1.434h6.895v2.572H14.944A2.622,2.622,0,0,0,12.325,46.7V48.25a1.2,1.2,0,0,0,1.2,1.2h21.9a1.2,1.2,0,0,0,1.2-1.2V46.7A2.622,2.622,0,0,0,34,44.081H31.834v-.907H45.091a1.412,1.412,0,0,0,1.41-1.41v-.338a3.161,3.161,0,0,0,2.443-3.073L49,3.656A3.159,3.159,0,0,0,45.842.5ZM27.015,33.926V30.489H45.067v3.437Zm1.979-4.872V27.546H43.088v1.509ZM43.088,35.36v1.509H28.994V35.36ZM18.543,41.51h7.037v.255a1.412,1.412,0,0,0,1.41,1.41H30.4v.907H18.543ZM34,45.516A1.186,1.186,0,0,1,35.184,46.7v1.31H13.759V46.7a1.187,1.187,0,0,1,1.185-1.185Zm11.068-3.775H27.015V38.3H45.067Zm2.443-3.387A1.722,1.722,0,0,1,46.5,39.919V38.279a1.412,1.412,0,0,0-1.41-1.41h-.569V35.633h2.987Zm0-4.154H46.478c.015-.081.024-3.735.024-3.735a1.412,1.412,0,0,0-1.41-1.41h-.569V27.546h.569a1.412,1.412,0,0,0,1.41-1.41V22.65a1.412,1.412,0,0,0-1.41-1.41H41.04a.717.717,0,0,0,0,1.434h4.027v3.437H27.015V22.674h9.563a.717.717,0,0,0,0-1.434H26.991a1.412,1.412,0,0,0-1.41,1.41v3.485a1.412,1.412,0,0,0,1.41,1.41h.569v1.509h-.569a1.412,1.412,0,0,0-1.41,1.41s.009,3.653.024,3.735H1.434V10.255H47.509Zm0-25.379H1.487V3.656A1.724,1.724,0,0,1,3.208,1.934H45.787a1.724,1.724,0,0,1,1.722,1.722Zm0,0" fill="#4797ff"/><path d="M35.378,29.262a2.1,2.1,0,1,0,2.1,2.1A2.107,2.107,0,0,0,35.378,29.262Zm0,2.775a.67.67,0,1,1,.67-.67A.671.671,0,0,1,35.378,32.036Zm0,0" transform="translate(-30.09 -26.009)" fill="#4797ff"/><path d="M91.362,29.262a2.1,2.1,0,1,0,2.1,2.1A2.107,2.107,0,0,0,91.362,29.262Zm0,2.775a.67.67,0,1,1,.67-.67A.671.671,0,0,1,91.362,32.036Zm0,0" transform="translate(-80.716 -26.009)" fill="#4797ff"/><path d="M147.35,29.262a2.1,2.1,0,1,0,2.1,2.1A2.107,2.107,0,0,0,147.35,29.262Zm0,2.775a.67.67,0,1,1,.67-.67A.671.671,0,0,1,147.35,32.036Zm0,0" transform="translate(-131.346 -26.009)" fill="#4797ff"/></g></svg>