<svg xmlns="http://www.w3.org/2000/svg" width="64.725" height="48.032" viewBox="0 0 64.725 48.032"><g transform="translate(1.467 -25.064)"><path d="M71.9,103.058a2.913,2.913,0,0,0-.946-1.547,3.463,3.463,0,0,0-1.75-.79L58.994,98.745l2.955,1.961-4.664,14.621-2.626-10.86L52.03,115.327l-4.662-14.621,2.953-1.961-10.212,1.976a3.463,3.463,0,0,0-1.75.79,2.909,2.909,0,0,0-.945,1.547l-3.028,13.3L40.1,118.34c1.9,1.971,7.2,3.421,13.57,3.559h1.98c6.366-.138,11.673-1.588,13.57-3.559l5.712-1.982Z" transform="translate(-23.762 -50.053)" fill="none" stroke="#fff" stroke-width="2.5"/><path d="M94.735,103.551l-2.354.843,2.354,3.394,2.355-3.394Z" transform="translate(-63.839 -53.374)" fill="none" stroke="#fff" stroke-width="2.5"/><path d="M87.5,37.081c0-6.036-2.484-10.767-8.74-10.767s-8.739,4.731-8.739,10.767c-.654.341-1.084,1.143-.441,2.859a4.719,4.719,0,0,0,1.38,1.963c1.783,4.439,5.289,7.866,7.8,7.866s6.018-3.427,7.8-7.866a4.725,4.725,0,0,0,1.381-1.963C88.58,38.223,88.15,37.422,87.5,37.081Z" transform="translate(-47.86)" fill="none" stroke="#fff" stroke-width="2.5"/><path d="M9.873,80.312c-2.915-.344-5.213-1.132-6.17-2.126L0,76.9l1.963-8.623a1.887,1.887,0,0,1,.613-1,2.243,2.243,0,0,1,1.134-.512l7.172-1.643a10.671,10.671,0,0,1-2.8-4.041,3.055,3.055,0,0,1-.9-1.272c-.417-1.113-.138-1.632.286-1.854,0-3.913,1.609-6.98,5.666-6.98h0c4.056,0,5.666,3.067,5.666,6.98.425.222.7.741.287,1.854a3.058,3.058,0,0,1-.9,1.272,10.679,10.679,0,0,1-2.8,4.041l3.171.727-2.469.477a4.852,4.852,0,0,0-2.433,1.116,4.316,4.316,0,0,0-1.392,2.293ZM59.828,68.277a1.891,1.891,0,0,0-.613-1,2.239,2.239,0,0,0-1.134-.512l-7.172-1.643a10.682,10.682,0,0,0,2.8-4.041,3.051,3.051,0,0,0,.895-1.272c.417-1.113.138-1.632-.286-1.854,0-3.913-1.611-6.98-5.667-6.98h0c-4.057,0-5.667,3.067-5.667,6.98-.424.222-.7.741-.286,1.854a3.048,3.048,0,0,0,.895,1.272,10.684,10.684,0,0,0,2.8,4.041l-3.172.727,2.469.477a4.852,4.852,0,0,1,2.427,1.11,4.324,4.324,0,0,1,1.4,2.3l2.409,10.58c2.915-.344,5.213-1.132,6.17-2.126l3.7-1.285Z" transform="translate(0 -17.04)" fill="none" stroke="#fff" stroke-width="2.5"/></g></svg>