<svg xmlns="http://www.w3.org/2000/svg" width="99.449" height="98.976" viewBox="0 0 99.449 98.976"><rect width="99.449" height="98.976" rx="7.25" transform="translate(99.449 98.976) rotate(180)" fill="#0071bc"/><path d="M77.689,50.062V46.986s0-11.616-22.275-11.616S33.14,46.537,33.14,46.537v24.7" transform="translate(6.062 6.47)" fill="none" stroke="#fff" stroke-miterlimit="10" stroke-width="6"/><line y1="31.643" transform="translate(83.751 56.532)" fill="none" stroke="#fff" stroke-miterlimit="10" stroke-width="6"/><path d="M54.431,30.386a12.35,12.35,0,1,1,8.751-3.6A12.338,12.338,0,0,1,54.431,30.386Z" transform="translate(7.709 1.045)" fill="#00dbcc"/><path d="M54.8,8.442a9.972,9.972,0,1,1-9.972,9.972A9.972,9.972,0,0,1,54.8,8.442m0-4.732A14.7,14.7,0,1,0,65.224,8,14.7,14.7,0,0,0,54.8,3.71Z" transform="translate(7.343 0.679)" fill="#fff"/><path d="M14.74,36.77V71.489s0,11.616,22.275,11.616S59.289,71.95,59.289,71.95l.2-7.807" transform="translate(2.696 6.726)" fill="none" stroke="#fff" stroke-miterlimit="10" stroke-width="6"/><line x2="8.931" y2="0.13" transform="translate(65.723 56.568)" fill="#00dbcc"/><path d="M56.068,40.64,53.24,45.419h-.426L49.94,40.64" transform="translate(9.135 7.434)" fill="#00dbcc"/><path d="M53.221,60.936h0L48.75,56.31l4.471-12.16h0l4.471,12.03Z" transform="translate(8.918 8.076)" fill="#00dbcc"/></svg>