<svg xmlns="http://www.w3.org/2000/svg" width="47.465" height="47.465" viewBox="0 0 47.465 47.465"><g transform="translate(-2 -2)"><path d="M2.063,39.1a.79.79,0,0,0,.622.71l2.757.595a12.5,12.5,0,0,0,.37,1.386L3.725,43.679a.791.791,0,0,0-.183.926,15.819,15.819,0,0,0,1.263,2.2.791.791,0,0,0,.893.3l2.679-.863A12.676,12.676,0,0,0,9.4,47.269l-.863,2.679a.791.791,0,0,0,.3.893,15.819,15.819,0,0,0,2.2,1.263.792.792,0,0,0,.926-.183l1.891-2.087a12.732,12.732,0,0,0,1.387.37l.595,2.757a.792.792,0,0,0,.71.622c.421.033.843.063,1.272.063s.851-.03,1.272-.063a.79.79,0,0,0,.71-.622L20.4,50.2a12.51,12.51,0,0,0,1.387-.37l1.891,2.087a.79.79,0,0,0,.926.183,15.9,15.9,0,0,0,2.2-1.263.791.791,0,0,0,.3-.893l-.863-2.679a12.8,12.8,0,0,0,1.02-1.02l2.679.863a.79.79,0,0,0,.893-.3,15.819,15.819,0,0,0,1.263-2.2.791.791,0,0,0-.183-.926l-2.087-1.891A12.736,12.736,0,0,0,30.2,40.4l2.757-.595a.792.792,0,0,0,.622-.71c.032-.422.062-.843.062-1.273s-.03-.851-.063-1.272a.79.79,0,0,0-.622-.71L30.2,35.247a12.512,12.512,0,0,0-.37-1.387l2.087-1.891a.791.791,0,0,0,.183-.926,15.9,15.9,0,0,0-1.263-2.2.79.79,0,0,0-.893-.3l-2.679.863a12.674,12.674,0,0,0-1.02-1.02l.863-2.679a.791.791,0,0,0-.3-.893,15.819,15.819,0,0,0-2.2-1.263.789.789,0,0,0-.926.183l-1.891,2.087a12.735,12.735,0,0,0-1.387-.37L19.8,22.687a.792.792,0,0,0-.71-.622,16.078,16.078,0,0,0-2.545,0,.79.79,0,0,0-.71.622l-.595,2.757a12.5,12.5,0,0,0-1.386.37l-1.891-2.087a.791.791,0,0,0-.926-.183,15.819,15.819,0,0,0-2.2,1.263.791.791,0,0,0-.3.893L9.4,28.38a12.674,12.674,0,0,0-1.02,1.02L5.7,28.538a.789.789,0,0,0-.893.3,15.819,15.819,0,0,0-1.263,2.2.791.791,0,0,0,.183.926l2.087,1.891a12.735,12.735,0,0,0-.37,1.387l-2.757.595a.792.792,0,0,0-.622.71C2.03,36.974,2,37.4,2,37.825s.03.851.063,1.272ZM3.6,37.264l2.691-.581a.791.791,0,0,0,.614-.646,11.028,11.028,0,0,1,.569-2.129.79.79,0,0,0-.209-.866L5.232,31.2c.177-.339.362-.665.554-.972l2.607.84a.794.794,0,0,0,.855-.252,11.123,11.123,0,0,1,1.565-1.565.79.79,0,0,0,.252-.855l-.84-2.607q.462-.288.972-.554l1.842,2.033a.792.792,0,0,0,.867.209,10.975,10.975,0,0,1,2.128-.569.791.791,0,0,0,.646-.614L17.26,23.6a10.419,10.419,0,0,1,1.123,0l.581,2.691a.791.791,0,0,0,.646.614,11.028,11.028,0,0,1,2.129.569.79.79,0,0,0,.866-.209l1.842-2.032c.339.177.665.362.972.554l-.84,2.607a.792.792,0,0,0,.252.855A11.123,11.123,0,0,1,26.4,30.817a.788.788,0,0,0,.855.252l2.607-.84q.288.462.554.971l-2.033,1.842a.791.791,0,0,0-.209.867,10.975,10.975,0,0,1,.569,2.128.791.791,0,0,0,.614.646l2.691.581c.01.186.017.373.017.562s-.006.376-.017.561l-2.691.581a.791.791,0,0,0-.614.646,11.028,11.028,0,0,1-.569,2.129.79.79,0,0,0,.209.866l2.032,1.842c-.177.339-.362.665-.554.972l-2.607-.84a.787.787,0,0,0-.855.252A11.166,11.166,0,0,1,24.831,46.4a.791.791,0,0,0-.252.854l.84,2.607q-.462.288-.971.554l-1.842-2.033a.794.794,0,0,0-.867-.209,10.975,10.975,0,0,1-2.128.569.791.791,0,0,0-.646.614l-.581,2.691a10.417,10.417,0,0,1-1.123,0l-.581-2.691a.791.791,0,0,0-.646-.614,11.028,11.028,0,0,1-2.129-.569.789.789,0,0,0-.866.209L11.2,50.413c-.339-.177-.665-.362-.972-.554l.84-2.607a.792.792,0,0,0-.252-.855,11.123,11.123,0,0,1-1.565-1.565.79.79,0,0,0-.855-.252l-2.607.84q-.288-.462-.554-.972l2.033-1.842a.791.791,0,0,0,.209-.867,10.975,10.975,0,0,1-.569-2.128.791.791,0,0,0-.614-.646L3.6,38.387c-.009-.186-.017-.373-.017-.562S3.588,37.449,3.6,37.264Z" transform="translate(0 -4.181)" fill="#fff"/><path d="M49.368,13.261a.79.79,0,0,0,.548-.664,9.3,9.3,0,0,0,.07-1.1,9.463,9.463,0,0,0-.069-1.1.79.79,0,0,0-.548-.664l-2.194-.689q-.1-.269-.218-.528L48.02,6.471a.793.793,0,0,0-.081-.857,9.578,9.578,0,0,0-1.566-1.566.793.793,0,0,0-.857-.081L43.479,5.03q-.259-.119-.528-.218l-.689-2.194a.79.79,0,0,0-.664-.548,8.751,8.751,0,0,0-2.209,0,.79.79,0,0,0-.664.548l-.689,2.194q-.269.1-.528.218L35.47,3.968a.8.8,0,0,0-.857.081,9.578,9.578,0,0,0-1.566,1.566.791.791,0,0,0-.081.857l1.062,2.037q-.119.259-.218.528l-2.194.689a.79.79,0,0,0-.548.664,8.895,8.895,0,0,0,0,2.209.79.79,0,0,0,.548.664l2.194.689q.1.269.218.528l-1.063,2.037a.793.793,0,0,0,.081.857,9.578,9.578,0,0,0,1.566,1.566.793.793,0,0,0,.857.081l2.037-1.062q.259.119.528.218l.689,2.194a.79.79,0,0,0,.664.548,9.35,9.35,0,0,0,1.106.07,9.464,9.464,0,0,0,1.1-.069.79.79,0,0,0,.664-.548l.689-2.194q.269-.1.528-.218l2.037,1.063a.791.791,0,0,0,.857-.081,9.578,9.578,0,0,0,1.566-1.566.791.791,0,0,0,.081-.857L46.956,14.48q.12-.259.218-.528Zm-3.054-.7a.793.793,0,0,0-.521.528,5.572,5.572,0,0,1-.422,1.024.789.789,0,0,0,0,.74l1,1.924a8.074,8.074,0,0,1-.593.593l-1.924-1a.791.791,0,0,0-.74,0,5.572,5.572,0,0,1-1.024.422.793.793,0,0,0-.528.521L40.91,19.39a6.665,6.665,0,0,1-.834,0l-.652-2.076a.793.793,0,0,0-.528-.521,5.5,5.5,0,0,1-1.023-.422.791.791,0,0,0-.741,0l-1.924,1a8.074,8.074,0,0,1-.593-.593l1-1.924a.791.791,0,0,0,0-.74,5.572,5.572,0,0,1-.422-1.024.793.793,0,0,0-.521-.528L32.6,11.91c-.009-.145-.013-.283-.013-.417s0-.272.013-.417l2.076-.652a.793.793,0,0,0,.521-.528,5.5,5.5,0,0,1,.422-1.023.791.791,0,0,0,0-.741l-1-1.924a8.072,8.072,0,0,1,.593-.593l1.924,1a.793.793,0,0,0,.74,0A5.572,5.572,0,0,1,38.9,6.192a.793.793,0,0,0,.528-.521L40.076,3.6a6.664,6.664,0,0,1,.834,0l.652,2.076a.793.793,0,0,0,.528.521,5.5,5.5,0,0,1,1.023.422.791.791,0,0,0,.741,0l1.924-1a8.072,8.072,0,0,1,.593.593l-1,1.924a.791.791,0,0,0,0,.74A5.572,5.572,0,0,1,45.794,9.9a.793.793,0,0,0,.521.528l2.076.652c.009.145.013.283.013.417s0,.272-.013.417Z" transform="translate(-6.059 0)" fill="#fff"/><path d="M57.238,33.3l-1.359-.483a6.412,6.412,0,0,0-.267-.646l.618-1.3a.788.788,0,0,0-.092-.826,7.961,7.961,0,0,0-1.36-1.361.791.791,0,0,0-.827-.092l-1.3.618A6.318,6.318,0,0,0,52,28.944l-.483-1.359a.793.793,0,0,0-.65-.521,7.29,7.29,0,0,0-1.92,0,.79.79,0,0,0-.65.521l-.483,1.359a6.411,6.411,0,0,0-.646.267l-1.3-.618a.792.792,0,0,0-.826.092,7.961,7.961,0,0,0-1.361,1.36.792.792,0,0,0-.092.827l.618,1.3a6.317,6.317,0,0,0-.266.646l-1.359.483a.793.793,0,0,0-.521.65,7.75,7.75,0,0,0-.064.959,7.929,7.929,0,0,0,.063.96.79.79,0,0,0,.521.65L43.943,37a6.409,6.409,0,0,0,.267.646l-.618,1.3a.788.788,0,0,0,.092.826,7.961,7.961,0,0,0,1.36,1.361.793.793,0,0,0,.827.092l1.3-.618a6.32,6.32,0,0,0,.646.266l.483,1.359a.793.793,0,0,0,.65.521,7.641,7.641,0,0,0,.96.065,7.93,7.93,0,0,0,.96-.063.79.79,0,0,0,.65-.521L52,40.879a6.409,6.409,0,0,0,.646-.267l1.3.618a.786.786,0,0,0,.826-.092,7.962,7.962,0,0,0,1.361-1.36.792.792,0,0,0,.092-.827l-.618-1.3A6.32,6.32,0,0,0,55.877,37l1.359-.483a.793.793,0,0,0,.521-.65,7.641,7.641,0,0,0,.065-.96,7.929,7.929,0,0,0-.063-.96A.791.791,0,0,0,57.238,33.3Zm-1.006,1.9-1.254.445a.791.791,0,0,0-.5.534,4.707,4.707,0,0,1-.439,1.066.793.793,0,0,0-.026.729l.568,1.2q-.2.216-.412.412l-1.2-.568a.793.793,0,0,0-.729.026,4.71,4.71,0,0,1-1.065.439.794.794,0,0,0-.535.5L50.2,41.231a5.408,5.408,0,0,1-.577,0l-.445-1.254a.791.791,0,0,0-.534-.5,4.707,4.707,0,0,1-1.066-.439.8.8,0,0,0-.729-.026l-1.2.568q-.216-.2-.412-.412l.568-1.2a.791.791,0,0,0-.026-.729,4.71,4.71,0,0,1-.439-1.065.794.794,0,0,0-.5-.535L43.592,35.2c-.006-.1-.009-.191-.009-.289s0-.194.008-.289l1.254-.446a.788.788,0,0,0,.5-.534,4.731,4.731,0,0,1,.44-1.066.793.793,0,0,0,.026-.729l-.568-1.2q.2-.216.412-.412l1.2.568a.788.788,0,0,0,.729-.026,4.71,4.71,0,0,1,1.065-.439.794.794,0,0,0,.535-.5l.445-1.254a5.41,5.41,0,0,1,.577,0l.445,1.254a.791.791,0,0,0,.534.5,4.707,4.707,0,0,1,1.066.439.788.788,0,0,0,.729.026l1.2-.568q.216.2.412.412l-.568,1.2a.791.791,0,0,0,.026.729,4.71,4.71,0,0,1,.439,1.065.794.794,0,0,0,.5.535l1.254.445c.006.1.009.192.009.29s0,.193-.008.289Z" transform="translate(-8.357 -5.223)" fill="#fff"/><path d="M19.7,48.4A8.7,8.7,0,1,0,11,39.7,8.712,8.712,0,0,0,19.7,48.4Zm0-15.822a7.12,7.12,0,1,1-7.12,7.12A7.128,7.128,0,0,1,19.7,32.582Z" transform="translate(-1.88 -6.058)" fill="#fff"/><path d="M2.022,22.838l1.215,1.013a18.947,18.947,0,0,1,14.589-6.835c.4,0,.8.023,1.206.048l-.975.975,1.119,1.119,2.373-2.373a.79.79,0,0,0,0-1.119l-2.373-2.373-1.119,1.119,1.075,1.075c-.435-.028-.871-.052-1.307-.052a20.526,20.526,0,0,0-15.8,7.4Z" transform="translate(-0.005 -2.359)" fill="#fff"/><path d="M41.955,9a3.955,3.955,0,1,0,3.955,3.955A3.96,3.96,0,0,0,41.955,9Zm0,6.329a2.373,2.373,0,1,1,2.373-2.373A2.376,2.376,0,0,1,41.955,15.329Z" transform="translate(-7.521 -1.462)" fill="#fff"/><path d="M51.164,33a3.164,3.164,0,1,0,3.164,3.164A3.168,3.168,0,0,0,51.164,33Zm0,4.746a1.582,1.582,0,1,1,1.582-1.582A1.584,1.584,0,0,1,51.164,37.746Z" transform="translate(-9.61 -6.476)" fill="#fff"/><path d="M59.7,4.807l-3.955-.791a.789.789,0,0,0-.931.62l-.791,3.955L55.57,8.9,56,6.773a11.87,11.87,0,0,1,1.172,5.138,11.739,11.739,0,0,1-2.6,7.416l1.235.99A13.459,13.459,0,0,0,57.361,5.953l2.025.405Z" transform="translate(-10.868 -0.418)" fill="#fff"/></g></svg>