<svg xmlns="http://www.w3.org/2000/svg" width="78.62" height="54.054" viewBox="0 0 78.62 54.054"><g transform="translate(0)"><path d="M72.266,34.363H66.992l.083,3.4,4.317-.049c1.717-.017,2.808-.1,2.808,1.378v.245c-5.187.133-9.028,1.511-9.028,5.219,0,3.019,2.494,4.464,7.113,4.464a15.037,15.037,0,0,0,6.335-1.084V39.418c0-3.942-2.757-5.055-6.35-5.055Zm1.943,11.192a4.142,4.142,0,0,1-1.692.311c-1.82,0-2.887-.343-2.887-1.442,0-2.347,1.771-2.036,4.579-2.264ZM56.014,35.182v0c1.673-.738,4.792-.966,8.83-.836v3.434a12.13,12.13,0,0,0-4.005.182V48.87H56.014Zm-4.92-3.907v3.088h3.264v3.363H51.1v6.446c0,1.1.444,1.69,1.494,1.69a3.459,3.459,0,0,0,.981-.133v2.943a6.294,6.294,0,0,1-2.3.41c-3.331,0-5.006-1.977-5.006-4.184V31.275ZM27.87,43.109,18.314,43.1c-.162,2.249,1.695,2.413,3.434,2.413h4.628l.083,3.353H21.485c-5.1-.032-8.288-1.771-8.288-7.287,0-4.54,2.938-7.483,7.5-7.483C26.67,34.1,27.87,37.331,27.87,43.109Zm-9.651-3.434h5.236c0-1.906-.591-2.627-2.578-2.627A2.367,2.367,0,0,0,18.218,39.675ZM65.374,9.564H70.1V28.849H65.374ZM0,9.564H4.628V28.849H0ZM63.12,23.073h0c0,3.5-2.232,5.779-6.3,5.779H12.641a6.981,6.981,0,0,1-6.779,5.81V31.888c1.575-.493,2.281-1.494,2.281-4.383V16.787h4.645v8.158h3.478V16.787h4.778v8.158h5.094V16.787h4.726v8.158H33.9V16.787h4.761v8.158h2.987V16.787h4.793v8.155h9.933a1.765,1.765,0,0,0,2-1.9V21.528a1.772,1.772,0,0,0-2-1.9H54.148l2.33-3.394c.1,0,.277-.02.341-.02,4.069,0,6.3,2.119,6.3,5.614ZM16.072,14.366a2.313,2.313,0,0,1-2.249-2.207,2.308,2.308,0,0,1,2.249-2.207A2.337,2.337,0,0,1,18.3,12.183,2.33,2.33,0,0,1,16.072,14.366Zm4.886,0-.007-.007a2.308,2.308,0,0,1-2.207-2.207,2.225,2.225,0,0,1,4.447.032A2.306,2.306,0,0,1,20.958,14.366Z" transform="translate(0 -2.034)" fill="#313131"/><path d="M28.527,54.054,39.071,39.245l-4.824-6.917h5.781l2.006,2.83,4.361-6.016h5.531l-7.2,9.98,5.788,7.714H44.538l-2.745-3.652-7.635,10.87ZM66.967,0H72.5L60.213,17.591H54.566Z" transform="translate(-6.067 0)" fill="#ffe700"/></g></svg>