<svg xmlns="http://www.w3.org/2000/svg" width="242.384" height="128.412" viewBox="0 0 242.384 128.412"><g transform="translate(-105 -1174.322)"><g transform="translate(78.988 1032.675)"><g transform="translate(26.012 226.677)"><path d="M206.7,226.684H201.57v43.374h24.115l3.267-7.086H206.7Zm-70.388,2.147-18.825,41.227h6.223l5.678-12.455h12.135l3.19-7.084H132.582l6.612-14.28,15.48,33.819h6.222l-18.98-41.334C140.749,226.04,137.637,226.04,136.316,228.831Zm36.481,4.925h21.586l3.183-7.08-24.924.02c-8.674,0-14.383,9.7-14.383,21.674s5.708,21.675,14.383,21.675l21.084-.034,3.3-7.027H172.8c-5.848,0-9.266-6.543-9.266-14.614S166.949,233.757,172.8,233.757ZM62.64,226.7H40.393c-8.673,0-14.381,9.7-14.381,21.674s5.708,21.674,14.381,21.674H62.64c8.673,0,14.381-9.706,14.381-21.674S71.313,226.7,62.64,226.7Zm0,36.288H40.393c-5.848,0-9.265-6.543-9.265-14.614s3.418-14.614,9.265-14.614H62.64c5.848,0,9.266,6.544,9.266,14.614S68.488,262.985,62.64,262.985ZM234.6,251.807h27.185l3.269-7.086H234.6c.889-6.279,4.1-10.963,9.022-10.963h21.587l3.185-7.08-24.926.02c-8.674,0-14.38,9.7-14.38,21.674s5.706,21.675,14.38,21.675l21.084-.034,3.3-7.027h-24.23C238.634,262.985,235.437,258.221,234.6,251.807Zm-128.325.628c5.149,0,9.323-5.761,9.323-12.868s-4.174-12.867-9.323-12.867L80.1,226.685v43.374h5.756v-36.3h20.419c2.324,0,4.208,2.6,4.208,5.807s-1.884,5.808-4.208,5.808H89.9l18.471,24.635h7.432l-13.223-17.559Z" transform="translate(-26.012 -226.677)" fill="#e72e15" fill-rule="evenodd"/></g></g><path d="M51.082,4.412H23.63A23.617,23.617,0,0,0,23.6,51.647H51.082a23.617,23.617,0,0,0,0-47.235Zm-.6,38.912H24.234a15.3,15.3,0,1,1,0-30.592l26.247,0a15.295,15.295,0,1,1,0,30.589Z" transform="translate(189 1169.91)" fill="#1a1a1a"/></g></svg>