<svg xmlns="http://www.w3.org/2000/svg" width="45.973" height="63.209" viewBox="0 0 45.973 63.209"><g transform="translate(0 0)"><path d="M101.511,17.209a1.852,1.852,0,0,0-1.309-.542H85.387a1.851,1.851,0,0,0-1.309.542l-3.7,3.7a1.852,1.852,0,0,0,0,2.619L91.485,34.643a1.852,1.852,0,0,0,2.619,0l11.111-11.111a1.852,1.852,0,0,0,0-2.619ZM92.794,30.714,84.3,22.222l1.852-1.852H99.435l1.852,1.852Zm20.5-6.64,2.365-6.208a1.852,1.852,0,0,0-.718-2.21l-5.562-3.632-1.736-6.412a1.853,1.853,0,0,0-1.88-1.366l-6.635.331L93.956.41a1.852,1.852,0,0,0-2.323,0L86.46,4.577l-6.635-.331a1.854,1.854,0,0,0-1.88,1.366l-1.736,6.412-5.562,3.632a1.852,1.852,0,0,0-.718,2.21l2.365,6.208-2.365,6.208a1.852,1.852,0,0,0,.718,2.21l5.562,3.632,1.736,6.412a1.851,1.851,0,0,0,1.88,1.366l3.71-.185V61.358A1.852,1.852,0,0,0,86.7,62.667l6.1-6.1,6.1,6.1a1.852,1.852,0,0,0,3.161-1.309V43.716l3.71.185a1.855,1.855,0,0,0,1.88-1.366l1.736-6.412,5.562-3.632a1.852,1.852,0,0,0,.718-2.21ZM98.35,56.887,94.1,52.641a1.852,1.852,0,0,0-2.619,0l-4.246,4.246V44.2l4.394,3.54a1.852,1.852,0,0,0,2.323,0L98.35,44.2Zm11.232-32.154,2.085,5.473-4.9,3.2a1.852,1.852,0,0,0-.775,1.067l-1.53,5.653-5.849-.292a1.85,1.85,0,0,0-1.254.407l-4.561,3.674-4.561-3.674a1.852,1.852,0,0,0-1.162-.41l-.092,0-5.849.292L79.6,34.475a1.852,1.852,0,0,0-.775-1.067l-4.9-3.2,2.085-5.473a1.852,1.852,0,0,0,0-1.319l-2.085-5.473,4.9-3.2a1.852,1.852,0,0,0,.775-1.067L81.13,8.02l5.849.292A1.848,1.848,0,0,0,88.234,7.9L92.794,4.23,97.355,7.9a1.851,1.851,0,0,0,1.254.407l5.849-.292,1.53,5.653a1.852,1.852,0,0,0,.775,1.067l4.9,3.2-2.085,5.473a1.853,1.853,0,0,0,0,1.319Z" transform="translate(-69.808 0)" fill="#4797ff"/></g></svg>