<svg xmlns="http://www.w3.org/2000/svg" width="62" height="57.867" viewBox="0 0 62 57.867"><g transform="translate(-1 -2)"><path d="M17.617,29.566a2.066,2.066,0,0,1-1.948-2.759l3-8.432a2.067,2.067,0,1,1,3.9,1.384l-3,8.432A2.069,2.069,0,0,1,17.617,29.566Z" transform="translate(15.519 16)" fill="#3aaed5"/><path d="M60.933,18.533H3.067A2.067,2.067,0,0,1,1,16.467V4.067A2.067,2.067,0,0,1,3.067,2H60.933A2.067,2.067,0,0,1,63,4.067v12.4A2.067,2.067,0,0,1,60.933,18.533ZM5.133,14.4H58.867V6.133H5.133Z" transform="translate(0 0)" fill="#3aaed5"/><path d="M42.133,29.6a2.066,2.066,0,0,1-2.067-2.067c0-6.838-6.49-12.4-14.467-12.4S11.133,20.7,11.133,27.533a2.067,2.067,0,0,1-4.133,0C7,18.417,15.344,11,25.6,11s18.6,7.417,18.6,16.533A2.066,2.066,0,0,1,42.133,29.6Z" transform="translate(6.4 9.6)" fill="#3aaed5"/><path d="M19.2,33.4a6.2,6.2,0,1,1,6.2-6.2A6.207,6.207,0,0,1,19.2,33.4Zm0-8.267A2.067,2.067,0,1,0,21.267,27.2,2.069,2.069,0,0,0,19.2,25.133Z" transform="translate(12.8 20.267)" fill="#3aaed5"/><path d="M16,22" transform="translate(16 21.333)" fill="none" stroke="#231f20" stroke-linecap="round" stroke-linejoin="round" stroke-miterlimit="10" stroke-width="2"/><path d="M17.067,19.267A2.067,2.067,0,0,1,15,17.2V13.067a2.067,2.067,0,0,1,4.133,0V17.2A2.067,2.067,0,0,1,17.067,19.267Z" transform="translate(14.933 9.6)" fill="#3aaed5"/><path d="M13.453,21.52a2.06,2.06,0,0,1-1.461-.606L9.306,18.228a2.066,2.066,0,1,1,2.922-2.922l2.686,2.686a2.067,2.067,0,0,1-1.461,3.528Z" transform="translate(8.214 13.547)" fill="#3aaed5"/><path d="M22.067,20.52a2.067,2.067,0,0,1-1.461-3.528l2.686-2.686a2.067,2.067,0,0,1,2.922,2.922l-2.686,2.686A2.06,2.06,0,0,1,22.067,20.52Z" transform="translate(20.267 12.48)" fill="#3aaed5"/><path d="M10.2,9.133H6.067A2.067,2.067,0,0,1,6.067,5H10.2a2.067,2.067,0,1,1,0,4.133Z" transform="translate(3.2 3.2)" fill="#3aaed5"/><path d="M15.2,9.133H11.067a2.067,2.067,0,1,1,0-4.133H15.2a2.067,2.067,0,0,1,0,4.133Z" transform="translate(8.533 3.2)" fill="#3aaed5"/><path d="M60.933,59.867H3.067A2.066,2.066,0,0,1,1,57.8V4.067A2.067,2.067,0,0,1,3.067,2H60.933A2.067,2.067,0,0,1,63,4.067V57.8A2.066,2.066,0,0,1,60.933,59.867Zm-55.8-4.133H58.867V6.133H5.133Z" transform="translate(0 0)" fill="#3aaed5"/></g></svg>