<svg xmlns="http://www.w3.org/2000/svg" width="64" height="43.3" viewBox="0 0 64 43.3"><g transform="translate(0 -10.4)"><path d="M15.2,31.3a1.11,1.11,0,0,0-1.1-1.1,9.389,9.389,0,0,0-9.4,9.4,1.1,1.1,0,0,0,2.2,0,7.17,7.17,0,0,1,7.2-7.2A1.11,1.11,0,0,0,15.2,31.3Z" fill="#3aaed5"/><path d="M21.3,39.6a7.17,7.17,0,0,1-7.2,7.2,1.1,1.1,0,1,0,0,2.2,9.389,9.389,0,0,0,9.4-9.4,1.11,1.11,0,0,0-1.1-1.1A1.049,1.049,0,0,0,21.3,39.6Z" fill="#3aaed5"/><path d="M61.2,31.2h0L48.6,12.8l-.1-.1a7.193,7.193,0,0,0-5.3-2.3,7.341,7.341,0,0,0-7.3,7.3c0,1-.3,4.6-2,4.6H30.2c-1.6,0-2-3.6-2-4.6a7.341,7.341,0,0,0-7.3-7.3,7.034,7.034,0,0,0-5.3,2.3l-.1.1L2.8,31.1a.1.1,0,0,1-.1.1A14.5,14.5,0,0,0,0,39.6a14.1,14.1,0,0,0,28.2,0c0-7,1.9-8.4,2.2-8.6h3.3c.4.3,2.2,1.8,2.2,8.6a14.05,14.05,0,1,0,28.1,0A13.491,13.491,0,0,0,61.2,31.2ZM14.1,51.4A11.928,11.928,0,0,1,2.2,39.5a11.525,11.525,0,0,1,2.3-7l.1-.1a11.883,11.883,0,1,1,9.5,19ZM26.6,33.2a.349.349,0,0,0-.1-.2c-.1-.1-.1-.2-.2-.3-.2-.3-.3-.6-.5-.9,0-.1-.1-.1-.1-.2a8.65,8.65,0,0,1-.7-1l-.2-.2c-.2-.2-.4-.5-.6-.7-.1-.1-.1-.2-.2-.2-.3-.3-.6-.5-.9-.8l-.1-.1c-.3-.2-.5-.4-.8-.6-.1-.1-.2-.1-.3-.2l-.9-.6-.1-.1a5.359,5.359,0,0,0-1.1-.5c-.1,0-.2-.1-.3-.1l-.9-.3c-.1,0-.2-.1-.3-.1l-1.2-.3h-.2c-.3-.1-.7-.1-1-.2h-.3c-.4,0-.9-.1-1.3-.1a9.151,9.151,0,0,0-1.6.1c-.2,0-.3.1-.5.1a3.553,3.553,0,0,0-1,.2c-.2,0-.4.1-.6.1l-.9.3c-.2.1-.4.1-.6.2-.1,0-.2.1-.3.1l8.5-12.4A5.233,5.233,0,0,1,21,12.6a5.121,5.121,0,0,1,5.1,5.1c0,2.2.7,5.8,3.1,6.6v4.9C28.3,29.7,27.3,30.8,26.6,33.2Zm4.6-8.8h1.5v4.3H31.2Zm6.2,8.8A7.518,7.518,0,0,0,35,29.1V24.2c2.4-.8,3.1-4.4,3.1-6.6a5.121,5.121,0,0,1,5.1-5.1,5.233,5.233,0,0,1,3.7,1.6l8.5,12.4c-.1,0-.2-.1-.4-.1-.2-.1-.4-.1-.6-.2l-.9-.3c-.2,0-.4-.1-.6-.1-.3-.1-.7-.1-1-.2-.2,0-.3-.1-.5-.1a8.083,8.083,0,0,0-1.6-.1,5.7,5.7,0,0,0-1.3.1h-.3a3.553,3.553,0,0,0-1,.2H47l-1.2.3c-.1,0-.2.1-.3.1l-.9.3c-.1,0-.2.1-.3.1-.4.2-.7.3-1.1.5l-.1.1-.9.6c-.1.1-.2.1-.3.2a5.547,5.547,0,0,0-.8.6l-.1.1c-.3.3-.6.5-.9.8-.1.1-.1.2-.2.2-.2.2-.4.5-.6.7l-.2.2a3.592,3.592,0,0,0-.7,1c0,.1-.1.1-.1.2a4.053,4.053,0,0,0-.5.9c-.1.1-.1.2-.2.3C37.5,33.1,37.4,33.1,37.4,33.2ZM49.9,51.4a11.9,11.9,0,1,1,0-23.8,11.613,11.613,0,0,1,9.5,4.8,11.966,11.966,0,0,1,2.3,7A11.741,11.741,0,0,1,49.9,51.4Z" fill="#3aaed5"/><path d="M49.9,30.2a1.1,1.1,0,0,0,0,2.2,7.17,7.17,0,0,1,7.2,7.2,1.1,1.1,0,0,0,2.2,0A9.389,9.389,0,0,0,49.9,30.2Z" fill="#3aaed5"/><path d="M49.9,46.7a7.17,7.17,0,0,1-7.2-7.2,1.1,1.1,0,0,0-2.2,0,9.389,9.389,0,0,0,9.4,9.4,1.1,1.1,0,0,0,0-2.2Z" fill="#3aaed5"/></g></svg>