<svg xmlns="http://www.w3.org/2000/svg" viewBox="0 0 146.8 178.2"><rect width="137" height="99.6" x="8.2" y="59.5" fill="#3d85fd" rx="14.9" transform="rotate(359.9 76.3 109.9)"/><g fill="#233863"><path d="M23.2 160.8a16.5 16.5 0 0 1-16.4-16.4l-.1-69.7a16.5 16.5 0 0 1 16.4-16.5l107-.2a16.5 16.5 0 0 1 16.4 16.4l.2 69.7a16.5 16.5 0 0 1-16.4 16.5l-107 .2zm107-1.8zm-.2-98H23A13.5 13.5 0 0 0 9.7 74.6l.2 69.7a13.5 13.5 0 0 0 13.4 13.4l107-.2a13.5 13.5 0 0 0 13.4-13.5l-.2-69.7a13.5 13.5 0 0 0-13.4-13.4z"/><rect width="137" height="99.6" x="8.2" y="59.5" opacity=".2" rx="14.9" transform="rotate(359.9 76.3 109.9)"/></g><rect width="67.9" height="91" x="15.8" y="10.6" fill="#fff" rx="1.3" transform="rotate(337.8 49.7 56.1)"/><path fill="#233863" d="M36.2 112a2.8 2.8 0 0 1-2.6-1.7L.2 28.5a2.8 2.8 0 0 1 1.5-3.6L62.2.2a2.8 2.8 0 0 1 3.6 1.5l33.5 82a2.8 2.8 0 0 1-1.5 3.6L37.3 112a2.8 2.8 0 0 1-1.1.2zM3 27.6L36.4 109l60-24.5L63 3zm94 58.2zm-.6-1.4zM54.2 32.7a1 1 0 0 1-.4-1.9l10.4-4.2a1 1 0 0 1 .8 1.9l-10.4 4.3a1 1 0 0 1-.4.1zM25.4 62.5a1 1 0 0 1-.4-1.9L70.6 42a1 1 0 0 1 .8 1.9L25.8 62.4a1 1 0 0 1-.4.1z"/><path fill="#ffb44f" d="M57 61.8a1 1 0 0 1-.4-1.9l18-7.4a1 1 0 1 1 .8 1.9l-18 7.4a1 1 0 0 1-.4.1zM29.7 73a1 1 0 0 1-.4-1.9l11-4.5a1 1 0 0 1 .8 1.9L30 73a1 1 0 0 1-.4 0z"/><path fill="#233863" d="M33.3 85.3a1 1 0 0 1-.4-1.9L61 72a1 1 0 0 1 .8 1.8l-28 11.5a1 1 0 0 1-.4.1z"/><rect width="30.4" height="32.3" x="15.4" y="14.5" fill="#ffb44f" rx="2" transform="rotate(336.6 30.6 30.7)"/><g fill="#233863"><path d="M24 52a3 3 0 0 1-2.8-1.8L10 24a3 3 0 0 1 1.6-4L36 9.7a3 3 0 0 1 4 1.6l11.2 26a3 3 0 0 1-1.6 4L25.3 51.6a3 3 0 0 1-1.2.3zm13-40.4a1 1 0 0 0-.4.1L12.5 22a1 1 0 0 0-.5 1.4l11.2 26a1 1 0 0 0 1.3.5l24.2-10.5a1 1 0 0 0 .5-1.3L38 12a1 1 0 0 0-.9-.6zm12 28.8z"/><path d="M23.3 26.5a2.4 2.4 0 0 1-2.2-1.4l-1.3-3a.5.5 0 1 1 .9-.4l1.3 3a1.4 1.4 0 0 0 1.8.7l.2-.1a1.1 1.1 0 0 0 .6-1.4l-3.3-7.7a1.1 1.1 0 0 0-1.4-.6l-.4.2a1.2 1.2 0 0 0-.6 1.5l.1.2a.5.5 0 1 1-.9.4v-.2a2.2 2.2 0 0 1 1.1-2.8l.4-.2a2.1 2.1 0 0 1 2.8 1.1l3.3 7.7a2.1 2.1 0 0 1-1.1 2.7l-.2.1a2.4 2.4 0 0 1-1 .2z"/></g><circle cx="36" cy="16.6" r="2.1" fill="#fff" transform="rotate(315.5 36 16.6)"/><rect width="67.9" height="91" x="64.2" y="11.6" fill="#3aaed5" rx="1.3" transform="rotate(8.6 98.1 57.1)"/><path fill="#233863" d="M123.8 108.5a2.8 2.8 0 0 1-.4 0l-64.6-9.8a2.8 2.8 0 0 1-2.3-3.2L69.7 8a2.8 2.8 0 0 1 3.2-2.3l64.6 9.8a2.8 2.8 0 0 1 2.3 3.2l-13.3 87.5a2.8 2.8 0 0 1-2.7 2.4zM59.5 95.8l64.2 9.7 13.2-87-64-9.7z"/><path fill="#fff" d="M93.4 22.8h-.2L81 21a1 1 0 1 1 .3-2l12.4 2a1 1 0 0 1-.1 2z"/><path fill="#233863" d="M125.6 41.2h-.2l-14.2-2a1 1 0 1 1 .3-2l14.2 2.2a1 1 0 0 1-.1 2z"/><path fill="#fff" d="M101.3 37.5h-.1l-24.3-3.7a1 1 0 0 1 .3-2l24.3 3.7a1 1 0 0 1-.2 2z"/><path fill="#233863" d="M102.2 54.5h-.2l-27.7-4.2a1 1 0 0 1 .3-2l27.7 4.2a1 1 0 0 1-.2 2z"/><g fill="#fff"><path d="M120.7 73.2h-.2L72 66a1 1 0 1 1 .3-2l48.6 7.4a1 1 0 0 1-.2 2zM97 86.6h-.2l-27.3-4.2a1 1 0 1 1 .3-2L97 84.5a1 1 0 0 1-.1 2z"/><path d="M134.3 171.5l-115 .2a11 11 0 0 1-11-11L8 83a11 11 0 0 1 11-11l115-.2a11 11 0 0 1 11 11l.2 77.6a11 11 0 0 1-11 11z"/></g><path fill="#233863" d="M19.3 172.7a12 12 0 0 1-12-12L7 83a12 12 0 0 1 12-12l115-.2a12 12 0 0 1 12 12l.2 77.6a12 12 0 0 1-12 12l-115 .2zM134 73H19A10 10 0 0 0 9 83l.2 77.6a10 10 0 0 0 10 10l115-.2a10 10 0 0 0 10-10L144 83a10 10 0 0 0-10-10z"/><path fill="#3d85fd" d="M135.3 53.2h-29a9.8 9.8 0 0 0-9.8 9.8v14H23A15 15 0 0 0 8.1 92l.1 69.7a15 15 0 0 0 15 14.9l107-.2a15 15 0 0 0 14.9-15L145 63a9.8 9.8 0 0 0-9.8-9.8z"/><path fill="#233863" d="M23.2 178.2a16.5 16.5 0 0 1-16.4-16.4L6.6 92A16.5 16.5 0 0 1 23 75.6l72-.1V63a11.3 11.3 0 0 1 11.3-11.3l29-.1a11.3 11.3 0 0 1 11.3 11.3l.2 98.6a16.5 16.5 0 0 1-16.4 16.6l-107 .2zm112-123.5h-29A8.3 8.3 0 0 0 98 63v14a1.5 1.5 0 0 1-1.5 1.5l-73.5.2A13.5 13.5 0 0 0 9.6 92l.1 69.7a13.5 13.5 0 0 0 13.4 13.4l107-.1a13.5 13.5 0 0 0 13.4-13.5l-.2-98.6a8.3 8.3 0 0 0-8.3-8.3zm0-1.5z"/><g fill="#fff"><path d="M134.3 64.3h-26a8.8 8.8 0 0 0-8.7 8.8v12.4l-65.7.1A13.4 13.4 0 0 0 20.6 99l.1 62.4A13.4 13.4 0 0 0 34 174.8l95.8-.2a13.4 13.4 0 0 0 13.3-13.4L143 73a8.8 8.8 0 0 0-8.7-8.7z" opacity=".1"/><circle cx="130.9" cy="162.1" r="4.9"/><path d="M139.2 79.5a1 1 0 0 1-1-1V65.3a4.2 4.2 0 0 0-4.4-4H124a1 1 0 1 1 0-2h9.7a6.2 6.2 0 0 1 6.4 6v13.3a1 1 0 0 1-1 1zM67.6 119a2.5 2.5 0 0 1-1.7-4.3l11.8-11.5 11.6 11.5a2.5 2.5 0 1 1-3.5 3.5l-8-8-8.2 8a2.5 2.5 0 0 1-1.7.7z"/><path d="M77.5 134.5A2.5 2.5 0 0 1 75 132v-25.3a2.5 2.5 0 0 1 5 0V132a2.5 2.5 0 0 1-2.5 2.5zm18.5 12H59a5.4 5.4 0 0 1-5.4-5.4v-13.5a2.5 2.5 0 1 1 5 0V141a.4.4 0 0 0 .4.4h37a.7.7 0 0 0 .7-.7v-13.2a2.5 2.5 0 1 1 5 0v13.2a5.7 5.7 0 0 1-5.7 5.7z"/></g></svg>