<svg xmlns="http://www.w3.org/2000/svg" width="137.828" height="94.762" viewBox="0 0 137.828 94.762"><g transform="translate(0)"><path d="M126.687,53.038h-9.245l.146,5.955,7.567-.086c3.01-.03,4.923-.172,4.923,2.416v.43c-9.094.232-15.827,2.649-15.827,9.15,0,5.293,4.373,7.826,12.469,7.826,4.807,0,8.8-.718,11.106-1.9V61.9c0-6.91-4.833-8.862-11.132-8.862Zm3.405,19.62a7.26,7.26,0,0,1-2.967.546c-3.19,0-5.061-.6-5.061-2.528,0-4.115,3.1-3.569,8.028-3.969ZM98.2,54.475v-.009c2.932-1.294,8.4-1.694,15.479-1.466v6.02c-2.292-.228-5.869-.172-7.022.318V78.471H98.2Zm-8.625-6.849v5.413h5.723v5.895H89.581v11.3c0,1.926.778,2.963,2.619,2.963a6.064,6.064,0,0,0,1.72-.232v5.16a11.034,11.034,0,0,1-4.029.718c-5.839,0-8.776-3.466-8.776-7.335V47.625ZM48.858,68.371l-16.752-.013c-.284,3.943,2.971,4.231,6.02,4.231h8.114l.146,5.878h-8.72c-8.939-.056-14.529-3.1-14.529-12.775,0-7.959,5.151-13.118,13.149-13.118C46.755,52.574,48.858,58.241,48.858,68.371Zm-16.919-6.02h9.18c0-3.341-1.036-4.605-4.519-4.605C32.889,57.747,31.938,60.077,31.938,62.352ZM114.605,9.564h8.286V43.373h-8.286ZM0,9.564H8.114V43.373H0ZM110.653,33.247h0c0,6.131-3.913,10.13-11.046,10.13H22.161A12.239,12.239,0,0,1,10.276,53.563V48.7c2.76-.864,4-2.619,4-7.684V22.227h8.144v14.3h6.1v-14.3h8.376v14.3h8.931v-14.3h8.286v14.3h5.323v-14.3h8.346v14.3h5.237v-14.3h8.4v14.3H98.829c2.533,0,3.513-1.466,3.513-3.337V30.538c0-1.84-.98-3.337-3.513-3.337h-3.9l4.085-5.951c.168,0,.486-.035.6-.035,7.133,0,11.046,3.715,11.046,9.842ZM28.176,17.983a4.055,4.055,0,0,1-3.943-3.87,4.046,4.046,0,0,1,3.943-3.87,4.1,4.1,0,0,1,3.913,3.913A4.085,4.085,0,0,1,28.176,17.983Zm8.565,0-.013-.013a4.046,4.046,0,0,1-3.87-3.87,3.9,3.9,0,0,1,7.8.056A4.042,4.042,0,0,1,36.741,17.983Z" transform="translate(0 3.636)" fill="#313131"/><path d="M28.527,94.762,47.011,68.8,38.553,56.675H48.688l3.517,4.962L59.85,51.089h9.7l-12.624,17.5L67.069,82.108H56.6l-4.811-6.4L38.4,94.762ZM95.916,0h9.7L84.075,30.838h-9.9Z" transform="translate(10.846 0)" fill="#ffe700"/></g></svg>