<svg xmlns="http://www.w3.org/2000/svg" width="49.353" height="56.945" viewBox="0 0 49.353 56.945"><g transform="translate(-0.5)"><path d="M85.245,233.491a4.745,4.745,0,1,0-4.745-4.745A4.746,4.746,0,0,0,85.245,233.491Zm0-7.593a2.847,2.847,0,1,1-2.847,2.847A2.847,2.847,0,0,1,85.245,225.9Zm0,0" transform="translate(-70.509 -197.426)" fill="#4797ff"/><path d="M49.853,23.727H47.237l1.85-1.851L45.06,17.849,43.209,19.7V17.084H40.362V4.745A4.751,4.751,0,0,0,35.616,0H10.94A4.751,4.751,0,0,0,6.195,4.745V19.728L1.986,23.936l3.19,3.19c-.057.129-.111.261-.165.4H.5v7.593H5.011c.054.137.108.269.165.4L1.986,38.7l4.208,4.208V52.2a4.751,4.751,0,0,0,4.745,4.745H35.616A4.751,4.751,0,0,0,40.362,52.2V36.065h2.847V33.45L45.06,35.3l4.028-4.028-1.85-1.851h2.616ZM10.94,1.9H35.616a2.847,2.847,0,0,1,2.847,2.847v.949H8.093V4.745A2.847,2.847,0,0,1,10.94,1.9ZM7.5,35.875l-.342-.623a7.809,7.809,0,0,1-.57-1.371l-.216-.663H2.4v-3.8H6.374l.212-.659a7.828,7.828,0,0,1,.57-1.372l.342-.623L4.67,23.936l2.682-2.682,2.828,2.832.623-.342a7.828,7.828,0,0,1,1.371-.574l.663-.212V18.982h3.8v3.976l.659.212a7.817,7.817,0,0,1,1.372.574l.623.342,2.832-2.832L24.8,23.936,21.97,26.764l.342.623a7.828,7.828,0,0,1,.574,1.371l.212.659h3.976v3.8H23.1l-.212.659a7.8,7.8,0,0,1-.574,1.371l-.342.624L24.8,38.7,22.12,41.386l-2.828-2.832-.623.342a7.828,7.828,0,0,1-1.371.574l-.663.212v3.976h-3.8V39.682l-.659-.212a7.817,7.817,0,0,1-1.372-.574l-.623-.342L7.353,41.386,4.67,38.7ZM35.616,55.047H10.94A2.847,2.847,0,0,1,8.093,52.2V49.353H38.464V52.2A2.847,2.847,0,0,1,35.616,55.047Zm2.847-7.593H8.093V43.33l2.45-2.449c.129.057.261.111.4.165v4.511h7.593V41.045c.137-.054.269-.108.4-.165l3.19,3.19L27.486,38.7l-3.19-3.19c.057-.129.111-.261.164-.4h4.512V27.524H24.461c-.053-.137-.108-.27-.164-.4l3.19-3.19L22.12,18.57l-3.19,3.19c-.129-.057-.261-.111-.4-.165V17.084H10.94v4.511c-.137.054-.269.108-.4.165L8.093,19.31V7.593H38.464v9.491h-.949V19.7l-1.851-1.85-4.028,4.028,1.85,1.851H30.871v5.695h2.616l-1.85,1.851L35.664,35.3l1.851-1.85v2.616h.949Zm9.491-19.931H45.02l-.2.674a2.09,2.09,0,0,1-.16.386l-.323.618L46.4,31.273,45.06,32.617l-2.071-2.071-.619.323a2.168,2.168,0,0,1-.38.159l-.679.2v2.937h-1.9V31.23l-.677-.2a2.163,2.163,0,0,1-.38-.159l-.619-.323-2.074,2.071L34.32,31.273,36.392,29.2l-.323-.618a2.09,2.09,0,0,1-.16-.386l-.2-.674H32.769v-1.9H35.7l.2-.674a2.09,2.09,0,0,1,.16-.386l.323-.618L34.32,21.876l1.344-1.344L37.735,22.6l.619-.323a2.168,2.168,0,0,1,.38-.159l.679-.2V18.982h1.9v2.937l.677.2a2.164,2.164,0,0,1,.38.159l.619.323,2.071-2.071L46.4,21.876l-2.071,2.072.323.618a2.156,2.156,0,0,1,.16.386l.2.674h2.938Zm0,0" fill="#4797ff"/><path d="M315.347,200a2.847,2.847,0,1,0,2.847,2.847A2.847,2.847,0,0,0,315.347,200Zm0,3.8a.949.949,0,1,1,.949-.949A.949.949,0,0,1,315.347,203.8Zm0,0" transform="translate(-274.986 -176.273)" fill="#4797ff"/><path d="M200.11,80.953l1.439,1.44,1.342-1.342-1.439-1.44a3.72,3.72,0,0,0,.4-.967h2.033v-1.9h-2.033a3.72,3.72,0,0,0-.4-.967l1.439-1.44L201.549,73l-1.439,1.44a3.719,3.719,0,0,0-.967-.4V72h-1.9v2.033a3.719,3.719,0,0,0-.967.4L194.839,73,193.5,74.339l1.439,1.44a3.719,3.719,0,0,0-.4.967H192.5v1.9h2.033a3.719,3.719,0,0,0,.4.967l-1.439,1.44,1.342,1.342,1.439-1.44a3.72,3.72,0,0,0,.967.4v2.033h1.9V81.356A3.719,3.719,0,0,0,200.11,80.953ZM196.3,77.695a1.9,1.9,0,1,1,1.9,1.9A1.9,1.9,0,0,1,196.3,77.695Zm0,0" transform="translate(-169.222 -63.458)" fill="#4797ff"/><path d="M174.195,418.847a2.847,2.847,0,1,0-2.847,2.847A2.847,2.847,0,0,0,174.195,418.847Zm-2.847.949a.949.949,0,1,1,.949-.949A.949.949,0,0,1,171.347,419.8Zm0,0" transform="translate(-148.069 -366.647)" fill="#4797ff"/><path d="M176.5,24h3.8v1.9h-3.8Zm0,0" transform="translate(-155.12 -21.153)" fill="#4797ff"/></g></svg>