<svg xmlns="http://www.w3.org/2000/svg" width="56" height="45.87" viewBox="0 0 56 45.87"><g transform="translate(0 0)"><path d="M168,32h2.354v2.354H168Zm0,0" transform="translate(-149.224 -27.292)" fill="#fff"/><path d="M68.523,70.176l1.665-1.664,1.664,1.664L70.188,71.84Zm0,0" transform="translate(-58.442 -59.663)" fill="#fff"/><path d="M32,168h2.354v2.354H32Zm0,0" transform="translate(-27.292 -146.242)" fill="#fff"/><path d="M68.512,262.528l1.664-1.665,1.665,1.664-1.664,1.665Zm0,0" transform="translate(-58.432 -227.172)" fill="#fff"/><path d="M168,304h2.354v2.354H168Zm0,0" transform="translate(-149.224 -265.192)" fill="#fff"/><path d="M29.6,43.784H22.181l-.67-3.563-.734-.172a21.359,21.359,0,0,1-4.929-1.806l-.658-.34L11.873,40,6.625,35.355l2.369-2.938-.383-.583a16.559,16.559,0,0,1-2.04-4.367l-.194-.652-4.024-.595V19.648l4.023-.594.194-.652a16.6,16.6,0,0,1,2.04-4.367l.383-.583L6.624,10.515l5.248-4.647,3.316,2.1.658-.34a21.4,21.4,0,0,1,4.929-1.806l.734-.172.672-3.564H29.6l.545,2.9,2.322-.343L31.6,0H20.188l-.749,3.99a23.8,23.8,0,0,0-4.107,1.5L11.619,3.145,3.551,10.291,6.2,13.58a18.473,18.473,0,0,0-1.7,3.638L0,17.881V27.988l4.5.665A18.539,18.539,0,0,0,6.2,32.29L3.549,35.579l8.068,7.146,3.713-2.349a23.778,23.778,0,0,0,4.107,1.5l.751,3.989H31.6l.873-4.641-2.322-.343Zm0,0" fill="#fff"/><path d="M100.946,88a12.946,12.946,0,1,0,12.946,12.946A12.962,12.962,0,0,0,100.946,88Zm7.737,5.736a13.221,13.221,0,0,1-2.729,1.511,30.721,30.721,0,0,0-1.614-4.324,10.588,10.588,0,0,1,4.342,2.813Zm-4.207,7.21a11.965,11.965,0,0,1-.334,2.684,15.655,15.655,0,0,0-6.478.017,15.98,15.98,0,0,1-.249-2.7,11.965,11.965,0,0,1,.334-2.684,15.655,15.655,0,0,0,6.478-.017A15.98,15.98,0,0,1,104.477,100.946Zm-4.061,10.509a29.681,29.681,0,0,1-2.229-5.508,12.991,12.991,0,0,1,5.26-.047A26.054,26.054,0,0,1,100.417,111.456Zm.53-15.217a13.026,13.026,0,0,1-2.5-.246,26.114,26.114,0,0,1,3.03-5.555,29.648,29.648,0,0,1,2.229,5.508A13.089,13.089,0,0,1,100.946,96.239ZM98.5,90.649a26.7,26.7,0,0,0-2.331,4.688,13.368,13.368,0,0,1-2.965-1.6A10.586,10.586,0,0,1,98.5,90.649Zm-6.7,4.98A15.512,15.512,0,0,0,95.482,97.6a14.491,14.491,0,0,0-.42,3.346,18.736,18.736,0,0,0,.326,3.383,15.478,15.478,0,0,0-3.587,1.936,10.5,10.5,0,0,1,0-10.636Zm1.409,12.527a13.22,13.22,0,0,1,2.729-1.511,30.72,30.72,0,0,0,1.614,4.324,10.588,10.588,0,0,1-4.342-2.813Zm10.18,3.087a26.625,26.625,0,0,0,2.33-4.688,13.368,13.368,0,0,1,2.965,1.6,10.573,10.573,0,0,1-5.3,3.087Zm6.7-4.98a15.512,15.512,0,0,0-3.681-1.972,14.49,14.49,0,0,0,.42-3.346,18.735,18.735,0,0,0-.326-3.383,15.477,15.477,0,0,0,3.587-1.936,10.5,10.5,0,0,1,0,10.636Zm0,0" transform="translate(-79.72 -78.012)" fill="#fff"/><path d="M416,56h2.354v2.354H416Zm0,0" transform="translate(-371.769 -48.748)" fill="#fff"/><path d="M416,280h2.354v2.354H416Zm0,0" transform="translate(-371.769 -243.737)" fill="#fff"/><path d="M90.216,75.773a2.261,2.261,0,0,1,2.109-1.158h11.93V72.656H92.325A4.646,4.646,0,0,0,88.007,75.1c-2.206,4.987-7.973,8.336-14.353,8.336a17.2,17.2,0,0,1-9.639-2.858c-.034-.023-.071-.044-.1-.067-.291-.2-.565-.416-.837-.633-.1-.078-.2-.154-.3-.235-.245-.206-.474-.423-.7-.642-.1-.1-.2-.191-.3-.289-.229-.234-.443-.477-.651-.724-.074-.088-.151-.176-.222-.265-.21-.263-.405-.534-.592-.809-.055-.082-.113-.165-.166-.248-.179-.28-.344-.567-.5-.859-.048-.092-.1-.185-.144-.278-.139-.28-.263-.566-.378-.856-.047-.12-.094-.24-.136-.362-.094-.266-.176-.535-.249-.808-.043-.157-.083-.315-.118-.474-.054-.242-.1-.488-.136-.735-.028-.194-.053-.388-.072-.583-.021-.224-.034-.45-.041-.677s-.007-.431,0-.647c.007-.233.02-.465.042-.7.017-.171.034-.34.058-.509.035-.242.081-.482.132-.72.036-.165.068-.33.112-.492.06-.227.134-.45.208-.672.057-.169.109-.34.173-.507.076-.2.168-.388.256-.58s.16-.369.253-.548c.067-.129.148-.253.22-.38a12.585,12.585,0,0,1,1.645-2.258c.09-.1.172-.2.265-.294.178-.184.368-.359.559-.534.126-.115.248-.234.379-.347.178-.153.365-.3.552-.443.161-.125.324-.252.492-.373s.351-.241.529-.357c.2-.133.407-.262.618-.385.161-.1.325-.186.49-.276q.372-.2.761-.385c.142-.068.284-.135.43-.2.3-.133.609-.255.922-.37.116-.043.233-.089.351-.131.361-.124.73-.235,1.1-.337.082-.022.163-.048.246-.07.434-.111.878-.206,1.328-.285.032-.006.063-.013.094-.018a18.379,18.379,0,0,1,2.926-.252c6.4-.034,12.234,3.253,14.484,8.31a4.644,4.644,0,0,0,4.308,2.462h11.947V66.777H92.308a2.263,2.263,0,0,1-2.1-1.183,15.758,15.758,0,0,0-7.8-7.635h24.2V56H73.654c-.052,0-.1.006-.152.007-.543,0-1.086.022-1.635.068-.586.048-1.161.125-1.73.22-.083.014-.163.034-.245.049-.47.085-.933.182-1.388.3-.136.034-.267.077-.4.114-.388.108-.772.221-1.148.351-.174.06-.344.126-.514.191-.32.12-.637.245-.947.38-.2.089-.4.183-.6.278-.259.124-.514.253-.767.388-.225.121-.446.246-.665.374s-.408.249-.607.378c-.239.155-.476.311-.705.476-.159.115-.312.233-.465.352-.248.191-.494.384-.729.587-.113.1-.22.2-.33.3-.255.232-.507.465-.744.711-.06.063-.115.13-.174.194a14.46,14.46,0,0,0-2.119,2.92c-.044.079-.094.156-.137.235-.12.23-.22.469-.326.705-.09.2-.185.4-.264.6s-.144.412-.211.619c-.083.247-.164.493-.231.744-.051.192-.091.387-.132.581-.059.272-.112.546-.152.823-.028.194-.047.389-.066.585-.014.148-.041.294-.051.443-.007.124,0,.246,0,.37S56,70.577,56,70.7s.019.252.024.379c.008.267.024.534.048.8q.032.329.08.653c.044.291.1.58.159.867q.059.266.13.527c.086.321.183.636.294.95.048.134.1.267.151.4.133.339.279.673.441,1,.052.1.106.207.16.31.179.339.37.673.58,1,.06.094.125.187.187.279.215.32.441.633.686.94.081.1.168.2.252.3.241.285.488.567.755.84.109.111.226.219.339.327.194.188.376.383.584.564.075.066.157.121.234.185.107.09.221.174.332.263.318.255.638.505.974.738.037.025.077.048.113.073a19.752,19.752,0,0,0,11.13,3.3h32.954V83.433H82.416a15.81,15.81,0,0,0,7.8-7.659Zm0,0" transform="translate(-50.609 -47.762)" fill="#fff"/><path d="M400,144h2.354v2.354H400Zm0,0" transform="translate(-358.123 -125.351)" fill="#fff"/><path d="M400,192h2.354v2.354H400Zm0,0" transform="translate(-358.123 -167.134)" fill="#fff"/><path d="M304,88h23.539v2.354H304Zm0,0" transform="translate(-276.247 -76.603)" fill="#fff"/><path d="M480,88h2.354v2.354H480Zm0,0" transform="translate(-426.354 -76.603)" fill="#fff"/><path d="M304,248h23.539v2.354H304Zm0,0" transform="translate(-276.247 -215.882)" fill="#fff"/><path d="M480,248h2.354v2.354H480Zm0,0" transform="translate(-426.354 -215.882)" fill="#fff"/></g></svg>