<svg xmlns="http://www.w3.org/2000/svg" width="51.725" height="51.725" viewBox="0 0 51.725 51.725"><g transform="translate(0)"><path d="M10.431,229.626a.758.758,0,0,0-.758-.758A8.152,8.152,0,0,1,6.3,213.294a.758.758,0,1,0-.627-1.379,9.667,9.667,0,0,0,4,18.47A.758.758,0,0,0,10.431,229.626Z" transform="translate(0 -190.444)" fill="#fff"/><path d="M79.137,23.354a12.816,12.816,0,0,1,23.928-3.725.758.758,0,1,0,1.338-.711,14.411,14.411,0,0,0-1.468-2.235V6.583L104.768,4.4a2.274,2.274,0,1,0-1.161-.974L101.6,5.82a.758.758,0,0,0-.177.487v8.755a14.292,14.292,0,0,0-4.561-2.814V6.959a2.273,2.273,0,1,0-1.515,0v4.806a14.451,14.451,0,0,0-5.452-.337V4.412a2.273,2.273,0,1,0-1.515,0v7.295a14.3,14.3,0,0,0-5.452,2.629V6.959a2.273,2.273,0,1,0-1.515,0V15.7a14.239,14.239,0,0,0-3.516,6.264A9.584,9.584,0,0,0,76.8,21.4V6.307a.758.758,0,0,0-.177-.487l-2.01-2.395A2.272,2.272,0,1,0,73.45,4.4l1.833,2.184V20.889a9.737,9.737,0,0,0-2.34-.282.758.758,0,0,0,0,1.515,8.082,8.082,0,0,1,4.984,1.7.758.758,0,0,0,1.209-.466ZM105.564,1.515a.756.756,0,1,1-.758.756A.757.757,0,0,1,105.564,1.515ZM96.1,4.062a.756.756,0,1,1-.758.756A.758.758,0,0,1,96.1,4.062ZM89.133,1.515a.756.756,0,1,1-.758.756.757.757,0,0,1,.758-.756ZM82.166,4.062a.756.756,0,1,1-.758.756A.758.758,0,0,1,82.166,4.062ZM71.9,2.271a.758.758,0,1,1,.758.756A.757.757,0,0,1,71.9,2.271Z" transform="translate(-63.271)" fill="#fff"/><path d="M408.734,219.539a7.309,7.309,0,0,0-1.629.182,14.381,14.381,0,0,0-.362-3.126.758.758,0,1,0-1.477.339,12.866,12.866,0,0,1,.324,2.875c0,.3-.011.6-.031.9a.758.758,0,0,0,1.036.756,5.779,5.779,0,1,1,2.139,11.147h-2.485a.758.758,0,0,0,0,1.515h2.485a7.293,7.293,0,1,0,0-14.586Z" transform="translate(-364.306 -194.185)" fill="#fff"/><path d="M286.295,380.343h-7.022a.758.758,0,1,0,0,1.515h3.178v7.373a2.273,2.273,0,1,0,1.515,0v-7.373h2.329a.758.758,0,1,0,0-1.515Zm-3.087,11.785a.756.756,0,1,1,.758-.756A.757.757,0,0,1,283.208,392.128Z" transform="translate(-250.378 -341.919)" fill="#fff"/><path d="M157.825,380.343h-6.9a.758.758,0,1,0,0,1.515h2.209v7.373a2.273,2.273,0,1,0,1.515,0v-7.373h3.175a.758.758,0,1,0,0-1.515Zm-3.933,11.785a.756.756,0,1,1,.758-.756A.757.757,0,0,1,153.892,392.128Z" transform="translate(-134.997 -341.919)" fill="#fff"/><path d="M90,315.637a2.271,2.271,0,0,0-.758,4.412v10.356l-3.21,3.824a.758.758,0,1,0,1.161.974l3.387-4.036a.758.758,0,0,0,.177-.487V320.049A2.271,2.271,0,0,0,90,315.637Zm0,3.027a.756.756,0,1,1,.758-.756A.757.757,0,0,1,90,318.664Z" transform="translate(-77.182 -283.75)" fill="#fff"/><path d="M235.773,315.637a2.271,2.271,0,0,0-.758,4.412v14.668a.758.758,0,0,0,1.515,0V320.049a2.271,2.271,0,0,0-.758-4.412Zm0,3.027a.756.756,0,1,1,.758-.756A.757.757,0,0,1,235.773,318.664Z" transform="translate(-209.91 -283.75)" fill="#fff"/><path d="M365.65,330.405V320.049a2.273,2.273,0,1,0-1.515,0v10.632a.758.758,0,0,0,.177.487L367.7,335.2a.758.758,0,1,0,1.161-.974Zm-.758-13.253a.756.756,0,1,1-.758.756A.758.758,0,0,1,364.892,317.152Z" transform="translate(-325.985 -283.75)" fill="#fff"/></g></svg>