<svg xmlns="http://www.w3.org/2000/svg" width="53.742" height="56.616" viewBox="0 0 53.742 56.616"><g transform="translate(-0.522)"><g transform="translate(0.522)"><path d="M1.746,29.694l8.663,5.974V52.841a3.774,3.774,0,0,0,3.774,3.774H40.6a3.774,3.774,0,0,0,3.774-3.774V35.668l8.662-5.974a2.831,2.831,0,0,0,0-4.661l-8.662-5.972V3.774A3.774,3.774,0,0,0,40.6,0H14.183a3.774,3.774,0,0,0-3.774,3.774V19.061L1.746,25.034a2.831,2.831,0,0,0,0,4.66Zm42.632-8.342,7.591,5.236a.944.944,0,0,1,0,1.553l-7.591,5.235ZM34.651,1.887,33.44,3.178a1.887,1.887,0,0,1-1.376.6H22.723a1.893,1.893,0,0,1-1.377-.6l-1.21-1.291ZM12.3,20.05l.369-.255a.944.944,0,0,0-.369-1.705V3.774a1.887,1.887,0,0,1,1.887-1.887h3.366l2.42,2.582a3.79,3.79,0,0,0,2.753,1.193h9.342a3.785,3.785,0,0,0,2.753-1.193l2.42-2.582H40.6a1.887,1.887,0,0,1,1.887,1.887V18.091a.944.944,0,0,0-.369,1.705l.369.255V34.676L27.929,44.721a.944.944,0,0,1-1.071,0L12.3,34.678Zm0,16.92,13.493,9.3a2.847,2.847,0,0,0,3.215,0l13.487-9.3V48.123A1.887,1.887,0,0,1,40.6,50.01H14.183A1.887,1.887,0,0,1,12.3,48.123Zm0,14.4a3.736,3.736,0,0,0,1.887.525H40.6a3.736,3.736,0,0,0,1.887-.525v1.468A1.887,1.887,0,0,1,40.6,54.728H14.183A1.887,1.887,0,0,1,12.3,52.841ZM2.818,26.588l7.591-5.238V33.377L2.817,28.141a.944.944,0,0,1,0-1.553Z" transform="translate(-0.522)" fill="#3aaed5"/><path d="M22.365,14.351a.944.944,0,0,0,.534-.167l1.811-1.249a.944.944,0,1,0-1.071-1.553l-1.81,1.248a.944.944,0,0,0,.536,1.721Z" transform="translate(-1.701 -0.632)" fill="#3aaed5"/><path d="M17.882,15.353,16.076,16.6a.944.944,0,0,0,1.07,1.554l1.811-1.249a.944.944,0,0,0-1.07-1.554Z" transform="translate(-1.378 -0.857)" fill="#3aaed5"/><path d="M28.657,10.256l.242-.166.242.166A.944.944,0,0,0,30.211,8.7l-.778-.536a.944.944,0,0,0-1.07,0l-.778.536a.944.944,0,0,0,1.071,1.553Z" transform="translate(-2.027 -0.451)" fill="#3aaed5"/><path d="M34.879,14.182a.944.944,0,0,0,1.07-1.554L34.138,11.38a.944.944,0,1,0-1.065,1.553Z" transform="translate(-2.332 -0.631)" fill="#3aaed5"/><path d="M40.639,18.156A.944.944,0,0,0,41.71,16.6L39.9,15.353a.944.944,0,0,0-1.07,1.554Z" transform="translate(-2.661 -0.857)" fill="#3aaed5"/><path d="M28.492,33.815a.944.944,0,0,0,.5-.143l7.549-4.718a.944.944,0,0,0,.443-.8V19.662a.944.944,0,0,0-.443-.8l-7.549-4.718a.944.944,0,0,0-1,0l-7.549,4.718a.944.944,0,0,0-.443.8v8.492a.944.944,0,0,0,.443.8l7.549,4.718A.944.944,0,0,0,28.492,33.815ZM35.1,27.631l-5.662,3.542V24.9L35.1,21.365ZM28.492,16.056l5.768,3.605-5.768,3.605-5.768-3.605Zm-.944,15.117-5.662-3.538v-6.27L27.549,24.9Z" transform="translate(-1.621 -0.79)" fill="#3aaed5"/></g></g></svg>