<svg xmlns="http://www.w3.org/2000/svg" width="57.806" height="66.215" viewBox="0 0 57.806 66.215"><g transform="translate(0)"><path d="M58.027,241.936a1.939,1.939,0,0,0-1.66-.937,16.386,16.386,0,0,0-13.96,7.76H19.4a9.634,9.634,0,0,0-6.858,2.841L1.069,263.073a1.941,1.941,0,0,0,0,2.744c4.711,4.711,9.655,9.619,9.7,9.667a1.94,1.94,0,0,0,2.735,0l7.358-7.324H37.118a13.536,13.536,0,0,0,12.027-7.276c.059-.113,5.935-11.326,8.939-17.04a1.939,1.939,0,0,0-.057-1.906ZM45.708,259.082a9.667,9.667,0,0,1-8.591,5.2H20.066a1.939,1.939,0,0,0-1.369.565l-6.559,6.528c-1.545-1.536-4.2-4.181-6.954-6.927l10.1-10.1a5.782,5.782,0,0,1,4.115-1.7H40.324l-1.489,2.841a1.934,1.934,0,0,1-1.718,1.039H23.945a1.94,1.94,0,1,0,0,3.88H37.118a5.8,5.8,0,0,0,5.155-3.118l2.994-5.714a12.518,12.518,0,0,1,7.636-6.2c-3.1,5.9-7.145,13.625-7.194,13.719Zm0,0" transform="translate(-0.501 -209.832)" fill="#4797ff"/><path d="M123.725,35.047H147a1.94,1.94,0,0,0,1.94-1.94V9.7A1.94,1.94,0,0,0,147,7.76h-5.82V5.82a5.82,5.82,0,1,0-11.639,0V7.76h-5.82a1.94,1.94,0,0,0-1.94,1.94V33.107A1.94,1.94,0,0,0,123.725,35.047Zm9.7-29.228a1.94,1.94,0,0,1,3.88,0V7.76h-3.88Zm-7.76,5.82h3.88v1.94a1.94,1.94,0,0,0,3.88,0v-1.94h3.88v1.94a1.94,1.94,0,1,0,3.88,0v-1.94h3.88V31.167h-19.4Zm0,0" transform="translate(-106.1)" fill="#4797ff"/></g></svg>