<svg xmlns="http://www.w3.org/2000/svg" width="129.043" height="135.051" viewBox="0 0 129.043 135.051"><g transform="translate(-1 -2)"><g transform="translate(1 2)"><g transform="translate(0 8.94)"><path d="M65.521,131.16a2.922,2.922,0,0,1-1.261-.284L2.672,101.548A2.934,2.934,0,0,1,1,98.9V7.983A2.932,2.932,0,0,1,5.194,5.334L65.521,34.061l60.328-28.73a2.936,2.936,0,0,1,4.194,2.651V98.9a2.934,2.934,0,0,1-1.672,2.648L66.783,130.876A2.922,2.922,0,0,1,65.521,131.16ZM6.866,97.046l58.656,27.932,58.656-27.932V12.628L66.783,39.959a2.938,2.938,0,0,1-2.519,0L6.866,12.628Z" transform="translate(-1 -5.049)" fill="#232323"/></g><g transform="translate(11.722)"><path d="M57.8,31.926,6.669,7.581a2.935,2.935,0,0,1,2.522-5.3L57.8,25.43,106.4,2.281a2.935,2.935,0,0,1,2.522,5.3Z" transform="translate(-4.997 -2)" fill="#232323"/></g><g transform="translate(61.589 41.202)"><rect width="5.866" height="90.917" fill="#232323"/></g></g></g></svg>