<svg xmlns="http://www.w3.org/2000/svg" width="25.685" height="19.264" viewBox="0 0 25.685 19.264"><g transform="translate(25.685 19.264) rotate(180)"><g transform="translate(0 0)"><g transform="translate(0 0)"><path d="M25.275,8.732,16,.37a1.521,1.521,0,0,0-1.988,0l-.842.759a1.2,1.2,0,0,0-.41.9,1.221,1.221,0,0,0,.41.907L18.58,7.821H1.388A1.31,1.31,0,0,0,0,9.067v1.074a1.354,1.354,0,0,0,1.388,1.3H18.641l-5.473,4.916a1.17,1.17,0,0,0,0,1.78l.842.757a1.522,1.522,0,0,0,1.988,0l9.276-8.362a1.191,1.191,0,0,0,0-1.8Z" fill="#fff"/></g></g></g></svg>