<svg xmlns="http://www.w3.org/2000/svg" width="60.206" height="42.92" viewBox="0 0 60.206 42.92"><g transform="translate(0 -73.5)"><g transform="translate(0 73.5)"><path d="M46.095,78.2a14.02,14.02,0,0,0-4.6.768,11.749,11.749,0,0,0-14.619-2.028A14.115,14.115,0,0,0,3.859,90.663a11.757,11.757,0,0,0,7.462,20.458,14.107,14.107,0,0,0,22.3-.336,11.766,11.766,0,0,0,12.237-4.361l.233,0a14.111,14.111,0,0,0,0-28.221Zm0,24.694c-.316,0-.643-.015-.971-.045l-1.087-.1-.573.929a8.233,8.233,0,0,1-9.935,3.381l-1.372-.522-.762,1.255a10.585,10.585,0,0,1-17.744.549l-.555-.8-.97.042c-.151.007-.264.01-.365.01A8.23,8.23,0,0,1,6.9,92.729l1.017-.746-.377-1.2A10.584,10.584,0,0,1,25.4,80.414l1.115,1.2,1.28-1.023a8.227,8.227,0,0,1,11.754,1.54l.851,1.15,1.3-.6a10.584,10.584,0,1,1,4.4,20.212Z" transform="translate(0 -73.5)" fill="#3aaed5"/></g></g></svg>