<svg xmlns="http://www.w3.org/2000/svg" width="67.256" height="49.559" viewBox="0 0 67.256 49.559"><g transform="translate(0 -26.314)"><path d="M75.22,103.44a3.171,3.171,0,0,0-1.029-1.684,3.769,3.769,0,0,0-1.9-.86L61.171,98.745l3.216,2.134L59.31,116.794l-2.859-11.821-2.86,11.821L48.516,100.88l3.215-2.134L40.615,100.9a3.77,3.77,0,0,0-1.9.86,3.166,3.166,0,0,0-1.029,1.684l-3.3,14.476,6.217,2.157c2.064,2.145,7.841,3.724,14.77,3.874h2.155c6.929-.15,12.706-1.729,14.77-3.874l6.217-2.157Z" transform="translate(-22.823 -48.074)" fill="#242424"/><path d="M94.943,103.551l-2.562.917,2.562,3.694,2.563-3.694Z" transform="translate(-61.315 -51.263)" fill="#242424"/><path d="M89.109,38.033c0-6.57-2.7-11.719-9.513-11.719s-9.512,5.149-9.512,11.719c-.712.372-1.18,1.244-.481,3.112a5.136,5.136,0,0,0,1.5,2.136c1.941,4.832,5.757,8.562,8.491,8.562s6.55-3.73,8.49-8.562a5.142,5.142,0,0,0,1.5-2.136C90.288,39.276,89.821,38.4,89.109,38.033Z" transform="translate(-45.968)" fill="#242424"/><path d="M10.746,82.907c-3.173-.375-5.674-1.232-6.715-2.314L0,79.194l2.137-9.385A2.054,2.054,0,0,1,2.8,68.717a2.442,2.442,0,0,1,1.235-.558l7.807-1.788a11.615,11.615,0,0,1-3.044-4.4,3.325,3.325,0,0,1-.975-1.385c-.454-1.211-.151-1.776.311-2.018,0-4.259,1.751-7.6,6.167-7.6h0c4.415,0,6.167,3.338,6.167,7.6.462.241.765.807.312,2.018a3.328,3.328,0,0,1-.975,1.385,11.624,11.624,0,0,1-3.044,4.4l3.452.791-2.687.52A5.281,5.281,0,0,0,14.883,68.9a4.7,4.7,0,0,0-1.515,2.5Zm54.374-13.1a2.058,2.058,0,0,0-.668-1.092,2.437,2.437,0,0,0-1.235-.558l-7.806-1.788a11.627,11.627,0,0,0,3.045-4.4,3.321,3.321,0,0,0,.974-1.385c.454-1.211.151-1.776-.311-2.018,0-4.259-1.753-7.6-6.168-7.6h0c-4.415,0-6.168,3.338-6.168,7.6-.461.241-.765.807-.311,2.018a3.318,3.318,0,0,0,.974,1.385,11.629,11.629,0,0,0,3.045,4.4l-3.453.791,2.687.52a5.281,5.281,0,0,1,2.642,1.209,4.706,4.706,0,0,1,1.521,2.5l2.622,11.516c3.173-.375,5.674-1.232,6.716-2.314l4.031-1.4Z" transform="translate(0 -16.366)" fill="#242424"/></g></svg>