<svg xmlns="http://www.w3.org/2000/svg" width="51" height="47.813" viewBox="0 0 51 47.813"><path d="M41.932,32.715c0-.093,0-.186,0-.28a16.436,16.436,0,0,0-32.871,0c0,.094,0,.187,0,.28A16.442,16.442,0,1,0,25.5,61.145a16.339,16.339,0,0,0,8.965,2.667,16.417,16.417,0,0,0,7.467-31.1ZM25.5,57.391a13.422,13.422,0,0,1-4.453-9.133,16.472,16.472,0,0,0,8.906,0A13.422,13.422,0,0,1,25.5,57.391Zm0-11.508a13.392,13.392,0,0,1-4.3-.706,13.44,13.44,0,0,1,4.3-7.814,13.44,13.44,0,0,1,4.3,7.814A13.392,13.392,0,0,1,25.5,45.883Zm-7.09-2.026a13.476,13.476,0,0,1-6.178-9.231,13.582,13.582,0,0,1,4.3-.7,13.363,13.363,0,0,1,6.48,1.668A16.429,16.429,0,0,0,18.41,43.857ZM27.984,35.6a13.363,13.363,0,0,1,6.48-1.668,13.582,13.582,0,0,1,4.3.7,13.476,13.476,0,0,1-6.178,9.231A16.429,16.429,0,0,0,27.984,35.6ZM25.5,18.988A13.464,13.464,0,0,1,38.917,31.547a16.586,16.586,0,0,0-4.452-.606A16.338,16.338,0,0,0,25.5,33.609a16.338,16.338,0,0,0-8.965-2.667,16.586,16.586,0,0,0-4.452.606A13.464,13.464,0,0,1,25.5,18.988ZM16.535,60.824a13.426,13.426,0,0,1-7.1-24.9,16.5,16.5,0,0,0,8.594,11.148c0,.1,0,.2,0,.3a16.387,16.387,0,0,0,4.986,11.779A13.363,13.363,0,0,1,16.535,60.824Zm17.93,0a13.363,13.363,0,0,1-6.48-1.668,16.387,16.387,0,0,0,4.986-11.779c0-.1,0-.2,0-.3a16.5,16.5,0,0,0,8.594-11.148,13.426,13.426,0,0,1-7.1,24.9Z" transform="translate(0 -16)" fill="#fff"/></svg>