<svg xmlns="http://www.w3.org/2000/svg" width="63.413" height="60.831" viewBox="0 0 63.413 60.831"><g transform="translate(-35.974 -44.932)"><path d="M60.755,52.675a10.933,10.933,0,0,0,3.511-3.762,8.082,8.082,0,0,0,2.315,2.723,13.917,13.917,0,0,0-2.2,3.27q-.124-.241-.269-.489a.976.976,0,1,0-1.686.985,8.7,8.7,0,0,1,1.025,2.665.976.976,0,0,0,.953.826h.012a.977.977,0,0,0,.961-.8A11.366,11.366,0,0,1,68.79,52.18a.976.976,0,0,0-.223-1.632c-2.754-1.265-3.4-4.771-3.4-4.8a.976.976,0,0,0-1.934.069c-.308,3.174-3.47,5.181-3.5,5.2a.976.976,0,0,0,1.027,1.66Z" transform="translate(-19.935 0)" fill="#3aaed5"/><path d="M249.977,225.5a.976.976,0,0,0-.976.976v3.571a.976.976,0,0,0,1.952,0V226.48A.976.976,0,0,0,249.977,225.5Z" transform="translate(-182.329 -154.551)" fill="#3aaed5"/><path d="M98.858,174.422,88.8,169.24a.978.978,0,0,0-.083-.052l-8.451-4.5a.976.976,0,0,0-.918,1.723l6.881,3.666L67.695,180.657,49.186,170.08l6.891-3.671a.976.976,0,0,0-.918-1.723l-8.31,4.428a.975.975,0,0,0-.214,1.784l19.1,10.9-8.147,4.355-18.6-10.815,4.581-2.361a.976.976,0,1,0-.895-1.735L36.5,174.422a.976.976,0,0,0-.043,1.712l20.615,11.984a.976.976,0,0,0,.951.017l8.646-4.622v21.917l-18.53-10.59v-8.288a.976.976,0,0,0-1.952,0v8.854a.976.976,0,0,0,.492.848L66.9,207.807a.965.965,0,0,0,.751.355c.022,0,.043,0,.065,0s.043,0,.065,0a.965.965,0,0,0,.751-.355l20.216-11.553a.976.976,0,0,0,.492-.848v-8.725a.976.976,0,1,0-1.952,0v8.159l-18.53,10.59V182.322l19.522-11.156,8.1,4.176-18.6,10.815-4.677-2.5a.976.976,0,0,0-.921,1.722l5.157,2.757a.977.977,0,0,0,.951-.017L98.9,176.134a.976.976,0,0,0-.043-1.712Z" transform="translate(0 -102.398)" fill="#3aaed5"/><path d="M142.425,59.234c.005.031.013.061.022.092s.016.059.026.088.025.058.039.087.027.056.043.082.034.049.052.073a.973.973,0,0,0,.065.081c.007.008.012.017.02.025l15.363,15.462h0l.018.016a.975.975,0,0,0,.125.1l.009.007a.969.969,0,0,0,.15.08l.019.009,0,0c.01,0,.02.005.029.009a.966.966,0,0,0,.117.035l.031.009.022,0a.97.97,0,0,0,.165.016h0a.969.969,0,0,0,.165-.016l.022,0,.032-.009a.986.986,0,0,0,.116-.035c.01,0,.02,0,.03-.009l0,0,.019-.009a.965.965,0,0,0,.149-.08l0,0,0,0,0,0a1,1,0,0,0,.123-.1l.018-.016h0L174.8,59.76c.008-.008.013-.017.02-.024a.92.92,0,0,0,.066-.081c.018-.024.036-.048.052-.073s.03-.055.044-.083a.925.925,0,0,0,.039-.086c.011-.029.018-.058.027-.088s.016-.06.021-.091.007-.062.009-.093,0-.063,0-.1,0-.059-.008-.088a.922.922,0,0,0-.017-.1c0-.012,0-.024-.006-.036s-.012-.029-.017-.045a.921.921,0,0,0-.039-.1c-.012-.028-.026-.054-.041-.08a.941.941,0,0,0-.114-.16c-.011-.013-.019-.027-.031-.039l-6.484-6.684a.977.977,0,0,0-.7-.3H149.869a.977.977,0,0,0-.7.3l-6.484,6.684c-.012.012-.019.026-.03.038a.936.936,0,0,0-.064.08c-.018.026-.035.052-.051.079s-.029.054-.042.082a.97.97,0,0,0-.038.1c-.005.016-.013.03-.017.046s0,.024-.006.036a.977.977,0,0,0-.017.1c0,.03-.007.059-.008.089s0,.063,0,.1S142.42,59.2,142.425,59.234Zm16.323,12.7-3.542-8.742h7.083Zm-8.465-18.57h16.93l5.044,5.2-4.965,1.347L164.6,54.79a.976.976,0,0,0-1.729.907l3.053,5.815a.977.977,0,0,0,1.12.488l3.8-1.032-9.377,9.438,3.17-7.824a.976.976,0,0,0-.9-1.343h-9.981a.976.976,0,0,0-.9,1.343l3.169,7.824-9.377-9.438,3.8,1.032a.977.977,0,0,0,1.12-.488l3.053-5.815a.976.976,0,0,0-1.729-.907L150.2,59.911l-4.965-1.347Z" transform="translate(-91.1 -5.546)" fill="#3aaed5"/><path d="M378.454,99.161a10.931,10.931,0,0,0,3.511-3.762,8.081,8.081,0,0,0,2.315,2.723,13.921,13.921,0,0,0-2.2,3.27q-.125-.241-.269-.489a.976.976,0,1,0-1.686.985,8.7,8.7,0,0,1,1.025,2.665.976.976,0,0,0,.952.826h.012a.976.976,0,0,0,.96-.8,11.367,11.367,0,0,1,3.409-5.909.976.976,0,0,0-.223-1.632c-2.754-1.265-3.4-4.771-3.4-4.8a.976.976,0,0,0-1.934.069c-.308,3.174-3.47,5.181-3.5,5.2a.976.976,0,0,0,1.027,1.66Z" transform="translate(-291.853 -39.787)" fill="#3aaed5"/></g></svg>