<svg xmlns="http://www.w3.org/2000/svg" width="53.404" height="63.294" viewBox="0 0 53.404 63.294"><path d="M91.88,10.249,67.65.189a2.472,2.472,0,0,0-1.9,0l-24.23,10.06A2.473,2.473,0,0,0,40,12.532V24.762A41.4,41.4,0,0,0,65.768,63.111a2.473,2.473,0,0,0,1.869,0A41.4,41.4,0,0,0,93.4,24.762V12.532A2.472,2.472,0,0,0,91.88,10.249ZM88.46,24.762A36.468,36.468,0,0,1,66.7,58.136,36.469,36.469,0,0,1,44.945,24.762V14.183L66.7,5.15,88.46,14.183ZM63.969,33.1,74.6,22.469a2.472,2.472,0,1,1,3.5,3.5L65.718,38.34a2.472,2.472,0,0,1-3.5,0l-6.91-6.91a2.472,2.472,0,0,1,3.5-3.5Z" transform="translate(-40 0)" fill="#4797ff"/></svg>