<svg xmlns="http://www.w3.org/2000/svg" width="25.439" height="19.079" viewBox="0 0 25.439 19.079"><g transform="translate(0 0)"><g transform="translate(0 0)"><path d="M25.033,8.649,15.846.366a1.507,1.507,0,0,0-1.969,0l-.834.752a1.187,1.187,0,0,0-.406.888,1.209,1.209,0,0,0,.406.9L18.4,7.746H1.374A1.3,1.3,0,0,0,0,8.98v1.063a1.341,1.341,0,0,0,1.374,1.289H18.463L13.043,16.2a1.159,1.159,0,0,0,0,1.763l.834.75a1.507,1.507,0,0,0,1.969,0l9.187-8.282a1.179,1.179,0,0,0,0-1.782Z" fill="#fff"/></g></g></svg>