<svg xmlns="http://www.w3.org/2000/svg" width="52.293" height="52.279" viewBox="0 0 52.293 52.279"><g transform="translate(-0.964 -0.959)"><path d="M8.527,57a2.527,2.527,0,1,0,2.527,2.527A2.527,2.527,0,0,0,8.527,57Zm0,3.37a.842.842,0,1,1,.842-.842A.842.842,0,0,1,8.527,60.37Z" transform="translate(-0.788 -8.822)" fill="#fff"/><path d="M4.051,54.727l1.191,1.191a4.212,4.212,0,0,1,5.956,0l1.191-1.191a5.9,5.9,0,0,0-8.339,0Z" transform="translate(-0.481 -8.192)" fill="#fff"/><path d="M1.222,51.715l1.191,1.191a7.592,7.592,0,0,1,10.724,0l1.191-1.191a9.278,9.278,0,0,0-13.106,0Z" transform="translate(-0.035 -7.563)" fill="#fff"/><path d="M57.11,56.055H55.425v-3.37H53.74v3.37H52.055V54.37H50.37v1.685H48.685V51H47v6.74H57.11Z" transform="translate(-7.247 -7.877)" fill="#fff"/><path d="M50.705,21.219h-6.74a2.53,2.53,0,0,0-2.527,2.527v2.527H38.025A10.89,10.89,0,0,0,35.424,20l8.048-8.048h6.391A3.37,3.37,0,0,0,50.651,5.3a5.056,5.056,0,0,0-10,0,3.36,3.36,0,0,0,.471,6.615L34.233,18.8a10.892,10.892,0,0,0-6.274-2.6v-3.41h2.527a2.53,2.53,0,0,0,2.527-2.527V3.527A2.53,2.53,0,0,0,30.486,1h-6.74a2.53,2.53,0,0,0-2.527,2.527v6.74a2.53,2.53,0,0,0,2.527,2.527h2.527v3.413A10.89,10.89,0,0,0,20,18.809l-4.056-4.056a8.445,8.445,0,1,0-1.192,1.191L18.808,20a10.892,10.892,0,0,0-2.6,6.274H12.794V23.746a2.53,2.53,0,0,0-2.527-2.527H3.527A2.53,2.53,0,0,0,1,23.746v6.74a2.53,2.53,0,0,0,2.527,2.527h6.74a2.53,2.53,0,0,0,2.527-2.527V27.959h3.413a10.89,10.89,0,0,0,2.6,6.274L13.041,40l1.191,1.191L20,35.424a10.892,10.892,0,0,0,6.274,2.6v3.413H23.746a2.53,2.53,0,0,0-2.527,2.527V50.7a2.53,2.53,0,0,0,2.527,2.527h6.74A2.53,2.53,0,0,0,33.013,50.7v-6.74a2.53,2.53,0,0,0-2.527-2.527H27.959V38.025a10.89,10.89,0,0,0,6.274-2.6l4.361,4.361a2.522,2.522,0,0,0-2.211,2.5v8.425a2.53,2.53,0,0,0,2.527,2.527H50.705a2.53,2.53,0,0,0,2.527-2.527v-8.43a2.53,2.53,0,0,0-2.527-2.527h-9.76l-5.521-5.521a10.892,10.892,0,0,0,2.6-6.274h3.413v2.527a2.53,2.53,0,0,0,2.527,2.527H50.7a2.53,2.53,0,0,0,2.527-2.527v-6.74A2.53,2.53,0,0,0,50.7,21.219ZM31.329,7.74H22.9V6.055h8.425ZM23.746,2.685h6.74a.843.843,0,0,1,.842.842V4.37H22.9V3.527a.843.843,0,0,1,.846-.842ZM22.9,10.267V9.425h8.425v.842a.843.843,0,0,1-.842.842h-6.74a.843.843,0,0,1-.843-.842ZM3.527,22.9h6.74a.843.843,0,0,1,.842.842v.842H2.685v-.842a.843.843,0,0,1,.842-.842Zm7.582,3.37v1.685H2.685V26.274Zm-.842,5.055H3.527a.843.843,0,0,1-.842-.842v-.842H11.11v.842a.843.843,0,0,1-.843.846ZM22.9,46.493h8.425v1.685H22.9Zm7.582,5.055h-6.74a.843.843,0,0,1-.842-.842v-.842h8.425v.842a.843.843,0,0,1-.839.842Zm.842-7.582v.842H22.9v-.842a.843.843,0,0,1,.842-.842h6.74a.843.843,0,0,1,.847.842Zm-4.212-7.582c-.906,0-1.87-1.286-2.535-3.37h5.071c-.666,2.083-1.63,3.37-2.536,3.37Zm-2.965-5.055a20.891,20.891,0,0,1-.388-3.37h6.7a20.986,20.986,0,0,1-.388,3.37Zm-6.259-3.37H22.08a23.1,23.1,0,0,0,.345,3.37H18.873a9.167,9.167,0,0,1-.981-3.37Zm9.224-10.11c.906,0,1.87,1.286,2.535,3.37H24.581c.666-2.083,1.63-3.37,2.536-3.37ZM30.081,22.9a20.891,20.891,0,0,1,.388,3.37h-6.7a20.986,20.986,0,0,1,.388-3.37Zm-8,3.37H17.892a9.183,9.183,0,0,1,.981-3.37h3.552a22.988,22.988,0,0,0-.345,3.374Zm10.072,1.685H36.34a9.183,9.183,0,0,1-.981,3.37H31.808a22.989,22.989,0,0,0,.345-3.366Zm0-1.685a23.1,23.1,0,0,0-.345-3.37H35.36a9.2,9.2,0,0,1,.981,3.37Zm7.6-17.692A1.687,1.687,0,0,1,41.438,6.9h.842V6.055a3.37,3.37,0,0,1,6.663-.715,3.376,3.376,0,0,0-2.451,3.243h1.685a1.685,1.685,0,1,1,1.685,1.685H41.438a1.687,1.687,0,0,1-1.685-1.686ZM34.26,21.219H31.418A11.643,11.643,0,0,0,30.246,18.4a9.308,9.308,0,0,1,4.014,2.819ZM23.987,18.4a11.677,11.677,0,0,0-1.172,2.815H19.974A9.3,9.3,0,0,1,23.987,18.4ZM9.425,2.685a6.726,6.726,0,0,1,5.817,10.126,6.788,6.788,0,0,0-3.291-2.865,3.37,3.37,0,1,0-5.054,0,6.792,6.792,0,0,0-3.29,2.864A6.727,6.727,0,0,1,9.425,2.685ZM7.74,7.74A1.685,1.685,0,1,1,9.425,9.425,1.685,1.685,0,0,1,7.74,7.74ZM4.756,14.274a5.027,5.027,0,0,1,9.338,0,6.711,6.711,0,0,1-9.338,0Zm15.217,18.74h2.842a11.643,11.643,0,0,0,1.172,2.815A9.308,9.308,0,0,1,19.973,33.014Zm10.272,2.815a11.677,11.677,0,0,0,1.172-2.815h2.842a9.3,9.3,0,0,1-4.014,2.814Zm21.3,6.452v8.425a.843.843,0,0,1-.842.842H38.911a.843.843,0,0,1-.842-.842V42.281a.843.843,0,0,1,.842-.842H50.705a.843.843,0,0,1,.843.842ZM43.966,22.9h6.74a.843.843,0,0,1,.842.842v.842H43.123v-.842a.843.843,0,0,1,.843-.842Zm7.582,3.37v1.685H43.123V26.274Zm-.842,5.055h-6.74a.843.843,0,0,1-.842-.842v-.842h8.425v.842a.843.843,0,0,1-.844.846Z" fill="#fff"/></g></svg>