<svg xmlns="http://www.w3.org/2000/svg" width="57.331" height="57.335" viewBox="0 0 57.331 57.335"><g transform="translate(0 0.004)"><path d="M55.651,19.789H50.069a21.469,21.469,0,0,0-42.807,0H1.68A1.68,1.68,0,0,0,0,21.469v17.99a1.68,1.68,0,0,0,1.68,1.68h7.2a1.68,1.68,0,0,0,1.68-1.68V21.469a18.11,18.11,0,1,1,36.22,0v17.99A10.926,10.926,0,0,1,35.861,50.373H33.667a5.278,5.278,0,1,0,0,3.359h2.194A14.293,14.293,0,0,0,50.035,41.139h5.616a1.68,1.68,0,0,0,1.68-1.68V21.469a1.68,1.68,0,0,0-1.68-1.68ZM7.2,37.78H3.359V23.149H7.2ZM28.665,53.971a1.918,1.918,0,1,1,1.919-1.918,1.918,1.918,0,0,1-1.919,1.918ZM53.971,37.78H50.134V23.149h3.837Z" fill="#2bbeef"/><path d="M276.418,176.86a1.679,1.679,0,0,0-1.83.364l-7.73,7.727a6.078,6.078,0,0,0-1.757,4.255,1.68,1.68,0,0,0,1.68,1.68H274.1V194.6a1.68,1.68,0,1,0,3.359,0v-3.717h.119a1.68,1.68,0,1,0,0-3.359h-.119v-9.115a1.68,1.68,0,0,0-1.041-1.549ZM274.1,187.527h-5.042a2.647,2.647,0,0,1,.182-.2l4.86-4.857Z" transform="translate(-235.416 -156.943)" fill="#2bbeef"/><path d="M140.888,194.6a1.68,1.68,0,0,0-1.68-1.68h-6.721a2.6,2.6,0,0,1,.182-.2L140.4,185a1.68,1.68,0,0,0,.492-1.188v-.9a6.177,6.177,0,0,0-12.354,0h0a1.68,1.68,0,1,0,3.359,0,2.818,2.818,0,0,1,5.636,0v.2l-7.238,7.235a6.078,6.078,0,0,0-1.757,4.255,1.68,1.68,0,0,0,1.68,1.68h9a1.68,1.68,0,0,0,1.67-1.682Z" transform="translate(-114.142 -156.944)" fill="#2bbeef"/></g></svg>