<svg xmlns="http://www.w3.org/2000/svg" width="65.877" height="59.458" viewBox="0 0 65.877 59.458"><g transform="translate(0.003 -24.926)"><path d="M65.87,43.832c-.3-14.969-18.566-26-32.933-13.439C18.58,17.839.3,28.855,0,43.832-.106,49.319,2.219,54.6,6.728,59.11L31.575,83.822a1.931,1.931,0,0,0,2.724,0L59.146,59.11C63.655,54.6,65.98,49.319,65.87,43.832ZM32.937,79.73l-21.2-21.085H18.52a1.931,1.931,0,0,0,1.656-.937l1.482-2.469,5.531,8.69a1.932,1.932,0,0,0,3.374-.21L38.2,47.608l5.4,10.023a1.931,1.931,0,0,0,1.7,1.015h8.843ZM57.872,54.785H46.448L39.786,42.416a1.933,1.933,0,0,0-3.445.089L28.57,58.9l-5.331-8.376a1.931,1.931,0,0,0-3.285.043l-2.527,4.211H8A16.426,16.426,0,0,1,3.865,43.909C4.106,31.872,19.449,22.281,31.572,34.4a1.932,1.932,0,0,0,2.731,0C49.78,18.926,71.06,38.93,57.872,54.785Z" fill="#2bbeef"/></g></svg>