<svg xmlns="http://www.w3.org/2000/svg" width="57" height="57" viewBox="0 0 57 57"><path d="M48,160h3.677v1.839H48Zm0,0" transform="translate(-42.484 -141.613)" fill="#fff"/><path d="M54.242,14.71A2.762,2.762,0,0,0,57,11.952V2.758A2.762,2.762,0,0,0,54.242,0H41.371a2.762,2.762,0,0,0-2.758,2.758v9.194a2.762,2.762,0,0,0,2.758,2.758h2.758v1.839H42.29v1.839h4.6v9.194h-3.8a6.428,6.428,0,0,0-2.648-1.566c0-.093.006-.183.006-.273A7.349,7.349,0,0,0,26.9,21.79a7.316,7.316,0,0,0-3-.645,7.4,7.4,0,0,0-6.873,4.744,6.391,6.391,0,0,0-1.941.772H8.274V23.9h3.677a2.762,2.762,0,0,0,2.758-2.758V2.758A2.762,2.762,0,0,0,11.952,0H2.758A2.762,2.762,0,0,0,0,2.758V21.145A2.762,2.762,0,0,0,2.758,23.9H6.435v4.6h6.7a6.4,6.4,0,0,0-.894,1.839H8.274V40.452H4.6A2.762,2.762,0,0,0,1.839,43.21v8.274H0v2.758A2.762,2.762,0,0,0,2.758,57h14.71a2.762,2.762,0,0,0,2.758-2.758V51.484H18.387V43.21a2.762,2.762,0,0,0-2.758-2.758H10.113V32.177h1.839a6.444,6.444,0,0,0,6.435,6.435H38.613A6.44,6.44,0,0,0,44.975,33.1h3.751v7.355H42.29V57H57V40.452H50.565V31.258H44.971a6.363,6.363,0,0,0-.572-1.839h4.327V18.387h4.6V16.548H51.484V14.71Zm-41.371,0H1.839V5.516H12.871ZM2.758,1.839h9.194a.92.92,0,0,1,.919.919v.919H1.839V2.758a.92.92,0,0,1,.919-.919ZM1.839,21.145v-4.6H12.871v4.6a.92.92,0,0,1-.919.919H2.758a.92.92,0,0,1-.919-.919Zm16.548,33.1a.92.92,0,0,1-.919.919H2.758a.92.92,0,0,1-.919-.919v-.919H18.387ZM16.548,43.21v8.274H3.677V43.21a.92.92,0,0,1,.923-.92H15.629a.92.92,0,0,1,.919.92ZM44.129,55.161V49.645H55.161v5.516Zm11.032-7.355H44.129V42.29H55.161ZM38.613,36.774H18.387a4.595,4.595,0,0,1-.552-9.157l.6-.073.17-.584a5.5,5.5,0,0,1,8.179-3.154l.878.541.438-.935a5.5,5.5,0,0,1,10.44,3.18l-.14.908.909.138a4.594,4.594,0,0,1-.7,9.135ZM41.371,1.839H54.242a.92.92,0,0,1,.919.919V9.194H40.452V2.758a.92.92,0,0,1,.919-.919Zm-.919,10.113v-.919h14.71v.919a.92.92,0,0,1-.919.919H41.371a.92.92,0,0,1-.919-.919Zm9.194,4.6H45.968V14.71h3.677Zm0,0" fill="#fff"/><path d="M400,384h1.839v1.839H400Zm0,0" transform="translate(-354.032 -339.871)" fill="#fff"/><path d="M448,448h1.839v1.839H448Zm0,0" transform="translate(-396.516 -396.516)" fill="#fff"/><path d="M432,384h3.677v1.839H432Zm0,0" transform="translate(-382.355 -339.871)" fill="#fff"/><path d="M400,448h3.677v1.839H400Zm0,0" transform="translate(-354.032 -396.516)" fill="#fff"/></svg>