<svg xmlns="http://www.w3.org/2000/svg" width="50.435" height="44.517" viewBox="0 0 50.435 44.517"><g transform="translate(0 -30.041)"><g transform="translate(0 30.041)"><path d="M50.435,67.456V30.041H0V67.456H16.572V71.47H11.014v3.088H39.422V71.47H33.864V67.456ZM3.088,33.129H47.347v25.32H3.088ZM30.776,71.47H19.659V67.456H30.776ZM3.088,64.37V61.54H47.347v2.831H3.088Z" transform="translate(0 -30.041)" fill="#2bbeef"/></g><g transform="translate(8.286 37.735)"><path d="M93.512,117.267a5.095,5.095,0,1,0-6.239,0,6.281,6.281,0,0,0-3.159,5.445v1.544H96.671v-1.544A6.281,6.281,0,0,0,93.512,117.267Zm-3.119-6.031a2.007,2.007,0,1,1-2.007,2.007,2.007,2.007,0,0,1,2.007-2.007ZM87.6,121.168a3.19,3.19,0,0,1,5.584,0Z" transform="translate(-84.114 -108.148)" fill="#2bbeef"/></g><g transform="translate(25.218 37.735)"><rect width="3.551" height="3.088" fill="#2bbeef"/></g><g transform="translate(31.136 37.735)"><rect width="10.653" height="3.088" fill="#2bbeef"/></g><g transform="translate(25.218 44.245)"><rect width="3.551" height="3.088" fill="#2bbeef"/></g><g transform="translate(31.136 44.245)"><rect width="10.653" height="3.088" fill="#2bbeef"/></g><g transform="translate(25.218 50.756)"><rect width="3.551" height="3.088" fill="#2bbeef"/></g><g transform="translate(31.136 50.756)"><rect width="10.653" height="3.088" fill="#2bbeef"/></g></g></svg>