<svg xmlns="http://www.w3.org/2000/svg" width="51.857" height="49.569" viewBox="0 0 51.857 49.569"><g transform="translate(-19.064 -18.753)"><path d="M35.264,69.406H70.921V66.259H67.667V43.519a1.574,1.574,0,0,0-2.578-1.212L52.3,52.9l-.051-9.387a1.572,1.572,0,0,0-2.512-1.253l-12.9,9.612v-17A1.574,1.574,0,0,0,35.266,33.3H27.54a1.574,1.574,0,0,0-1.562,1.39l-3.7,31.57H19.064v3.146h16.2ZM49.122,46.64l.051,9.594a1.574,1.574,0,0,0,2.577,1.2L64.52,46.86v19.4H36.841V55.793ZM28.941,36.445h4.752V66.26H25.448Z" transform="translate(0 -1.084)" fill="#2bbeef"/><path d="M31.2,30.991a1.573,1.573,0,0,0,2-.978c1.377-4.021,5.325-4.622,8.285-3.918,5.155,1.232,9.372,1.644,12.864-5.037A1.576,1.576,0,0,0,51.555,19.6c-2.287,4.376-4.143,4.677-9.345,3.433-4.582-1.093-10.064.328-11.993,5.958a1.577,1.577,0,0,0,.983,2Z" transform="translate(-0.825)" fill="#2bbeef"/></g></svg>