<svg xmlns="http://www.w3.org/2000/svg" width="51.188" height="51.186" viewBox="0 0 51.188 51.186"><g transform="translate(-2 -2)"><path d="M2.068,40.437a.852.852,0,0,0,.671.766l2.973.642a13.478,13.478,0,0,0,.4,1.495L3.861,45.378a.853.853,0,0,0-.2,1,17.059,17.059,0,0,0,1.362,2.376.853.853,0,0,0,.963.327l2.89-.931a13.668,13.668,0,0,0,1.1,1.1l-.931,2.89a.853.853,0,0,0,.327.963,17.06,17.06,0,0,0,2.376,1.362.854.854,0,0,0,1-.2l2.039-2.251a13.733,13.733,0,0,0,1.5.4l.642,2.973a.854.854,0,0,0,.765.671c.454.036.909.068,1.372.068s.918-.032,1.372-.068a.852.852,0,0,0,.766-.671l.642-2.973a13.493,13.493,0,0,0,1.5-.4l2.039,2.251a.852.852,0,0,0,1,.2A17.146,17.146,0,0,0,28.751,53.1a.853.853,0,0,0,.327-.963l-.931-2.89a13.8,13.8,0,0,0,1.1-1.1l2.89.931a.852.852,0,0,0,.963-.327,17.06,17.06,0,0,0,1.362-2.376.853.853,0,0,0-.2-1L32.015,43.34a13.733,13.733,0,0,0,.4-1.5l2.973-.642a.854.854,0,0,0,.671-.765c.035-.455.067-.909.067-1.373s-.032-.918-.068-1.372a.852.852,0,0,0-.671-.766l-2.973-.642a13.492,13.492,0,0,0-.4-1.5l2.251-2.039a.853.853,0,0,0,.2-1A17.145,17.145,0,0,0,33.1,29.376a.852.852,0,0,0-.963-.327l-2.89.931a13.667,13.667,0,0,0-1.1-1.1l.931-2.89a.853.853,0,0,0-.327-.963,17.059,17.059,0,0,0-2.376-1.362.851.851,0,0,0-1,.2l-2.039,2.251a13.733,13.733,0,0,0-1.5-.4L21.2,22.74a.854.854,0,0,0-.765-.671,17.34,17.34,0,0,0-2.744,0,.852.852,0,0,0-.766.671l-.642,2.973a13.477,13.477,0,0,0-1.495.4l-2.039-2.251a.853.853,0,0,0-1-.2,17.059,17.059,0,0,0-2.376,1.362.853.853,0,0,0-.327.963l.931,2.89a13.669,13.669,0,0,0-1.1,1.1l-2.889-.931a.851.851,0,0,0-.963.327,17.059,17.059,0,0,0-1.362,2.376.853.853,0,0,0,.2,1L6.111,34.79a13.734,13.734,0,0,0-.4,1.5l-2.973.642a.854.854,0,0,0-.671.765c-.035.45-.067.9-.067,1.368S2.032,39.983,2.068,40.437ZM3.724,38.46l2.9-.627a.853.853,0,0,0,.662-.7,11.893,11.893,0,0,1,.613-2.3.852.852,0,0,0-.225-.934L5.485,31.92c.191-.366.391-.717.6-1.048l2.812.906a.856.856,0,0,0,.922-.271A12,12,0,0,1,11.5,29.819a.852.852,0,0,0,.271-.922l-.906-2.812q.5-.311,1.048-.6l1.987,2.2a.854.854,0,0,0,.935.225,11.836,11.836,0,0,1,2.3-.613.853.853,0,0,0,.7-.662l.626-2.9a11.236,11.236,0,0,1,1.211,0l.627,2.9a.853.853,0,0,0,.7.662,11.893,11.893,0,0,1,2.3.613.852.852,0,0,0,.934-.225l1.986-2.192c.366.191.717.391,1.048.6L26.35,28.9a.854.854,0,0,0,.271.922,12,12,0,0,1,1.687,1.687.85.85,0,0,0,.922.271l2.812-.906q.311.5.6,1.048l-2.193,1.986a.853.853,0,0,0-.225.935,11.836,11.836,0,0,1,.613,2.295.853.853,0,0,0,.662.7l2.9.626c.011.2.019.4.019.606s-.007.4-.018.6l-2.9.627a.853.853,0,0,0-.662.7,11.893,11.893,0,0,1-.613,2.3.852.852,0,0,0,.225.934l2.19,1.979c-.191.366-.391.717-.6,1.048l-2.812-.906a.849.849,0,0,0-.922.271,12.041,12.041,0,0,1-1.687,1.687.853.853,0,0,0-.271.921l.906,2.812q-.5.311-1.048.6L24.22,50.45a.856.856,0,0,0-.935-.225,11.836,11.836,0,0,1-2.3.613.853.853,0,0,0-.7.662l-.626,2.9a11.235,11.235,0,0,1-1.211,0l-.627-2.9a.853.853,0,0,0-.7-.662,11.893,11.893,0,0,1-2.3-.613.851.851,0,0,0-.934.225l-1.974,2.19c-.366-.191-.717-.391-1.048-.6l.906-2.812a.854.854,0,0,0-.271-.922,12,12,0,0,1-1.687-1.687.852.852,0,0,0-.922-.271l-2.812.906q-.311-.5-.6-1.048L7.677,44.22a.853.853,0,0,0,.225-.935,11.836,11.836,0,0,1-.613-2.3.853.853,0,0,0-.662-.7l-2.9-.624c-.01-.2-.018-.4-.018-.606S3.713,38.659,3.724,38.46Z" transform="translate(0 -2.94)" fill="#2bbeef"/><path d="M50.809,14.144a.852.852,0,0,0,.591-.716,10.034,10.034,0,0,0,.075-1.191,10.2,10.2,0,0,0-.074-1.191.852.852,0,0,0-.591-.716l-2.366-.743q-.106-.29-.235-.57l1.147-2.2a.855.855,0,0,0-.087-.924A10.329,10.329,0,0,0,47.58,4.209a.855.855,0,0,0-.924-.088l-2.2,1.147q-.279-.128-.57-.235l-.743-2.366a.852.852,0,0,0-.716-.591,9.438,9.438,0,0,0-2.383,0,.852.852,0,0,0-.716.591l-.743,2.366q-.29.106-.57.235l-2.2-1.147a.857.857,0,0,0-.924.087A10.329,10.329,0,0,0,33.208,5.9a.853.853,0,0,0-.088.924l1.146,2.2q-.128.279-.235.57l-2.366.743a.852.852,0,0,0-.591.716,9.592,9.592,0,0,0,0,2.382.852.852,0,0,0,.591.716l2.366.743q.106.29.235.57l-1.147,2.2a.855.855,0,0,0,.087.924A10.329,10.329,0,0,0,34.9,20.266a.855.855,0,0,0,.924.088l2.2-1.146q.279.128.57.235l.743,2.366a.852.852,0,0,0,.716.591,10.083,10.083,0,0,0,1.193.075,10.206,10.206,0,0,0,1.191-.074.852.852,0,0,0,.716-.591l.743-2.366q.29-.106.57-.235l2.2,1.147a.853.853,0,0,0,.924-.087,10.329,10.329,0,0,0,1.688-1.688.853.853,0,0,0,.088-.924l-1.147-2.2q.129-.279.235-.57Zm-3.293-.754a.856.856,0,0,0-.561.569,6.009,6.009,0,0,1-.456,1.1.851.851,0,0,0,0,.8l1.083,2.075a8.706,8.706,0,0,1-.64.64l-2.075-1.083a.853.853,0,0,0-.8.005,6.009,6.009,0,0,1-1.1.456.856.856,0,0,0-.569.561l-.7,2.239a7.187,7.187,0,0,1-.9,0l-.7-2.239a.856.856,0,0,0-.569-.561,5.928,5.928,0,0,1-1.1-.456.853.853,0,0,0-.8,0l-2.075,1.083a8.707,8.707,0,0,1-.64-.64l1.083-2.075a.853.853,0,0,0-.005-.8,6.009,6.009,0,0,1-.456-1.1.856.856,0,0,0-.561-.569l-2.239-.7c-.01-.156-.014-.305-.014-.45s0-.293.014-.45l2.239-.7a.856.856,0,0,0,.561-.569,5.928,5.928,0,0,1,.456-1.1.853.853,0,0,0,0-.8L34.9,6.539a8.7,8.7,0,0,1,.64-.64l2.075,1.083a.856.856,0,0,0,.8-.005,6.009,6.009,0,0,1,1.1-.456.856.856,0,0,0,.569-.561l.7-2.239a7.187,7.187,0,0,1,.9,0l.7,2.239a.856.856,0,0,0,.569.561,5.928,5.928,0,0,1,1.1.456.853.853,0,0,0,.8.005L46.936,5.9a8.706,8.706,0,0,1,.64.64L46.494,8.613a.853.853,0,0,0,.005.8,6.009,6.009,0,0,1,.456,1.1.856.856,0,0,0,.561.569l2.239.7c.01.156.014.305.014.45s0,.293-.014.45Z" transform="translate(-4.259)" fill="#2bbeef"/><path d="M58.433,33.794l-1.466-.52a6.914,6.914,0,0,0-.288-.7l.666-1.4a.849.849,0,0,0-.1-.891,8.586,8.586,0,0,0-1.467-1.467.853.853,0,0,0-.892-.1l-1.4.666a6.815,6.815,0,0,0-.7-.287l-.521-1.466a.855.855,0,0,0-.7-.561,7.862,7.862,0,0,0-2.071,0,.852.852,0,0,0-.7.561l-.52,1.466a6.914,6.914,0,0,0-.7.288l-1.4-.666a.854.854,0,0,0-.891.1,8.586,8.586,0,0,0-1.467,1.467.855.855,0,0,0-.1.892l.666,1.4a6.815,6.815,0,0,0-.287.7L42.63,33.8a.855.855,0,0,0-.561.7A8.358,8.358,0,0,0,42,35.531a8.552,8.552,0,0,0,.068,1.035.852.852,0,0,0,.561.7l1.466.52a6.913,6.913,0,0,0,.288.7l-.666,1.4a.849.849,0,0,0,.1.891,8.586,8.586,0,0,0,1.467,1.467.855.855,0,0,0,.892.1l1.4-.666a6.813,6.813,0,0,0,.7.287l.521,1.466a.855.855,0,0,0,.7.561,8.24,8.24,0,0,0,1.035.07,8.55,8.55,0,0,0,1.035-.068.852.852,0,0,0,.7-.561l.52-1.466a6.914,6.914,0,0,0,.7-.288l1.4.666a.848.848,0,0,0,.891-.1,8.586,8.586,0,0,0,1.467-1.467.855.855,0,0,0,.1-.892l-.666-1.4a6.813,6.813,0,0,0,.287-.7l1.466-.521a.855.855,0,0,0,.561-.7,8.239,8.239,0,0,0,.07-1.035,8.551,8.551,0,0,0-.068-1.035.853.853,0,0,0-.561-.7Zm-1.085,2.048L56,36.323a.853.853,0,0,0-.537.576,5.077,5.077,0,0,1-.473,1.149.855.855,0,0,0-.028.786l.613,1.291q-.212.233-.444.444l-1.291-.613a.855.855,0,0,0-.786.028,5.079,5.079,0,0,1-1.148.473.856.856,0,0,0-.577.537l-.48,1.352a5.83,5.83,0,0,1-.623,0l-.48-1.352a.853.853,0,0,0-.576-.537,5.077,5.077,0,0,1-1.149-.473.86.86,0,0,0-.786-.028l-1.291.613q-.233-.212-.444-.444l.613-1.291a.853.853,0,0,0-.028-.786,5.079,5.079,0,0,1-.473-1.148.856.856,0,0,0-.537-.577l-1.352-.48c-.007-.1-.01-.206-.01-.311s0-.209.009-.311l1.352-.481a.85.85,0,0,0,.536-.576,5.1,5.1,0,0,1,.474-1.149.855.855,0,0,0,.028-.786L45.5,30.938q.212-.233.444-.444l1.291.613a.85.85,0,0,0,.786-.028,5.079,5.079,0,0,1,1.148-.473.856.856,0,0,0,.577-.537l.48-1.352a5.833,5.833,0,0,1,.623,0l.48,1.352a.853.853,0,0,0,.576.537,5.077,5.077,0,0,1,1.149.473.85.85,0,0,0,.786.028l1.291-.613q.233.212.444.444l-.613,1.291a.853.853,0,0,0,.028.786,5.079,5.079,0,0,1,.473,1.148A.856.856,0,0,0,56,34.74l1.352.48c.007.1.01.207.01.312s0,.208-.009.311Z" transform="translate(-5.875 -3.672)" fill="#2bbeef"/><path d="M20.384,49.769A9.384,9.384,0,1,0,11,40.385a9.384,9.384,0,0,0,9.384,9.384Zm0-17.062a7.678,7.678,0,1,1-7.678,7.678,7.678,7.678,0,0,1,7.678-7.678Z" transform="translate(-1.322 -4.259)" fill="#2bbeef"/><path d="M2.022,23.587l1.31,1.093a20.433,20.433,0,0,1,15.733-7.371c.434,0,.868.025,1.3.052l-1.051,1.051,1.206,1.206,2.559-2.559a.852.852,0,0,0,0-1.206L20.52,13.294l-1.2,1.206,1.159,1.159c-.469-.03-.939-.056-1.409-.056A22.136,22.136,0,0,0,2.022,23.587Z" transform="translate(-0.003 -1.659)" fill="#2bbeef"/><path d="M42.266,9a4.266,4.266,0,1,0,4.266,4.266A4.266,4.266,0,0,0,42.266,9Zm0,6.825a2.559,2.559,0,1,1,2.559-2.559,2.559,2.559,0,0,1-2.559,2.559Z" transform="translate(-5.288 -1.028)" fill="#2bbeef"/><path d="M51.412,33a3.412,3.412,0,1,0,3.412,3.412A3.412,3.412,0,0,0,51.412,33Zm0,5.119a1.706,1.706,0,1,1,1.706-1.706,1.706,1.706,0,0,1-1.706,1.706Z" transform="translate(-6.756 -4.553)" fill="#2bbeef"/><path d="M60.142,4.87l-4.266-.853a.851.851,0,0,0-1,.669l-.853,4.266,1.673.335.46-2.3a12.8,12.8,0,0,1,1.263,5.541,12.66,12.66,0,0,1-2.807,8L55.94,21.6A14.515,14.515,0,0,0,57.623,6.11l2.184.437Z" transform="translate(-7.64 -0.294)" fill="#2bbeef"/></g></svg>