<svg xmlns="http://www.w3.org/2000/svg" width="53.763" height="55.248" viewBox="0 0 53.763 55.248"><g transform="translate(0.008 0.006)"><path d="M11.783,42.345h2.209V40.136H11.783Zm10.31,7.99V44.223H19.884v6.112a2.578,2.578,0,1,0,2.209,0ZM12.888,20.988a3.306,3.306,0,0,0-1.1,6.425V38.295H14V27.413a3.306,3.306,0,0,0-1.1-6.425Zm0,5.155A1.841,1.841,0,1,1,14.729,24.3a1.841,1.841,0,0,1-1.841,1.843Zm9.2,13.992H19.884v2.209h2.209ZM11.783,46.4H6.738a2.578,2.578,0,1,0,0,2.209h7.254V44.186H11.783Zm30.194-4.05h2.209V40.136H41.977ZM32.4,38.295V31.1a3.314,3.314,0,1,0-2.209,0v7.2Zm-2.946-10.31A1.841,1.841,0,1,1,31.3,29.826a1.841,1.841,0,0,1-1.846-1.841Zm21.36,16.938a2.571,2.571,0,0,0-2.32,1.473H44.186V44.179l-2.209.007V48.6h6.517a2.574,2.574,0,1,0,2.32-3.682ZM37.558,50.078a2.571,2.571,0,0,0-2.32,1.473H32.4V44.186H30.195v9.571h5.044a2.574,2.574,0,1,0,2.32-3.681ZM32.4,42.345V40.136H30.195v2.209Zm9.574-4.05h2.209v-6.35L41.24,29V24.47a3.314,3.314,0,1,0-2.209,0v5.447l2.946,2.946ZM38.295,21.357A1.841,1.841,0,1,1,40.136,23.2a1.841,1.841,0,0,1-1.841-1.843Zm-14.36-8.469a3.306,3.306,0,0,0-1.1,6.425v3.794l-2.946,2.946V38.295H22.1V26.968l2.946-2.945v-4.71a3.306,3.306,0,0,0-1.1-6.425Zm0,5.155a1.841,1.841,0,1,1,1.84-1.843,1.841,1.841,0,0,1-1.84,1.843ZM3.053,29.262a19.619,19.619,0,0,0,6.52,3.665V30.571A16.055,16.055,0,0,1,4.55,27.638a6.572,6.572,0,0,1-2.341-4.981A7.189,7.189,0,0,1,5.321,16.33a10.4,10.4,0,0,1,5.656-1.7H11.1a1.106,1.106,0,0,0,1.125-1.409,8.9,8.9,0,0,1-.368-2.463A7.353,7.353,0,0,1,15.539,4.5a15.5,15.5,0,0,1,8.3-2.3A12.2,12.2,0,0,1,30.55,3.972a5.889,5.889,0,0,1,2.759,5.122A1.1,1.1,0,0,0,35.44,9.5a4.685,4.685,0,0,1,4.5-3.03,6.378,6.378,0,0,1,2.3.448,4.972,4.972,0,0,1,3.332,4.413,4.659,4.659,0,0,1-.694,2.376,1.1,1.1,0,0,0,.953,1.663c3.118.007,5.714,2.885,5.715,6.207,0,3.46-2.946,6.283-5.155,7.4v2.547a16.86,16.86,0,0,0,5.324-4.306,9.015,9.015,0,0,0,2.04-5.641,8.391,8.391,0,0,0-6.3-8.23,6.447,6.447,0,0,0,.326-2.014,7.151,7.151,0,0,0-4.746-6.473,8.557,8.557,0,0,0-3.1-.6A6.964,6.964,0,0,0,35.028,6.2a8.226,8.226,0,0,0-3.247-4.065A14.363,14.363,0,0,0,23.836,0a17.686,17.686,0,0,0-9.513,2.658,9.584,9.584,0,0,0-4.677,8.1,10.341,10.341,0,0,0,.147,1.723,12.408,12.408,0,0,0-5.729,2.035A9.434,9.434,0,0,0,0,22.656a8.8,8.8,0,0,0,3.053,6.606Z" fill="#2bbeef"/></g></svg>