<svg xmlns="http://www.w3.org/2000/svg" width="59.627" height="59.86" viewBox="0 0 59.627 59.86"><g transform="translate(0.001)"><path d="M60.626,35.892a1.753,1.753,0,0,0-.969-1.569L54.609,31.8l5.047-2.523a1.754,1.754,0,0,0,0-3.137l-13.2-6.6a1.749,1.749,0,0,0-.861-1.3l-1.438-.83a12.982,12.982,0,0,0,0-3.257l1.438-.83a1.754,1.754,0,0,0,.642-2.4L42.728,4.854a1.753,1.753,0,0,0-2.4-.642l-1.444.834A13.262,13.262,0,0,0,36.07,3.409V1.754A1.754,1.754,0,0,0,34.32,0H27.306a1.754,1.754,0,0,0-1.754,1.754V3.409a13.262,13.262,0,0,0-2.814,1.637l-1.444-.834a1.753,1.753,0,0,0-2.4.642l-3.507,6.075a1.753,1.753,0,0,0,.642,2.4l1.438.83a12.981,12.981,0,0,0,0,3.257l-1.438.83a1.749,1.749,0,0,0-.861,1.3l-13.2,6.6a1.754,1.754,0,0,0,0,3.137L7.016,31.8,1.969,34.324a1.754,1.754,0,0,0,0,3.137l5.047,2.523L1.969,42.508a1.754,1.754,0,0,0,0,3.137l28.059,14.03a1.753,1.753,0,0,0,1.569,0l28.059-14.03a1.754,1.754,0,0,0,0-3.137l-5.047-2.523,5.047-2.523a1.753,1.753,0,0,0,.97-1.57ZM21.118,17.94a9.723,9.723,0,0,1,0-4.314,1.753,1.753,0,0,0-.835-1.9l-.977-.564L21.06,8.125l.985.568a1.754,1.754,0,0,0,2.062-.227A9.848,9.848,0,0,1,27.831,6.3a1.754,1.754,0,0,0,1.228-1.673V3.507h3.507V4.629A1.754,1.754,0,0,0,33.795,6.3,9.85,9.85,0,0,1,37.52,8.469a1.754,1.754,0,0,0,2.062.227l.985-.568,1.754,3.037-.977.564a1.754,1.754,0,0,0-.835,1.9,9.723,9.723,0,0,1,0,4.314,1.753,1.753,0,0,0,.835,1.9l.977.564L40.567,23.44l-.985-.568a1.754,1.754,0,0,0-2.062.227,9.847,9.847,0,0,1-3.725,2.167,1.754,1.754,0,0,0-1.228,1.673v1.122H29.059V26.938a1.754,1.754,0,0,0-1.228-1.673A9.848,9.848,0,0,1,24.106,23.1a1.754,1.754,0,0,0-2.062-.227l-.985.568L19.3,20.4l.977-.564A1.753,1.753,0,0,0,21.118,17.94ZM6.675,27.708l9.931-4.966,2.294,3.97a1.753,1.753,0,0,0,2.4.642l1.444-.834a13.262,13.262,0,0,0,2.814,1.637v1.656a1.754,1.754,0,0,0,1.754,1.754H34.32a1.754,1.754,0,0,0,1.754-1.754V28.157a13.262,13.262,0,0,0,2.814-1.637l1.444.834a1.754,1.754,0,0,0,2.4-.642l2.292-3.969,9.931,4.965L30.813,39.777ZM54.951,44.076,30.813,56.145,6.675,44.076l4.263-2.131,19.091,9.546a1.753,1.753,0,0,0,1.569,0l19.091-9.546ZM30.813,47.961,6.675,35.892l4.263-2.131,19.091,9.546a1.753,1.753,0,0,0,1.569,0l19.091-9.546,4.263,2.131Z" transform="translate(-1)" fill="#fff"/><path d="M207.43,92.86A6.43,6.43,0,1,0,201,86.43,6.43,6.43,0,0,0,207.43,92.86Zm0-9.353a2.923,2.923,0,1,1-2.923,2.923,2.923,2.923,0,0,1,2.923-2.923Z" transform="translate(-177.617 -70.647)" fill="#fff"/></g></svg>