<svg xmlns="http://www.w3.org/2000/svg" width="59.274" height="59.271" viewBox="0 0 59.274 59.271"><g transform="translate(0 0.002)"><path d="M59.044,57.324a18.854,18.854,0,0,0-4.4-3.877c-1.875-1.352-3.8-2.742-4.766-4.358,3.66-.765,8.29-2.15,8.514-2.216a1.236,1.236,0,0,0,.591-1.978A37.71,37.71,0,0,0,44.088,34.807c-.4-.8-.844-1.824-1.361-3.01C39.082,23.436,31.517,6.083,11.556,3.749,9.965,2.674,5.8,0,3.7,0,1.108,0,0,1.11,0,3.706,0,4.97,1.029,6.447,2.706,8.754c.82,1.128,2.192,3.015,2.233,3.6,0,2.021,2.344,8.564,4.7,11.363-.067.144-.135.285-.2.425a18.065,18.065,0,0,0-2.031,9.2c0,6.485,3.106,9.878,6.174,9.878,1.9,0,2.852-2.161,3.308-4.691,1.692,3.433,4.456,7.906,8.328,10.639a1.236,1.236,0,0,0,1.425-2.019c-6.14-4.334-9.385-14.093-9.418-14.192a1.235,1.235,0,0,0-2.408.383c0,3.391-.646,7-1.235,7.409-1.781,0-3.7-2.833-3.7-7.409A15.636,15.636,0,0,1,11.67,25.2c.187-.394.38-.8.572-1.231a1.236,1.236,0,0,0-.322-1.437C10.02,20.893,7.409,14,7.409,12.355,7.409,11.086,6.38,9.609,4.7,7.3,3.88,6.172,2.508,4.285,2.467,3.7c0-1.235,0-1.235,1.235-1.235,1,0,4.263,1.81,6.711,3.489a1.233,1.233,0,0,0,.566.209C29.748,8.2,36.719,24.194,40.463,32.785c.631,1.447,1.176,2.7,1.668,3.612a1.234,1.234,0,0,0,.691.585A35.663,35.663,0,0,1,55.735,45.07c-2.1.59-5.461,1.487-7.779,1.873a1.235,1.235,0,0,0-1,1.517c.758,3.04,3.669,5.14,6.239,6.99a17.3,17.3,0,0,1,3.831,3.3,1.235,1.235,0,0,0,2.016-1.428Z" transform="translate(0 -0.002)" fill="#fff"/><path d="M96,75.9a1.234,1.234,0,0,0,1.235,1.235A1.236,1.236,0,0,1,98.47,78.37a1.235,1.235,0,1,0,2.47,0,3.708,3.708,0,0,0-3.7-3.7A1.234,1.234,0,0,0,96,75.9Z" transform="translate(-84.887 -66.025)" fill="#fff"/></g><path d="M59.044,57.324a18.854,18.854,0,0,0-4.4-3.877c-1.875-1.352-3.8-2.742-4.766-4.358,3.66-.765,8.29-2.15,8.514-2.216a1.236,1.236,0,0,0,.591-1.978A37.71,37.71,0,0,0,44.088,34.807c-.4-.8-.844-1.824-1.361-3.01C39.082,23.436,31.517,6.083,11.556,3.749,9.965,2.674,5.8,0,3.7,0,1.108,0,0,1.11,0,3.706,0,4.97,1.029,6.447,2.706,8.754c.82,1.128,2.192,3.015,2.233,3.6,0,2.021,2.344,8.564,4.7,11.363-.067.144-.135.285-.2.425a18.065,18.065,0,0,0-2.031,9.2c0,6.485,3.106,9.878,6.174,9.878,1.9,0,2.852-2.161,3.308-4.691,1.692,3.433,4.456,7.906,8.328,10.639a1.236,1.236,0,0,0,1.425-2.019c-6.14-4.334-9.385-14.093-9.418-14.192a1.235,1.235,0,0,0-2.408.383c0,3.391-.646,7-1.235,7.409-1.781,0-3.7-2.833-3.7-7.409A15.636,15.636,0,0,1,11.67,25.2c.187-.394.38-.8.572-1.231a1.236,1.236,0,0,0-.322-1.437C10.02,20.893,7.409,14,7.409,12.355,7.409,11.086,6.38,9.609,4.7,7.3,3.88,6.172,2.508,4.285,2.467,3.7c0-1.235,0-1.235,1.235-1.235,1,0,4.263,1.81,6.711,3.489a1.233,1.233,0,0,0,.566.209C29.748,8.2,36.719,24.194,40.463,32.785c.631,1.447,1.176,2.7,1.668,3.612a1.234,1.234,0,0,0,.691.585A35.663,35.663,0,0,1,55.735,45.07c-2.1.59-5.461,1.487-7.779,1.873a1.235,1.235,0,0,0-1,1.517c.758,3.04,3.669,5.14,6.239,6.99a17.3,17.3,0,0,1,3.831,3.3,1.235,1.235,0,0,0,2.016-1.428ZM11.113,9.88a1.234,1.234,0,0,0,1.235,1.235,1.236,1.236,0,0,1,1.235,1.235,1.235,1.235,0,0,0,2.47,0,3.708,3.708,0,0,0-3.7-3.7,1.234,1.234,0,0,0-1.24,1.23Z" fill="#fff"/></svg>