<svg xmlns="http://www.w3.org/2000/svg" width="44" height="44.025" viewBox="0 0 44 44.025"><g transform="translate(0.003 0.004)"><path d="M8.873,226.971a.645.645,0,0,0-.645-.645,6.934,6.934,0,0,1-2.871-13.249.645.645,0,0,0-.534-1.173,8.223,8.223,0,0,0,3.4,15.711.645.645,0,0,0,.65-.644Z" transform="translate(0 -193.641)" fill="#2bbeef"/><path d="M77.829,19.866A10.9,10.9,0,0,1,98.184,16.7a.645.645,0,1,0,1.138-.6,12.259,12.259,0,0,0-1.249-1.9V5.6l1.559-1.858a1.934,1.934,0,1,0-.988-.828L96.935,4.95a.645.645,0,0,0-.151.414v7.448a12.157,12.157,0,0,0-3.88-2.394V5.92a1.934,1.934,0,1,0-1.289,0v4.088a12.293,12.293,0,0,0-4.638-.287V3.753a1.934,1.934,0,1,0-1.289,0V9.959a12.168,12.168,0,0,0-4.638,2.236V5.92a1.934,1.934,0,1,0-1.289,0v7.436a12.112,12.112,0,0,0-2.991,5.328,8.151,8.151,0,0,0-.931-.479V5.365a.645.645,0,0,0-.151-.414L73.98,2.913a1.933,1.933,0,1,0-.988.828L74.551,5.6V17.77a8.283,8.283,0,0,0-1.99-.24.645.645,0,0,0,0,1.289,6.875,6.875,0,0,1,4.24,1.445.645.645,0,0,0,1.029-.4ZM100.31,1.289a.643.643,0,1,1-.645.643A.643.643,0,0,1,100.31,1.289ZM92.26,3.456a.643.643,0,1,1-.645.643.643.643,0,0,1,.645-.643ZM86.333,1.289a.643.643,0,1,1-.645.643.643.643,0,0,1,.645-.643ZM80.406,3.456a.643.643,0,1,1-.645.643.643.643,0,0,1,.645-.643ZM71.67,1.932a.645.645,0,1,1,.645.643.645.645,0,0,1-.645-.643Z" transform="translate(-64.333)" fill="#2bbeef"/><path d="M408.213,219.011a6.218,6.218,0,0,0-1.386.155,12.231,12.231,0,0,0-.308-2.659.645.645,0,0,0-1.256.288,10.941,10.941,0,0,1,.276,2.445c0,.252-.009.509-.027.763a.645.645,0,0,0,.881.643,4.916,4.916,0,1,1,1.82,9.482H406.1a.645.645,0,0,0,0,1.289h2.114a6.2,6.2,0,0,0,0-12.407Z" transform="translate(-370.42 -197.444)" fill="#2bbeef"/><path d="M285.133,380.343H279.16a.645.645,0,0,0,0,1.289h2.7V387.9a1.934,1.934,0,1,0,1.289,0v-6.272h1.981a.645.645,0,0,0,0-1.289Zm-2.626,10.025a.643.643,0,1,1,.645-.643.643.643,0,0,1-.645.643Z" transform="translate(-254.58 -347.657)" fill="#2bbeef"/><path d="M156.682,380.343h-5.869a.645.645,0,1,0,0,1.289h1.879V387.9a1.934,1.934,0,1,0,1.289,0v-6.272h2.7a.645.645,0,0,0,0-1.289Zm-3.346,10.025a.643.643,0,1,1,.645-.643.643.643,0,0,1-.645.643Z" transform="translate(-137.263 -347.657)" fill="#2bbeef"/><path d="M89.381,315.637a1.932,1.932,0,0,0-.645,3.753v8.81l-2.73,3.253a.645.645,0,1,0,.987.829l2.881-3.433a.645.645,0,0,0,.151-.414V319.39a1.932,1.932,0,0,0-.645-3.753Zm0,2.575a.643.643,0,1,1,.645-.643.643.643,0,0,1-.645.643Z" transform="translate(-78.478 -288.512)" fill="#2bbeef"/><path d="M235.434,315.637a1.932,1.932,0,0,0-.645,3.753v12.477a.645.645,0,0,0,1.289,0V319.39a1.932,1.932,0,0,0-.645-3.753Zm0,2.575a.643.643,0,1,1,.645-.643.643.643,0,0,1-.645.643Z" transform="translate(-213.434 -288.512)" fill="#2bbeef"/><path d="M365.2,328.2v-8.81a1.934,1.934,0,1,0-1.289,0v9.044a.644.644,0,0,0,.151.414l2.881,3.433a.645.645,0,1,0,.987-.829Zm-.645-11.274a.643.643,0,1,1-.645.643.643.643,0,0,1,.645-.643Z" transform="translate(-331.456 -288.512)" fill="#2bbeef"/></g></svg>