<svg xmlns="http://www.w3.org/2000/svg" width="72.971" height="51.784" viewBox="0 0 72.971 51.784"><path d="M168,32h2.354v2.354H168Zm0,0" transform="translate(-143.284 -27.292)" fill="#fff"/><path d="M68.523,70.176l1.665-1.664,1.664,1.664L70.188,71.84Zm0,0" transform="translate(-58.442 -58.433)" fill="#fff"/><path d="M32,168h2.354v2.354H32Zm0,0" transform="translate(-27.292 -143.284)" fill="#fff"/><path d="M68.512,262.528l1.664-1.665,1.665,1.664-1.664,1.665Zm0,0" transform="translate(-58.432 -222.486)" fill="#fff"/><path d="M168,304h2.354v2.354H168Zm0,0" transform="translate(-143.284 -259.276)" fill="#fff"/><path d="M29.6,49.431H22.181l-.67-4.023-.734-.194a19.864,19.864,0,0,1-4.929-2.038l-.658-.384-3.316,2.369L6.625,39.915,8.995,36.6l-.383-.658a19.88,19.88,0,0,1-2.04-4.93l-.194-.736L2.354,29.6V22.182l4.023-.67.194-.736a19.931,19.931,0,0,1,2.04-4.93l.383-.658-2.37-3.316,5.248-5.247,3.316,2.369.658-.384a19.9,19.9,0,0,1,4.929-2.038l.734-.194.672-4.024H29.6l.545,3.273,2.322-.387L31.6,0H20.188l-.749,4.5a22.122,22.122,0,0,0-4.107,1.7L11.619,3.551,3.551,11.619,6.2,15.332a22.188,22.188,0,0,0-1.7,4.107L0,20.188V31.6l4.5.751a22.266,22.266,0,0,0,1.7,4.107l-2.651,3.71,8.068,8.068,3.713-2.652a22.106,22.106,0,0,0,4.107,1.7l.751,4.5H31.6l.873-5.24-2.322-.387Zm0,0" fill="#fff"/><path d="M100.946,88a12.946,12.946,0,1,0,12.946,12.946A12.946,12.946,0,0,0,100.946,88Zm7.737,5.736a13.221,13.221,0,0,1-2.729,1.511,30.721,30.721,0,0,0-1.614-4.324,10.588,10.588,0,0,1,4.342,2.813Zm-4.207,7.21a11.964,11.964,0,0,1-.334,2.684,15.655,15.655,0,0,0-6.478.017,15.979,15.979,0,0,1-.249-2.7,11.965,11.965,0,0,1,.334-2.684,15.655,15.655,0,0,0,6.478-.017,15.981,15.981,0,0,1,.25,2.7Zm-4.061,10.509a29.681,29.681,0,0,1-2.229-5.508,12.991,12.991,0,0,1,5.26-.047,26.053,26.053,0,0,1-3.029,5.556Zm.53-15.217a13.026,13.026,0,0,1-2.5-.246,26.114,26.114,0,0,1,3.03-5.555,29.647,29.647,0,0,1,2.229,5.508,13.088,13.088,0,0,1-2.758.294ZM98.5,90.649a26.7,26.7,0,0,0-2.331,4.688,13.368,13.368,0,0,1-2.965-1.6,10.586,10.586,0,0,1,5.3-3.088Zm-6.7,4.98A15.512,15.512,0,0,0,95.482,97.6a14.492,14.492,0,0,0-.42,3.346,18.735,18.735,0,0,0,.326,3.383,15.478,15.478,0,0,0-3.587,1.936,10.5,10.5,0,0,1,0-10.636Zm1.409,12.527a13.22,13.22,0,0,1,2.729-1.511,30.72,30.72,0,0,0,1.614,4.324,10.588,10.588,0,0,1-4.342-2.813Zm10.18,3.087a26.625,26.625,0,0,0,2.33-4.688,13.368,13.368,0,0,1,2.965,1.6,10.573,10.573,0,0,1-5.3,3.087Zm6.7-4.98a15.512,15.512,0,0,0-3.681-1.972,14.49,14.49,0,0,0,.42-3.346,18.735,18.735,0,0,0-.326-3.383,15.478,15.478,0,0,0,3.587-1.936,10.5,10.5,0,0,1,0,10.636Zm0,0" transform="translate(-75.053 -75.054)" fill="#fff"/><path d="M416,56h2.354v2.354H416Zm0,0" transform="translate(-354.799 -47.762)" fill="#fff"/><path d="M416,280h2.354v2.354H416Zm0,0" transform="translate(-354.799 -238.807)" fill="#fff"/><path d="M90.216,79.753a2.219,2.219,0,0,1,2.109-1.391h11.93V76.008H92.325a4.581,4.581,0,0,0-4.318,2.932,15.277,15.277,0,0,1-23.992,6.581c-.034-.028-.071-.053-.1-.081-.291-.24-.565-.5-.837-.76-.1-.094-.2-.185-.3-.283-.245-.247-.474-.509-.7-.772-.1-.116-.2-.23-.3-.348-.229-.281-.443-.573-.651-.869-.074-.106-.151-.211-.222-.318-.21-.315-.4-.641-.592-.972-.055-.1-.113-.2-.166-.3-.179-.336-.344-.682-.5-1.032-.048-.11-.1-.222-.144-.334-.139-.337-.263-.68-.378-1.029-.047-.144-.094-.288-.136-.434-.094-.319-.176-.642-.249-.97-.043-.189-.083-.379-.118-.57-.054-.291-.1-.586-.136-.883-.028-.233-.053-.466-.072-.7-.021-.27-.034-.54-.041-.814s-.007-.518,0-.778c.007-.28.02-.559.042-.836.017-.205.034-.409.058-.612.035-.291.081-.579.132-.865.036-.2.068-.4.112-.591.06-.273.134-.54.208-.807.057-.2.109-.408.173-.609.076-.236.168-.466.256-.7s.16-.444.253-.658c.067-.155.148-.3.22-.456a15.333,15.333,0,0,1,1.645-2.712c.09-.118.172-.239.265-.353.178-.221.368-.431.559-.642.126-.138.248-.281.379-.417.178-.183.365-.357.552-.533.161-.151.324-.3.492-.448s.351-.289.529-.429c.2-.159.407-.314.618-.463.161-.114.325-.224.49-.332q.372-.242.761-.463c.142-.082.284-.163.43-.24.3-.159.609-.306.922-.445.116-.052.233-.107.351-.157.361-.149.73-.282,1.1-.4.082-.027.163-.057.246-.084.434-.134.878-.247,1.328-.343.032-.007.063-.016.094-.022A15.34,15.34,0,0,1,88,68.342,4.587,4.587,0,0,0,92.308,71.3h11.947V68.946H92.308a2.229,2.229,0,0,1-2.1-1.421,17.6,17.6,0,0,0-7.8-9.172h24.2V56H73.654c-.052,0-.1.007-.152.008a16.362,16.362,0,0,0-1.635.082q-.871.089-1.73.264c-.083.017-.163.041-.245.059q-.705.15-1.388.357c-.136.041-.267.092-.4.137-.388.129-.772.266-1.148.421-.174.072-.344.152-.514.23-.32.144-.637.294-.947.456-.2.107-.4.22-.6.334-.259.149-.514.3-.767.466-.225.145-.446.3-.665.449s-.408.3-.607.455c-.239.186-.476.374-.705.572-.159.138-.312.28-.465.422-.248.23-.494.461-.729.705-.113.118-.22.243-.33.364-.255.279-.507.559-.744.855-.06.075-.115.156-.174.233a17.631,17.631,0,0,0-2.119,3.507c-.044.1-.094.187-.137.283-.12.276-.22.564-.326.847-.09.239-.185.476-.264.719s-.144.5-.211.744c-.083.3-.164.592-.231.894-.051.231-.091.465-.132.7-.059.327-.112.656-.152.988-.028.233-.047.467-.066.7-.014.178-.041.353-.051.532-.007.149,0,.3,0,.445s-.021.28-.021.424.019.3.024.456q.012.481.048.96.032.395.08.785c.044.349.1.7.159,1.041q.059.32.13.633c.086.385.183.764.294,1.141.048.161.1.321.151.48.133.407.279.809.441,1.2.052.125.106.248.16.372.179.407.37.809.58,1.2.06.113.125.224.187.336.215.384.441.76.686,1.129.081.122.168.24.252.36.241.343.488.682.755,1.009.109.134.226.263.339.393.194.226.376.46.584.677.075.079.157.145.234.222.107.108.221.209.332.315.318.306.638.607.974.886.037.03.077.057.113.088A17.473,17.473,0,0,0,73.652,91.3h32.954V88.954H82.416a17.674,17.674,0,0,0,7.8-9.2Zm0,0" transform="translate(-47.761 -47.762)" fill="#fff"/><path d="M400,144h2.354v2.354H400Zm0,0" transform="translate(-341.153 -122.815)" fill="#fff"/><path d="M400,192h2.354v2.354H400Zm0,0" transform="translate(-341.153 -163.754)" fill="#fff"/><path d="M304,88h23.539v2.354H304Zm0,0" transform="translate(-259.276 -75.054)" fill="#fff"/><path d="M480,88h2.354v2.354H480Zm0,0" transform="translate(-409.383 -75.054)" fill="#fff"/><path d="M304,248h23.539v2.354H304Zm0,0" transform="translate(-259.276 -211.515)" fill="#fff"/><path d="M480,248h2.354v2.354H480Zm0,0" transform="translate(-409.383 -211.515)" fill="#fff"/></svg>