<svg xmlns="http://www.w3.org/2000/svg" width="53.449" height="53.444" viewBox="0 0 53.449 53.444"><path d="M12.206,32.982a7.118,7.118,0,1,0,2.835,10.366l6.728,3.368a7.12,7.12,0,1,0,12.838-2.407l9.454-9.885a7.122,7.122,0,1,0-.126-11.334l-9.606-9.606A7.125,7.125,0,1,0,21.768,10.7L15.454,13a7.125,7.125,0,1,0-3.483,9.77l3.277,5.515ZM9.122,44.734a5.342,5.342,0,1,1,5.342-5.342,5.342,5.342,0,0,1-5.342,5.342Zm6.712-2.982A7.074,7.074,0,0,0,13.7,33.947l2.56-3.955,7.72,12.99a7.148,7.148,0,0,0-1.6,2.05ZM28.709,16.245a7.08,7.08,0,0,0,4.361-1.5l9.607,9.607a7.09,7.09,0,0,0-1.255,2.528l-5.593-.769v-.069a7.12,7.12,0,0,0-13.039-3.96l-1.062-.531,3.9-6.019a7.064,7.064,0,0,0,3.083.712Zm.89,24.99V33.1a7.131,7.131,0,0,0,5.985-5.228l5.593.769v.069a7.083,7.083,0,0,0,1.6,4.487l-9.348,9.775A7.092,7.092,0,0,0,29.6,41.235ZM28.709,20.7a5.342,5.342,0,1,1-5.342,5.342A5.342,5.342,0,0,1,28.709,20.7ZM22,23.678A7.1,7.1,0,0,0,27.819,33.1v8.136a7.064,7.064,0,0,0-2.366.734l-8.11-13.647,3.411-5.267Zm6.712,29.959A5.342,5.342,0,1,1,34.051,48.3a5.342,5.342,0,0,1-5.339,5.337ZM48.3,23.367a5.342,5.342,0,1,1-5.342,5.342A5.342,5.342,0,0,1,48.3,23.367ZM28.709,3.781a5.342,5.342,0,1,1-5.342,5.342,5.342,5.342,0,0,1,5.342-5.342ZM22.377,12.37a7.171,7.171,0,0,0,1.751,2.2l-4,6.182L15.834,18.6a6.963,6.963,0,0,0,.229-3.935Zm-18.6,3.875a5.342,5.342,0,1,1,5.342,5.342,5.342,5.342,0,0,1-5.342-5.342ZM13.5,21.853A7.182,7.182,0,0,0,15.041,20.2l4.111,2.055-2.823,4.36Z" transform="translate(-1.984 -1.976)" fill="#2bbeef"/></svg>