<svg xmlns="http://www.w3.org/2000/svg" width="66.877" height="46.825" viewBox="0 0 66.877 46.825"><g transform="translate(0)"><path d="M64.918,76.757h-23.7a1.959,1.959,0,0,0-1.959,1.959v7.842a1.959,1.959,0,0,0,1.959,1.959H46.8L34.421,100.9l-5.87-5.87a5.89,5.89,0,0,0-8.316,0L.574,114.692a1.959,1.959,0,0,0,0,2.771l5.544,5.545a1.96,1.96,0,0,0,1.385.574h0a1.959,1.959,0,0,0,1.385-.574L24.4,107.5l5.868,5.869a5.88,5.88,0,0,0,8.316,0L55.117,96.833v5.582a1.959,1.959,0,0,0,1.959,1.959h7.842a1.959,1.959,0,0,0,1.959-1.959v-23.7a1.959,1.959,0,0,0-1.959-1.958Zm-1.959,23.7H59.035V92.1a1.959,1.959,0,0,0-3.345-1.385L35.807,110.6a1.961,1.961,0,0,1-2.774,0l-7.253-7.255a1.959,1.959,0,0,0-2.771,0L7.5,118.852l-2.77-2.775L23.006,97.8a1.966,1.966,0,0,1,2.775,0l7.254,7.255a1.959,1.959,0,0,0,2.771,0l17.11-17.11A1.959,1.959,0,0,0,51.532,84.6H43.179V80.675h19.78Z" transform="translate(0 -76.757)" fill="#fff"/></g></svg>