<svg xmlns="http://www.w3.org/2000/svg" width="61.735" height="69.11" viewBox="0 0 61.735 69.11"><g transform="translate(-27.271 0)"><path d="M137.722,147.906l15.021,8.672a1.012,1.012,0,0,0,1.012,0l15.021-8.672a1.012,1.012,0,0,0,.506-.877V129.685a1.012,1.012,0,0,0-.506-.877l-15.021-8.672a1.012,1.012,0,0,0-1.012,0l-15.021,8.672a1.012,1.012,0,0,0-.506.877V147.03a1.012,1.012,0,0,0,.506.876Zm1.519-16.468,13,7.5v15.007l-13-7.5Zm14.009,5.75-13-7.5,5.486-3.167,13,7.5Zm1.012,16.76V138.942l13-7.5v15.007ZM153.25,122.18l13,7.5-5.486,3.167-13-7.5Z" transform="translate(-95.111 -103.802)" fill="#2bbeef"/><path d="M286.941,260.924a1.012,1.012,0,0,0-1.012,0l-6.922,4a1.012,1.012,0,0,0-.506.877v4.676a1.012,1.012,0,0,0,1.519.877l6.922-4a1.012,1.012,0,0,0,.506-.877V261.8A1.013,1.013,0,0,0,286.941,260.924Zm-1.519,4.968-4.9,2.828v-2.338l4.9-2.828Z" transform="translate(-217.324 -225.587)" fill="#2bbeef"/><path d="M84.964,41.888V27.222A7.084,7.084,0,1,0,77.9,14.991L65.2,7.657c.015-.188.025-.378.025-.57a7.086,7.086,0,1,0-14.173,0c0,.192.01.382.025.57l-12.7,7.335a7.084,7.084,0,1,0-7.06,12.231V41.888a7.084,7.084,0,1,0,7.06,12.231l12.7,7.335c-.015.188-.025.378-.025.57a7.087,7.087,0,1,0,14.173,0c0-.192-.01-.382-.025-.57l12.7-7.335a7.084,7.084,0,1,0,7.06-12.231Zm-2.025-.612a7.015,7.015,0,0,0-2.025,0V27.834a7.015,7.015,0,0,0,2.025,0Zm4.049-20.455a5.062,5.062,0,1,1-5.062-5.062,5.062,5.062,0,0,1,5.062,5.062ZM76.364,16.439a7.088,7.088,0,0,0-1.015,1.752L63.7,11.467a7.088,7.088,0,0,0,1.015-1.752ZM58.139,2.025a5.062,5.062,0,1,1-5.062,5.062,5.062,5.062,0,0,1,5.062-5.062Zm-5.563,9.443L40.929,18.192a7.085,7.085,0,0,0-1.015-1.753L51.56,9.716a7.087,7.087,0,0,0,1.015,1.753ZM29.289,20.821a5.062,5.062,0,1,1,5.062,5.062,5.062,5.062,0,0,1-5.062-5.062Zm4.049,7.013a7.015,7.015,0,0,0,2.025,0v4.7a1.013,1.013,0,0,0,2.025,0V27.222a7.1,7.1,0,0,0,4.049-6.4c0-.192-.01-.381-.025-.569l12.7-7.335a7.065,7.065,0,0,0,8.045,0l12.7,7.335c-.015.188-.025.378-.025.57a7.1,7.1,0,0,0,4.049,6.4V41.888a7.1,7.1,0,0,0-4.049,6.4c0,.192.01.382.025.57l-12.7,7.335a7.066,7.066,0,0,0-8.046,0l-12.7-7.335c.015-.188.025-.378.025-.57a7.1,7.1,0,0,0-4.049-6.4V36.58a1.013,1.013,0,0,0-2.025,0v4.7a7.015,7.015,0,0,0-2.025,0ZM29.289,48.289a5.062,5.062,0,1,1,5.062,5.062,5.062,5.062,0,0,1-5.062-5.062ZM39.914,52.67a7.088,7.088,0,0,0,1.015-1.752l11.646,6.724a7.088,7.088,0,0,0-1.015,1.752ZM58.139,67.085A5.062,5.062,0,1,1,63.2,62.023,5.062,5.062,0,0,1,58.139,67.085ZM63.7,57.642l11.646-6.724a7.086,7.086,0,0,0,1.015,1.752L64.717,59.394A7.089,7.089,0,0,0,63.7,57.642Zm18.225-4.291a5.062,5.062,0,1,1,5.062-5.062,5.062,5.062,0,0,1-5.062,5.062Z" fill="#2bbeef"/></g></svg>