<svg xmlns="http://www.w3.org/2000/svg" width="59.137" height="55.516" viewBox="0 0 59.137 55.516"><path d="M48.677,35.4v-.325a19.08,19.08,0,0,0-38.159,0V35.4a19.087,19.087,0,1,0,19.075,33,19.091,19.091,0,1,0,19.075-33ZM29.6,64.049a15.581,15.581,0,0,1-5.169-10.6,19.121,19.121,0,0,0,10.338,0,15.581,15.581,0,0,1-5.169,10.6Zm0-13.359a15.546,15.546,0,0,1-4.994-.819A15.6,15.6,0,0,1,29.6,40.8a15.6,15.6,0,0,1,5,9.071,15.546,15.546,0,0,1-5,.819Zm-8.23-2.352A15.644,15.644,0,0,1,14.2,37.622a15.767,15.767,0,0,1,5-.808,15.513,15.513,0,0,1,7.523,1.936,19.071,19.071,0,0,0-5.351,9.588ZM32.486,38.75a15.513,15.513,0,0,1,7.523-1.936,15.767,15.767,0,0,1,5,.808,15.644,15.644,0,0,1-7.172,10.716A19.071,19.071,0,0,0,32.486,38.75ZM29.6,19.469A15.63,15.63,0,0,1,45.178,34.048a19.254,19.254,0,0,0-5.169-.7,18.967,18.967,0,0,0-10.407,3.1,18.967,18.967,0,0,0-10.407-3.1,19.254,19.254,0,0,0-5.169.7A15.63,15.63,0,0,1,29.6,19.469ZM19.2,68.035a15.586,15.586,0,0,1-8.238-28.9,19.15,19.15,0,0,0,9.977,12.941c0,.117,0,.233,0,.351A19.023,19.023,0,0,0,26.718,66.1,15.513,15.513,0,0,1,19.2,68.035Zm20.814,0A15.513,15.513,0,0,1,32.486,66.1a19.023,19.023,0,0,0,5.788-13.674v-.351a19.15,19.15,0,0,0,9.977-12.941,15.586,15.586,0,0,1-8.238,28.9Z" transform="translate(-0.061 -15.996)" fill="#2bbeef"/></svg>