<svg xmlns="http://www.w3.org/2000/svg" width="57.452" height="44.046" viewBox="0 0 57.452 44.046"><path d="M56.494,36.386H54.579V4.788A4.793,4.793,0,0,0,49.791,0H7.66A4.793,4.793,0,0,0,2.873,4.788v31.6H.958A.958.958,0,0,0,0,37.343v3.83a2.873,2.873,0,0,0,2.873,2.873H54.579a2.873,2.873,0,0,0,2.873-2.873v-3.83a.958.958,0,0,0-.958-.957ZM4.788,9.575H25.853V7.66H4.788V4.788A2.873,2.873,0,0,1,7.66,1.915H49.791a2.873,2.873,0,0,1,2.873,2.873V7.66H46.919V9.575h5.745V36.386H4.788ZM24.9,38.3h7.66v.958H24.9Zm30.641,2.873a.958.958,0,0,1-.958.958H2.873a.958.958,0,0,1-.958-.958V38.3H22.981v.958A1.915,1.915,0,0,0,24.9,41.174h7.66a1.915,1.915,0,0,0,1.915-1.915V38.3H55.536Zm0,0" fill="#fff"/><path d="M72,32h1.915v1.915H72Zm0,0" transform="translate(-63.382 -28.17)" fill="#fff"/><path d="M104,32h1.915v1.915H104Zm0,0" transform="translate(-91.552 -28.17)" fill="#fff"/><path d="M136,32h1.915v1.915H136Zm0,0" transform="translate(-119.722 -28.17)" fill="#fff"/><path d="M133.745,144a5.745,5.745,0,1,0,5.745,5.745A5.745,5.745,0,0,0,133.745,144Zm0,9.575a3.83,3.83,0,1,1,3.83-3.83,3.83,3.83,0,0,1-3.83,3.83Zm0,0" transform="translate(-112.68 -126.765)" fill="#fff"/><path d="M102.215,104.637l-1.7-.34a9.3,9.3,0,0,0-.383-.93l.958-1.436a.957.957,0,0,0-.12-1.208l-2.71-2.712a.957.957,0,0,0-1.207-.12l-1.436.958a9.558,9.558,0,0,0-.929-.383l-.345-1.7A.958.958,0,0,0,93.406,96h-3.83a.958.958,0,0,0-.938.766l-.341,1.7a9.56,9.56,0,0,0-.929.383l-1.436-.958a.957.957,0,0,0-1.207.12l-2.713,2.71a.957.957,0,0,0-.12,1.208l.958,1.436a9.3,9.3,0,0,0-.383.93l-1.7.343a.958.958,0,0,0-.766.938v3.83a.958.958,0,0,0,.766.938l1.7.34a9.3,9.3,0,0,0,.383.93l-.958,1.436a.957.957,0,0,0,.12,1.208l2.71,2.712a.957.957,0,0,0,1.207.12l1.436-.958a9.556,9.556,0,0,0,.929.383l.345,1.7a.958.958,0,0,0,.938.766h3.83a.958.958,0,0,0,.938-.766l.341-1.7a9.553,9.553,0,0,0,.929-.383l1.436.958a.957.957,0,0,0,1.207-.12l2.713-2.71a.957.957,0,0,0,.12-1.208l-.958-1.436a9.3,9.3,0,0,0,.383-.93l1.7-.343a.958.958,0,0,0,.766-.938v-3.83A.958.958,0,0,0,102.215,104.637Zm-1.149,3.983-1.482.3a.956.956,0,0,0-.733.676,7.6,7.6,0,0,1-.67,1.619.957.957,0,0,0,.04,1l.836,1.254-1.6,1.6-1.254-.836a.957.957,0,0,0-1-.039,7.6,7.6,0,0,1-1.616.67.958.958,0,0,0-.676.733l-.293,1.478H90.36l-.3-1.482a.956.956,0,0,0-.676-.733,7.575,7.575,0,0,1-1.616-.67.958.958,0,0,0-1,.039l-1.254.837-1.593-1.6.836-1.254a.957.957,0,0,0,.04-1,7.6,7.6,0,0,1-.67-1.619.956.956,0,0,0-.733-.676l-1.484-.3v-2.26l1.482-.3a.956.956,0,0,0,.733-.676,7.6,7.6,0,0,1,.67-1.619.957.957,0,0,0-.04-1l-.836-1.254,1.6-1.6,1.254.836a.957.957,0,0,0,1,.039,7.6,7.6,0,0,1,1.616-.67.958.958,0,0,0,.676-.733l.293-1.478H92.62l.3,1.482a.956.956,0,0,0,.676.733,7.575,7.575,0,0,1,1.616.67.958.958,0,0,0,1-.039l1.254-.837,1.6,1.6-.835,1.254a.957.957,0,0,0-.04,1,7.612,7.612,0,0,1,.67,1.618.958.958,0,0,0,.733.676l1.479.293Zm0,0" transform="translate(-70.425 -84.51)" fill="#fff"/><path d="M265.266,97.908a3.83,3.83,0,1,1-1.532,7.341L262.968,107A5.745,5.745,0,1,0,260,99.44l1.754.766a3.829,3.829,0,0,1,3.512-2.3Zm0,0" transform="translate(-228.88 -84.502)" fill="#fff"/><path d="M245.005,56.637l-1.7-.34a9.307,9.307,0,0,0-.383-.93l.958-1.436a.957.957,0,0,0-.12-1.208l-2.71-2.712a.957.957,0,0,0-1.207-.12l-1.436.958a9.556,9.556,0,0,0-.929-.383l-.345-1.7A.958.958,0,0,0,236.2,48h-3.83a.958.958,0,0,0-.938.766l-.341,1.7a9.558,9.558,0,0,0-.929.383l-1.436-.958a.957.957,0,0,0-1.207.12L224.8,52.72l1.354,1.354,2.153-2.153,1.254.836a.957.957,0,0,0,1,.039,7.6,7.6,0,0,1,1.616-.67.957.957,0,0,0,.676-.733l.3-1.478h2.262l.3,1.482a.956.956,0,0,0,.676.733A7.576,7.576,0,0,1,238,52.8a.958.958,0,0,0,1-.039l1.254-.837,1.6,1.6-.836,1.254a.957.957,0,0,0-.04,1,7.612,7.612,0,0,1,.67,1.618.958.958,0,0,0,.733.676l1.479.293v2.26l-1.482.3a.956.956,0,0,0-.733.676,7.6,7.6,0,0,1-.67,1.619.957.957,0,0,0,.04,1l.836,1.254-1.6,1.6L239,66.238a.957.957,0,0,0-1-.039,7.6,7.6,0,0,1-1.616.67.958.958,0,0,0-.676.733l-.293,1.478H233.15l-.3-1.482-1.878.376.451,2.255a.958.958,0,0,0,.938.766h3.83a.958.958,0,0,0,.938-.766l.341-1.7a9.553,9.553,0,0,0,.929-.383l1.436.958a.957.957,0,0,0,1.207-.12l2.713-2.71a.957.957,0,0,0,.12-1.208l-.958-1.436a9.3,9.3,0,0,0,.383-.93l1.7-.343a.958.958,0,0,0,.766-.938v-3.83a.958.958,0,0,0-.766-.938Zm0,0" transform="translate(-197.895 -42.255)" fill="#fff"/></svg>