<svg width="57" height="45" viewBox="0 0 57 45" fill="none" xmlns="http://www.w3.org/2000/svg">
<path d="M55.3304 0H35.1306C34.6878 0 34.2631 0.198348 33.95 0.551413C33.6368 0.904478 33.4609 1.38334 33.4609 1.88265V9.419C33.4609 9.91831 33.6368 10.3972 33.95 10.7502C34.2631 11.1033 34.6878 11.3016 35.1306 11.3016H39.8882L29.3374 23.202L24.3344 17.5608C23.3934 16.5033 22.119 15.9095 20.7905 15.9095C19.4619 15.9095 18.1875 16.5033 17.2466 17.5608L0.489274 36.4565C0.334159 36.6313 0.211112 36.8389 0.127161 37.0674C0.0432097 37.2958 0 37.5407 0 37.788C0 38.0353 0.0432097 38.2802 0.127161 38.5086C0.211112 38.7371 0.334159 38.9446 0.489274 39.1195L5.21449 44.4484C5.52759 44.8014 5.95217 44.9998 6.39494 45C6.83772 44.9999 7.26234 44.8015 7.57539 44.4484L20.7922 29.5448L25.7935 35.185C26.2589 35.7098 26.8114 36.1261 27.4195 36.4101C28.0275 36.6942 28.6793 36.8403 29.3374 36.8403C29.9956 36.8403 30.6473 36.6942 31.2554 36.4101C31.8635 36.1261 32.416 35.7098 32.8814 35.185L46.9769 19.2935V24.658C46.9769 25.1573 47.1528 25.6361 47.4659 25.9892C47.779 26.3423 48.2037 26.5406 48.6465 26.5406H55.3304C55.7732 26.5406 56.1979 26.3423 56.511 25.9892C56.8241 25.6361 57 25.1573 57 24.658V1.88168C56.9998 1.38254 56.8238 0.903926 56.5107 0.551069C56.1976 0.198212 55.773 -6.50318e-08 55.3304 0ZM53.6607 22.7763H50.3162V14.745C50.3163 14.3725 50.2184 14.0084 50.0349 13.6986C49.8514 13.3889 49.5905 13.1475 49.2853 13.005C48.9801 12.8625 48.6442 12.8253 48.3202 12.8981C47.9963 12.9709 47.6987 13.1504 47.4652 13.414L30.5187 32.524C30.3635 32.6991 30.1792 32.838 29.9764 32.9328C29.7736 33.0275 29.5562 33.0763 29.3366 33.0763C29.117 33.0763 28.8996 33.0275 28.6968 32.9328C28.4939 32.838 28.3097 32.6991 28.1544 32.524L21.9726 25.5517C21.8176 25.3768 21.6335 25.2381 21.4309 25.1434C21.2282 25.0488 21.0111 25 20.7917 25C20.5724 25 20.3553 25.0488 20.1526 25.1434C19.95 25.2381 19.7659 25.3768 19.6109 25.5517L6.39238 40.4543L4.03148 37.7875L19.6083 20.2228C19.9224 19.8701 20.3476 19.672 20.7909 19.672C21.2342 19.672 21.6594 19.8701 21.9735 20.2228L28.1561 27.1951C28.3112 27.37 28.4953 27.5087 28.6979 27.6034C28.9005 27.698 29.1177 27.7468 29.337 27.7468C29.5563 27.7468 29.7735 27.698 29.9761 27.6034C30.1787 27.5087 30.3628 27.37 30.5179 27.1951L45.1009 10.7519C45.3346 10.4888 45.4938 10.1533 45.5584 9.78813C45.623 9.42292 45.5901 9.0443 45.4638 8.70019C45.3375 8.35608 45.1236 8.06192 44.849 7.85492C44.5745 7.64793 44.2516 7.5374 43.9213 7.53731H36.802V3.7653H53.6607V22.7763Z" fill="white"/>
</svg>
