<svg width="55" height="66" viewBox="0 0 55 66" fill="none" xmlns="http://www.w3.org/2000/svg">
<g clip-path="url(#clip0_127_230)">
<path d="M53.9396 31.9994C53.7784 31.7144 53.5509 31.4787 53.2793 31.3151C53.0076 31.1515 52.7009 31.0655 52.3889 31.0655C49.7774 31.0606 47.2081 31.7689 44.9255 33.1227C42.6429 34.4766 40.7228 36.4311 39.3481 38.8003H17.8559C16.6656 38.7968 15.4864 39.0453 14.3867 39.5313C13.2871 40.0174 12.2887 40.7314 11.4494 41.632L0.731785 53.0678C0.392026 53.4306 0.201172 53.9225 0.201172 54.4353C0.201172 54.9482 0.392026 55.4401 0.731785 55.8029C5.13261 60.4986 9.75109 65.3907 9.79313 65.4385C10.1327 65.7985 10.5919 66.0006 11.0706 66.0006C11.5493 66.0006 12.0085 65.7985 12.3481 65.4385L19.2216 58.1383H34.4073C36.7228 58.1429 38.9951 57.4691 40.9763 56.1902C42.9575 54.9113 44.5716 53.0765 45.6424 50.8859C45.6975 50.7733 51.1867 39.5967 53.9929 33.9012C54.1381 33.6065 54.2096 33.2767 54.2002 32.9439C54.1909 32.611 54.1011 32.2864 53.9396 32.0014V31.9994ZM42.4317 49.0897C41.6673 50.6552 40.5145 51.9664 39.0993 52.8805C37.684 53.7945 36.0607 54.2762 34.4064 54.2729H18.478C17.9987 54.2727 17.5388 54.4751 17.1991 54.836L11.072 61.3428C9.62872 59.8118 7.14852 57.1754 4.57585 54.4383L14.0109 44.3711C14.5149 43.8316 15.1141 43.4041 15.7739 43.1132C16.4337 42.8224 17.141 42.674 17.8549 42.6766H37.4022L36.0112 45.5084C35.8582 45.8212 35.6276 46.0832 35.3446 46.2658C35.0616 46.4485 34.7371 46.5447 34.4064 46.5441H22.1016C21.621 46.5441 21.16 46.7478 20.8201 47.1104C20.4803 47.4731 20.2893 47.9649 20.2893 48.4777C20.2893 48.9906 20.4803 49.4824 20.8201 49.8451C21.16 50.2077 21.621 50.4114 22.1016 50.4114H34.4073C35.3997 50.4137 36.3737 50.125 37.2229 49.577C38.0721 49.0289 38.764 48.2425 39.2229 47.3036L42.0197 41.6081C42.7561 40.1175 43.7677 38.8014 44.9937 37.7393C46.2196 36.6772 47.6345 35.891 49.153 35.4283C46.2571 41.3091 42.4784 49.009 42.4327 49.1027L42.4317 49.0897Z" fill="white"/>
<path d="M16.6656 34.9331H38.4082C38.8888 34.9331 39.3498 34.7293 39.6896 34.3667C40.0295 34.0041 40.2204 33.5122 40.2204 32.9994V9.66837C40.2204 9.15552 40.0295 8.66368 39.6896 8.30104C39.3498 7.9384 38.8888 7.73467 38.4082 7.73467H32.9714V5.80097C32.9808 5.03283 32.8472 4.27033 32.5782 3.55774C32.3092 2.84515 31.9103 2.19666 31.4045 1.6499C30.8988 1.10315 30.2963 0.66902 29.6321 0.372715C28.9678 0.0764089 28.255 -0.0761719 27.535 -0.0761719C26.8151 -0.0761719 26.1023 0.0764089 25.438 0.372715C24.7737 0.66902 24.1713 1.10315 23.6655 1.6499C23.1598 2.19666 22.7608 2.84515 22.4919 3.55774C22.2229 4.27033 22.0892 5.03283 22.0987 5.80097V7.73467H16.6619C16.1812 7.73467 15.7203 7.9384 15.3804 8.30104C15.0405 8.66368 14.8496 9.15552 14.8496 9.66837V32.9994C14.8496 33.2536 14.8966 33.5054 14.9879 33.7403C15.0792 33.9752 15.213 34.1885 15.3817 34.3681C15.5504 34.5477 15.7506 34.6901 15.9709 34.787C16.1913 34.884 16.4273 34.9336 16.6656 34.9331ZM25.727 5.79997C25.727 5.28712 25.9179 4.79528 26.2578 4.43264C26.5976 4.07 27.0586 3.86627 27.5392 3.86627C28.0199 3.86627 28.4808 4.07 28.8207 4.43264C29.1606 4.79528 29.3515 5.28712 29.3515 5.79997V7.73467H25.727V5.79997ZM18.4779 11.6011H22.1024V13.5348C22.1024 14.0476 22.2934 14.5395 22.6332 14.9021C22.9731 15.2647 23.434 15.4685 23.9147 15.4685C24.3953 15.4685 24.8563 15.2647 25.1962 14.9021C25.536 14.5395 25.727 14.0476 25.727 13.5348V11.6011H29.3515V13.5348C29.3515 14.0476 29.5424 14.5395 29.8823 14.9021C30.2222 15.2647 30.6831 15.4685 31.1638 15.4685C31.6444 15.4685 32.1054 15.2647 32.4452 14.9021C32.7851 14.5395 32.976 14.0476 32.976 13.5348V11.6011H36.6006V31.0657H18.4779V11.6011Z" fill="white"/>
</g>
<defs>
<clipPath id="clip0_127_230">
<rect width="54" height="66" fill="white" transform="translate(0.201172)"/>
</clipPath>
</defs>
</svg>
