<svg width="40" height="61" viewBox="0 0 40 61" fill="none" xmlns="http://www.w3.org/2000/svg">
<path d="M26.8947 16.3349C26.6001 16.0055 26.2007 15.8204 25.7843 15.8204H13.2163C13.0101 15.8203 12.8059 15.8657 12.6154 15.954C12.4248 16.0423 12.2517 16.1717 12.1059 16.3349L8.96708 19.847C8.67248 20.1767 8.50698 20.6238 8.50698 21.09C8.50698 21.5562 8.67248 22.0034 8.96708 22.333L18.3894 32.8838C18.6841 33.2134 19.0836 33.3986 19.5003 33.3986C19.917 33.3986 20.3165 33.2134 20.6112 32.8838L30.0369 22.3368C30.3315 22.0072 30.497 21.56 30.497 21.0938C30.497 20.6276 30.3315 20.1805 30.0369 19.8508L26.8947 16.3349ZM19.4999 29.1542L12.2942 21.0934L13.8653 19.3354H25.1336L26.7047 21.0934L19.4999 29.1542ZM36.8905 22.8513L38.8968 16.9585C39.0245 16.5835 39.0337 16.171 38.9229 15.7894C38.8121 15.4078 38.5879 15.0801 38.2877 14.8607L33.5693 11.4131L32.0966 5.32661C32.0028 4.93935 31.7935 4.59962 31.5034 4.36377C31.2134 4.12793 30.8599 4.01014 30.5018 4.02996L24.8732 4.34415L20.4856 0.388705C20.2064 0.137156 19.8588 0 19.5003 0C19.1418 0 18.7942 0.137156 18.515 0.388705L14.1266 4.34415L8.49796 4.02996C8.13986 4.01032 7.78651 4.12817 7.49645 4.36399C7.2064 4.59981 6.99706 4.93944 6.90311 5.32661L5.43042 11.4131L0.712048 14.8607C0.411813 15.0801 0.187679 15.4078 0.0768793 15.7894C-0.03392 16.171 -0.0247189 16.5835 0.102949 16.9585L2.10923 22.8513L0.102949 28.7442C-0.0247189 29.1191 -0.03392 29.5316 0.0768793 29.9133C0.187679 30.2949 0.411813 30.6226 0.712048 30.842L5.43042 34.2896L6.90311 40.376C6.99664 40.7635 7.20587 41.1034 7.49603 41.3393C7.78618 41.5752 8.13976 41.6929 8.49796 41.6727L11.6452 41.4971V58.2425C11.6448 58.5908 11.7368 58.9314 11.9096 59.2212C12.0824 59.5109 12.3282 59.7366 12.6159 59.8698C12.9035 60.0029 13.2201 60.0374 13.5253 59.9689C13.8305 59.9004 14.1107 59.732 14.3302 59.485L19.505 53.6947L24.6797 59.485C24.8995 59.7307 25.1793 59.8979 25.484 59.9657C25.7886 60.0334 26.1043 59.9986 26.3913 59.8657C26.6783 59.7327 26.9236 59.5075 27.0962 59.2186C27.2689 58.9297 27.3611 58.59 27.3613 58.2425V41.4961L30.5086 41.6718C30.8667 41.6912 31.2199 41.5733 31.5099 41.3375C31.8 41.1017 32.0093 40.7622 32.1034 40.3751L33.5761 34.2886L38.2945 30.841C38.5947 30.6216 38.8189 30.2939 38.9297 29.9123C39.0405 29.5307 39.0313 29.1182 38.9036 28.7432L36.8905 22.8513ZM24.2132 53.9985L20.6078 49.968C20.3132 49.6384 19.9136 49.4532 19.4969 49.4532C19.0803 49.4532 18.6807 49.6384 18.386 49.968L14.784 53.9985V41.9556L18.5116 45.3159C18.7908 45.5674 19.1385 45.7046 19.4969 45.7046C19.8554 45.7046 20.203 45.5674 20.4822 45.3159L24.2132 41.9556V53.9985ZM33.7415 23.4769L35.5103 28.672L31.3535 31.7096C31.0307 31.9455 30.7967 32.306 30.6961 32.7224L29.3981 38.0884L24.4363 37.8112C24.0513 37.7895 23.6726 37.927 23.3725 38.1976L19.5033 41.685L15.6341 38.1976C15.3548 37.9457 15.007 37.8084 14.6483 37.8084H14.5703L9.60842 38.0856L8.30709 32.7243C8.20642 32.3079 7.97242 31.9474 7.64964 31.7115L3.49285 28.6739L5.26161 23.4788C5.39893 23.0756 5.39893 22.6299 5.26161 22.2267L3.49285 17.0316L7.64964 13.994C7.97242 13.7581 8.20642 13.3977 8.30709 12.9812L9.60502 7.61236L14.5669 7.88954C14.9527 7.91039 15.3318 7.77112 15.6315 7.49845L19.4999 4.01477L23.3691 7.49845C23.6693 7.76896 24.0479 7.90647 24.4329 7.88479L29.3947 7.60761L30.6927 12.9736C30.7933 13.3901 31.0273 13.7505 31.3501 13.9865L35.5069 17.024L33.7382 22.2191C33.6009 22.6224 33.6009 23.068 33.7382 23.4712L33.7415 23.4769Z" fill="white"/>
</svg>
