<svg width="61" height="58" viewBox="0 0 61 58" fill="none" xmlns="http://www.w3.org/2000/svg">
<path d="M50.0598 20.5735C50.0598 20.4645 50.0598 20.3556 50.0598 20.2456C50.0598 15.1402 47.9954 10.2439 44.3209 6.6338C40.6463 3.02372 35.6626 0.995605 30.4659 0.995605C25.2693 0.995605 20.2856 3.02372 16.611 6.6338C12.9365 10.2439 10.8721 15.1402 10.8721 20.2456C10.8721 20.3556 10.8721 20.4645 10.8721 20.5735C8.49522 21.7572 6.38895 23.4046 4.68201 25.415C2.97507 27.4254 1.70331 29.7567 0.944438 32.2663C0.185564 34.776 -0.0444822 37.4113 0.268355 40.0112C0.581193 42.6111 1.43034 45.1211 2.76392 47.3877C4.0975 49.6543 5.88749 51.63 8.02453 53.194C10.1616 54.758 12.6007 55.8775 15.193 56.484C17.7853 57.0906 20.4763 57.1715 23.1015 56.7217C25.7267 56.272 28.231 55.3011 30.4613 53.8684C33.6374 55.912 37.3522 56.9991 41.1489 56.9961C45.5691 57.0276 49.8701 55.588 53.3514 52.9118C56.8327 50.2356 59.2894 46.4804 60.3215 42.2576C61.3535 38.0348 60.9001 33.5932 59.0352 29.6558C57.1702 25.7184 54.0034 22.5173 50.0505 20.5735H50.0598ZM30.4685 49.4785C27.3411 46.7346 25.435 42.8943 25.1602 38.7838C28.6319 39.7415 32.3051 39.7415 35.7769 38.7838C35.502 42.8943 33.5959 46.7346 30.4685 49.4785ZM30.4685 36.0001C28.7245 36.0018 26.992 35.7226 25.3399 35.1738C25.9389 31.6384 27.7482 28.4098 30.4685 26.0218C33.1911 28.4089 35.0026 31.6376 35.6033 35.1738C33.9492 35.7233 32.2146 36.0024 30.4685 36.0001ZM22.0167 33.6271C20.0778 32.4425 18.4182 30.8655 17.1485 29.0012C15.8789 27.1369 15.0282 25.0281 14.6534 22.8154C16.3091 22.2736 18.043 21.9983 19.7882 22.0001C22.4904 21.997 25.149 22.6692 27.514 23.9534C24.7565 26.579 22.8456 29.943 22.0187 33.6271H22.0167ZM33.4323 23.9534C35.7973 22.6692 38.4559 21.997 41.1581 22.0001C42.9032 21.9983 44.6372 22.2736 46.2929 22.8154C45.9178 25.0282 45.0669 27.1371 43.7968 29.0015C42.5268 30.8658 40.8668 32.4427 38.9276 33.6271C38.1007 29.943 36.1897 26.579 33.4323 23.9534ZM30.4685 4.50015C34.5358 4.5044 38.4498 6.02545 41.4195 8.75589C44.3891 11.4863 46.193 15.2226 46.4665 19.2094C44.7378 18.7385 42.952 18.5009 41.1581 18.5032C37.3615 18.5001 33.6467 19.5873 30.4706 21.6309C27.2945 19.5873 23.5797 18.5001 19.783 18.5032C17.9892 18.5009 16.2033 18.7385 14.4747 19.2094C14.7481 15.2232 16.5514 11.4876 19.5202 8.75727C22.489 6.02693 26.4019 4.50542 30.4685 4.50015ZM19.7882 53.5001C16.2844 53.5302 12.8675 52.4298 10.0617 50.368C7.25585 48.3062 5.21618 45.3968 4.25566 42.0863C3.29514 38.7758 3.46684 35.2471 4.74442 32.0417C6.02199 28.8363 8.33486 26.1314 11.3281 24.3419C11.9499 27.126 13.191 29.7404 14.9624 31.9978C16.7338 34.2551 18.9917 36.0994 21.574 37.3985C21.574 37.5166 21.574 37.6336 21.574 37.7527C21.5716 40.3255 22.0958 42.8726 23.1153 45.2425C24.1348 47.6123 25.6289 49.7566 27.5088 51.5479C25.1453 52.831 22.4885 53.5028 19.7882 53.5001ZM41.1632 53.5001C38.4594 53.5045 35.7989 52.8326 33.4323 51.5479C35.314 49.7573 36.8099 47.6132 37.831 45.2431C38.8522 42.873 39.3777 40.3253 39.3763 37.7517C39.3763 37.6336 39.3763 37.5156 39.3763 37.3975C41.9587 36.0984 44.2166 34.2541 45.988 31.9968C47.7594 29.7394 49.0005 27.125 49.6223 24.3409C52.6155 26.1303 54.9284 28.8353 56.206 32.0407C57.4835 35.2461 57.6552 38.7748 56.6947 42.0853C55.7342 45.3958 53.6945 48.3051 50.8887 50.367C48.0829 52.4288 44.6659 53.5291 41.1622 53.4991L41.1632 53.5001Z" fill="white"/>
</svg>
